<svg id="Calque_1" data-name="Calque 1" xmlns="http://www.w3.org/2000/svg"
     viewBox="0 0 41 41">
    <defs>
        <style>
            .cls-1{fill:none;}.cls-2{fill:#fff;}.cls-3{clip-path:url(#clip-path);}.cls-4{fill:#9ce8f7;}.cls-5{fill:#ff7a00;}.cls-6{fill:#00b5e8;}.cls-7{fill:#7d4d45;}.cls-8{fill:#70453d;}.cls-9{fill:#9e7a73;}.cls-10{fill:#ffb5e8;}.cls-11{fill:#ffe8f7;}.cls-12{fill:#878787;}.cls-13{fill:#696969;}
        </style>
        <clipPath id="clip-path">
            <path class="cls-1" d="M17.3,0A20.38,20.38,0,0,0,0,17.9v4.8A20.57,20.57,0,1,0,23.5,0Z"/>
        </clipPath>
    </defs>
    <title>Menu_Divertissement ok</title>
    <rect class="cls-2" width="41" height="41"/>
    <g class="cls-3">
        <rect class="cls-4" x="-11" y="-5.3" width="63" height="65.7"/>
    </g>
    <g class="cls-3">
        <path d="M30.2,33.6,14.7,34.8c-1.5.8-5.3,4-4.9,6.9,1.4,10,8.6,16.5,9,16.6a12.39,12.39,0,0,0,2.8-.1c0-.2-1.8-10.1-2.7-15.3a3.75,3.75,0,0,1,2.7-3.8A9.57,9.57,0,0,1,25,39c1.8.1,4.4,1.8,4.3,3.6-.2,5.8-2.9,15.2-2.9,15.5s2.5.2,2.9.2,8.1-4.9,8.1-17.5c-.1-3.9-7.2-7.2-7.2-7.2"/>
    </g>
    <g class="cls-3">
        <path class="cls-2"
              d="M28.9,76.1c-.1,0-.1,0-.1-.1-.3-1.1-3.9-12-13-11.5C10,64.8,6.3,64.2,6,63c-.1-.5.7-1,2.2-1.3a58.75,58.75,0,0,1,9-.2c4.5.1,9.2.2,10.2-.5,1.3-.9,1.1-15.5.6-25.1a.35.35,0,0,1,.1-.2.35.35,0,0,1,.2.1c.1,2.5,1.2,24.1-.7,25.3-1.1.7-5.6.6-10.4.5-3.6-.1-7.3-.2-8.9.2-1.3.3-1.9.7-1.9.9.1.6,2.7,1.4,9.3,1.1,10-.4,13,10.8,13.3,11.7,0,.5,0,.6-.1.6Z"/>
    </g>
    <g class="cls-3">
        <path class="cls-5"
              d="M33.1,24.8a27.74,27.74,0,0,1,4.5-6.1,65.49,65.49,0,0,0-8.3-5.5c-1.5-.7-7.1.8-7.1.8l-4.8.8L9.4,20c-1.1.8-1.2,10,1.4,16.5a8.37,8.37,0,0,0,6.3-2.4c0-.4-2.7-8.9-1.5-7.3.6.8,1.7,8.1,1.7,8.1l4.4.5.8.2,1.1-.1a9.22,9.22,0,0,0,3,.2,1.79,1.79,0,0,0,1.7-1.9c-.1-4.1-.1-11,0-11.7.3-.8,4.6,2.2,4.8,2.7"/>
    </g>
    <g class="cls-3">
        <path class="cls-6"
              d="M32.6,31.9l-5.1,3.5a.83.83,0,0,1-1.2-.2l-.4-.5a.83.83,0,0,1,.2-1.2L31.2,30a.83.83,0,0,1,1.2.2l.4.5a.83.83,0,0,1-.2,1.2"/>
    </g>
    <g class="cls-3">
        <path d="M31.3,30.9l-5,3.4c-.1.1-.3,0-.4-.1s0-.3.1-.4l5-3.4c.1-.1.3,0,.4.1s0,.4-.1.4"/>
    </g>
    <g class="cls-3">
        <path class="cls-7" d="M13.2,36.2c.5,1.4,3,1.8,3.8,2s4.8-.2,8.2-2.6c-.2-1.6-.6-1.9-.6-1.9a12,12,0,0,1-7.5.5Z"/>
    </g>
    <g class="cls-3">
        <path class="cls-7"
              d="M37.2,19.1c1.3.7,1.1,2,1,3.3A12,12,0,0,1,34,29.7a6,6,0,0,1-2.2-1c2.6-3.1,2.4-5.8,2.4-5.8Z"/>
    </g>
    <g class="cls-3">
        <path class="cls-7"
              d="M24.8,33c-.2.4-1.2,1.1-1.2,1.6a2,2,0,0,0,1.2,1.5,7.94,7.94,0,0,0,2.5-.2c.7-.2,1.3-.1,1.4-.3.2-.7-.7-.7-1.1-.5a1.32,1.32,0,0,1-1.5-.1c-.3-.3-.1-1,.2-1.4s1.7-.7,1.3-1.7c-.3-.6-.6-.2-.8.2-.4.3-1.9.6-2,.9"/>
    </g>
    <g class="cls-3">
        <path class="cls-7"
              d="M31.2,28.6a7.41,7.41,0,0,1,2.1.1,1.17,1.17,0,0,1,.9,1.1A6.36,6.36,0,0,1,33.1,32c-.4.6-.6,1.2-.8,1.1-.8-.1-.4-.9-.1-1.2a1.46,1.46,0,0,0,.5-1.4,1.06,1.06,0,0,0-1.3-.3c-.4.1-1.3,1.4-2.2.6-.4-.4.1-.7.5-.7.3-.2,1.2-1.5,1.5-1.5"/>
    </g>
    <g class="cls-3">
        <path class="cls-7" d="M16.5,12.4a7.69,7.69,0,0,1,.3,3.3c.6,1.1,5.1,1.3,5.6-1.7a11.15,11.15,0,0,1-1.6-3Z"/>
    </g>
    <g class="cls-3">
        <path class="cls-7" d="M20.6,6.7c.3-.3.8-.5,1-.1a1.34,1.34,0,0,1-.9,1.8c-.8,0-.1-1.7-.1-1.7"/>
    </g>
    <g class="cls-3">
        <path class="cls-8"
              d="M21.4,6.5c-.3,0-.6.5-.6.8v.2q.15-.3.3-.3a.22.22,0,0,1,.2.2.19.19,0,0,0-.1-.3h-.1c-.1,0,.2-.5.3-.6h.1c0,.1-.1,0-.1,0"/>
    </g>
    <g class="cls-3">
        <path class="cls-7" d="M14,8.7c-.4-.1-.9-.1-1,.4s.7,1.5,1.6,1.2S14,8.7,14,8.7"/>
    </g>
    <g class="cls-3">
        <path class="cls-8"
              d="M13.5,8.9c-.1,0-.2,0-.2.1h.1a1.63,1.63,0,0,1,.6.3c-.3.1-.2.3-.1.4a.19.19,0,0,1,.1-.3c.1,0,.2.1.4.2l-.1-.2a1,1,0,0,0-.8-.5"/>
    </g>
    <g class="cls-3">
        <path d="M14.6,9.2a6.33,6.33,0,0,0,.2,2.3A16.42,16.42,0,0,0,18,12.9c.3.2.4,0,1.4-.2a8.65,8.65,0,0,0,2.4-3.1,23,23,0,0,0-.9-2.5,11.55,11.55,0,0,1-1-2.4c0-.5-.4-1.8-1-2-.1-.4.2-.5-.2-.6a8.08,8.08,0,0,1-1.9-.3c-.6-.2-1.8,0-1.8.9-.5-.1-1,.9-.9,1.7a23.87,23.87,0,0,0,.2,2.4Z"/>
    </g>
    <g class="cls-3">
        <path class="cls-7"
              d="M14.7,7c-.4-.8-.4-1.7.3-3.5.4.6,2.6,0,2.6,0,.2.1,1.4.5,1.6,1.2a19.43,19.43,0,0,0,1,2.4c.1.4.4,1.4,0,1.7s-1.6,0-2.5.5-1.2,1.1-1.8.9a2.06,2.06,0,0,1-1.1-1.8c0-.5-.1-1.4-.1-1.4"/>
    </g>
    <g class="cls-3">
        <path class="cls-9" d="M17.6,7.7h0c-.3.1-.3.8-.3.9a.35.35,0,0,0,.2.1h.3c.3-.1.5-.2.4-.3s-.3-.7-.6-.7"/>
    </g>
    <g class="cls-3">
        <path class="cls-10" d="M16.4,10.5a6.15,6.15,0,0,0,3.8-1.2c-.2,1.1-.5,2-1.5,2.2a2.78,2.78,0,0,1-2.3-1"/>
    </g>
    <g class="cls-3">
        <path class="cls-2" d="M19.8,9.5a7.74,7.74,0,0,1-2.8,1c.3.2.7.3,1.6,0a2.55,2.55,0,0,0,1.2-1"/>
    </g>
    <g class="cls-3">
        <path class="cls-11" d="M19.2,10.7c-.1-.2-.7,0-.9.8h.3a1.61,1.61,0,0,0,1.3-1.2c-.2-.2-.6.1-.7.4"/>
    </g>
    <g class="cls-3">
        <path d="M19.5,11.4a1.14,1.14,0,0,1-.8.3h-.1c.1.1.2.2.3.2s.6-.3.6-.5"/>
    </g>
    <g class="cls-3">
        <path d="M13.8,6.7a.75.75,0,0,1-.5-.1c-.1-.1-.2-.4,0-.4a1.78,1.78,0,0,1-.7-.8c0-.1-.1-.3,0-.4s.2-.2.3-.2a.89.89,0,0,1-.5-.8.59.59,0,0,1,.7-.5,1,1,0,0,1,0-.9.47.47,0,0,1,.8,0,2.61,2.61,0,0,1,.3-.8.42.42,0,0,1,.7,0c.2-.3.2,0,.6-.2s.9-.6.8-.2a1.49,1.49,0,0,1,.9-.4c.3.1.4.3.5.6a.62.62,0,0,1,.7-.2.52.52,0,0,1,.3.7.48.48,0,0,1,.6.2.85.85,0,0,1,0,.7c.2,0,.3.3.2.5a.82.82,0,0,1,.5.8.63.63,0,0,1-.5.6,2,2,0,0,0-.9-1.1c-.1,0-.1-.1-.2-.1a.37.37,0,0,0-.3.1,12.26,12.26,0,0,1-3.3.8c-.2,0-.4,0-.5.2s0,.4-.1.5"/>
    </g>
    <g class="cls-3">
        <path class="cls-12"
              d="M17.3,5.6l-1,.3c-.1,0-.3,0-.3-.2l-.1-.2c0-.1,0-.3.2-.3l1-.3c.1,0,.3,0,.3.2l.1.2c.1.1,0,.3-.2.3"/>
    </g>
    <g class="cls-3">
        <path class="cls-13"
              d="M17.3,5.6l-.1-.3-1,.3h0l-.1-.2h0l1-.3h0l.1.2h0l.1.3.1.3a.66.66,0,0,0,.4-.5V5.2L17.7,5h0a.66.66,0,0,0-.5-.4H17l-1,.3a.66.66,0,0,0-.4.5v.2h0l.1.2h0c.1.2.3.5.5.5h.2l1-.3Z"/>
    </g>
    <g class="cls-3">
        <path class="cls-12"
              d="M12.8,6.8c-.2.7-.1,2.4.7,2.8s3-.4,3.1-.6c.9-.9.7-1.1,2.7-.6.3.1,2.3-1.1,2.3-1.5a3.29,3.29,0,0,0-.8-2.2c-1.8-.7-6.7.7-8,2.1"/>
    </g>
    <g class="cls-3">
        <path class="cls-13"
              d="M12.8,6.8l-.3-.1a2.22,2.22,0,0,0-.1.9,5,5,0,0,0,.2,1.2,1.83,1.83,0,0,0,.7,1,1.48,1.48,0,0,0,.7.1,4.53,4.53,0,0,0,1.6-.3,2.54,2.54,0,0,1,.7-.2.35.35,0,0,0,.2-.1h.1a.1.1,0,0,0,.1-.1h0a3.19,3.19,0,0,1,.7-.6c.1-.1.1-.1.2-.1h.3c.2,0,.6.1,1.3.2h.1a.37.37,0,0,0,.3-.1l.6-.3c.3-.2.7-.4,1-.6a.76.76,0,0,1,.2-.5c0-.1.1-.1.1-.2s.1-.1.1-.2h0a5.85,5.85,0,0,0-.2-1.3,2.19,2.19,0,0,1-.3-.5,1.76,1.76,0,0,0-.4-.5h0a5.07,5.07,0,0,0-1.3-.2,14.63,14.63,0,0,0-3.9.7c-.6.2-1.2.5-1.7.7a6.22,6.22,0,0,0-1.2.8h0v.1l.2.2L13,7a6.29,6.29,0,0,1,1.1-.8,13.94,13.94,0,0,1,2.7-1,9,9,0,0,1,2.8-.4,3.09,3.09,0,0,1,1.1.2l.1-.3-.1.2c.1,0,.2.1.3.2a2.93,2.93,0,0,1,.4,1.6h0a.1.1,0,0,1-.1.1l-.4.4-.9.6c-.1.2-.3.2-.4.3h-.1v0h0v0a4.19,4.19,0,0,0-1.4-.2.9.9,0,0,0-.5.1,2.19,2.19,0,0,0-.5.3l-.5.5h0l.1.1-.2-.2h0l.1.1-.1-.1h-.1c-.2.1-.6.2-1,.4a6,6,0,0,1-1.2.2c-.2,0-.3,0-.4-.1a1.28,1.28,0,0,1-.5-.7,3.55,3.55,0,0,1-.2-1,1.48,1.48,0,0,1,.1-.7h-.4L13,7Z"/>
    </g>
    <rect class="cls-12" x="15.39" y="1.4" width="1.1" height="3.7" transform="translate(-0.31 3.91) rotate(-13.83)"/>
    <g class="cls-3">
        <polygon class="cls-13"
                 points="15 1.6 15 1.7 16 1.5 16.8 4.8 16 5 15.1 1.5 15 1.6 15 1.7 15 1.6 14.9 1.6 15.8 5.3 17.1 5 16.2 1.2 14.8 1.5 14.9 1.6 15 1.6"/>
    </g>
    <g class="cls-3">
        <path class="cls-2" d="M16.3,15.5a.75.75,0,0,0-.1.5c.1.2.5.1.4-.1v-.1c.2-.3-.2-.5-.3-.3"/>
    </g>
    <g class="cls-3">
        <path class="cls-2" d="M16.2,16.1a.52.52,0,0,0,.2.4c.2.1.4-.2.2-.3v-.1c0-.2-.4-.2-.4,0"/>
    </g>
    <g class="cls-3">
        <path class="cls-2" d="M16.6,16.7c.1.1.3.3.4.3s.4-.2.2-.3-.3-.2-.4-.3-.3.1-.2.3"/>
    </g>
    <g class="cls-3">
        <path class="cls-2" d="M17.4,17.2c.1.1.3.1.4.2s.2,0,.2-.1,0-.2-.1-.2-.3-.1-.4-.2-.2,0-.2.1,0,.2.1.2"/>
    </g>
    <g class="cls-3">
        <path class="cls-2" d="M18.3,17.5a.9.9,0,0,0,.5.1.2.2,0,1,0,0-.4.6.6,0,0,1-.4-.1c-.2-.1-.4.3-.1.4"/>
    </g>
    <g class="cls-3">
        <path class="cls-2" d="M19.3,17.7h.4a.2.2,0,1,0,0-.4h-.4c-.2,0-.2.4,0,.4"/>
    </g>
    <g class="cls-3">
        <path class="cls-2" d="M20,17.7h0c.2.3.6.1.4-.2-.1-.1-.2-.2-.3-.2s-.3.4-.1.4"/>
    </g>
    <g class="cls-3">
        <path class="cls-2" d="M20.2,17.9a.6.6,0,0,1,.1.4.2.2,0,1,0,.4,0c0-.2-.1-.3-.1-.5s-.1-.2-.2-.1-.3.1-.2.2"/>
    </g>
    <g class="cls-3">
        <path class="cls-2"
              d="M20.4,19a.75.75,0,0,0,.1.5c0,.1.2.1.3.1a.37.37,0,0,0,.1-.3c0-.1-.1-.2-.1-.3a.2.2,0,1,0-.4,0"/>
    </g>
    <g class="cls-3">
        <path class="cls-2" d="M20.6,19.9c0,.2.1.4.1.6s.4.1.4-.1-.1-.3-.1-.5a.2.2,0,1,0-.4,0"/>
    </g>
    <g class="cls-3">
        <path class="cls-2" d="M20.7,21c0,.1.1.3.1.4.1.3.4.1.4-.1s-.1-.3-.1-.4c0-.3-.4-.2-.4.1"/>
    </g>
    <g class="cls-3">
        <path class="cls-2" d="M20.9,22.1c.1.2.1.4.2.6s.5.1.4-.1-.1-.4-.2-.6-.5-.2-.4.1"/>
    </g>
    <g class="cls-3">
        <path class="cls-2" d="M21.2,23.5a.75.75,0,0,0,.1.5.2.2,0,0,0,.4,0,.75.75,0,0,0-.1-.5.2.2,0,0,0-.4,0"/>
    </g>
    <g class="cls-3">
        <path class="cls-2" d="M21.3,24.4a.75.75,0,0,1,.1.5.2.2,0,1,0,.4,0c0-.2-.1-.4-.1-.6s-.1-.2-.2-.1-.3.1-.2.2"/>
    </g>
    <g class="cls-3">
        <path class="cls-2" d="M21.5,25.4v.7a.2.2,0,0,0,.4,0v-.7a.2.2,0,1,0-.4,0"/>
    </g>
    <g class="cls-3">
        <path class="cls-2"
              d="M21.6,26.5a.6.6,0,0,0,.1.4c0,.1.2.2.2.1s.2-.1.1-.2a.6.6,0,0,0-.1-.4c0-.1-.2-.2-.2-.1s-.1.1-.1.2"/>
    </g>
    <g class="cls-3">
        <path class="cls-2"
              d="M21.7,27.4a1.27,1.27,0,0,0,.1.6c0,.1.1.2.2.1s.2-.1.1-.2a.9.9,0,0,1-.1-.5c.1-.3-.3-.3-.3,0"/>
    </g>
    <g class="cls-3">
        <path class="cls-2" d="M22.3,28.4c.1,0,.2-.1.3-.1a.2.2,0,1,0,0-.4.6.6,0,0,0-.4.1c-.3.1-.2.5.1.4"/>
    </g>
    <g class="cls-3">
        <path class="cls-2" d="M23,28.3h.4c.3-.1.1-.5-.1-.4H23a.2.2,0,1,0,0,.4"/>
    </g>
    <g class="cls-3">
        <path class="cls-2" d="M23.4,27.8a1.27,1.27,0,0,1-.1-.6.2.2,0,1,0-.4,0,1.7,1.7,0,0,0,.1.7c.1.2.5.1.4-.1"/>
    </g>
    <g class="cls-3">
        <path class="cls-2" d="M23.2,26.5c0-.2-.1-.5-.1-.7s-.5-.1-.4.1a1.27,1.27,0,0,1,.1.6.2.2,0,1,0,.4,0"/>
    </g>
    <g class="cls-3">
        <path class="cls-2" d="M23,25.2v-.5a.2.2,0,1,0-.4,0v.5c-.1.3.4.3.4,0"/>
    </g>
    <g class="cls-3">
        <path class="cls-2" d="M22.9,24v-.5a.2.2,0,1,0-.4,0V24c-.1.3.4.3.4,0"/>
    </g>
    <g class="cls-3">
        <path class="cls-2" d="M22.5,22.7v-.6a.2.2,0,1,0-.4,0v.6c.1.3.6.3.4,0"/>
    </g>
    <g class="cls-3">
        <path class="cls-2" d="M22.3,21.5v-.7a.2.2,0,1,0-.4,0v.7c.1.2.5.2.4,0"/>
    </g>
    <g class="cls-3">
        <path class="cls-2" d="M22.2,20.2a1.63,1.63,0,0,1,0-.7.2.2,0,1,0-.4,0,2.2,2.2,0,0,0,.1.8c0,.3.4.2.3-.1"/>
    </g>
    <g class="cls-3">
        <path class="cls-2" d="M22.1,19.2a4.33,4.33,0,0,0-.1-.5.2.2,0,1,0-.4,0,2,2,0,0,0,.1.7c.1.1.5,0,.4-.2"/>
    </g>
    <g class="cls-3">
        <path class="cls-2" d="M21.9,18v-.6a.2.2,0,1,0-.4,0v.7c0,.1.2.2.2.1.2,0,.3-.1.2-.2"/>
    </g>
    <g class="cls-3">
        <path class="cls-2"
              d="M21.8,17c0-.1,0-.1.1-.2s0-.2-.1-.3-.2,0-.3.1a.75.75,0,0,0-.1.5c0,.1.2.2.2.1a.22.22,0,0,0,.2-.2"/>
    </g>
    <g class="cls-3">
        <path class="cls-2" d="M22.2,16.6l.4-.4c.2-.1,0-.5-.2-.3s-.3.3-.5.4.1.4.3.3"/>
    </g>
    <g class="cls-3">
        <path class="cls-2" d="M23,15.8l.3-.3a.21.21,0,0,0-.3-.3l-.4.4c-.1.1,0,.2.1.3a.37.37,0,0,0,.3-.1"/>
    </g>
    <g class="cls-3">
        <path class="cls-2" d="M23.4,15.1a4.33,4.33,0,0,1,.1-.5c.1-.3-.3-.4-.4-.1a4.33,4.33,0,0,1-.1.5c-.1.2.3.3.4.1"/>
    </g>
    <g class="cls-3">
        <path class="cls-2" d="M23.5,14.2a.6.6,0,0,1,.1-.4c0-.3-.3-.4-.4-.1a.6.6,0,0,1-.1.4c0,.4.4.5.4.1"/>
    </g>
    <g class="cls-3">
        <path class="cls-2" d="M23.5,13.6v-.1c-.1-.3-.4-.1-.4.1v.1c.1.3.5.2.4-.1"/>
    </g>
    <g class="cls-3">
        <path class="cls-2"
              d="M28.9,13.2a.88.88,0,0,0-.1.7c0,.1.2.2.2.1s.2-.1.1-.2a.6.6,0,0,1,.1-.4c.2-.3-.2-.5-.3-.2"/>
    </g>
    <g class="cls-3">
        <path class="cls-2" d="M28.7,14.2v.5c0,.1,0,.2.1.2s.2,0,.2-.1.1-.4.1-.6-.4-.2-.4,0"/>
    </g>
    <g class="cls-3">
        <path class="cls-2" d="M28.6,15.4v.7a.2.2,0,1,0,.4,0v-.7a.2.2,0,1,0-.4,0"/>
    </g>
    <g class="cls-3">
        <path class="cls-2" d="M28.6,16.9v.4a.2.2,0,0,0,.4,0v-.4a.22.22,0,0,0-.2-.2c-.1,0-.1.1-.2.2"/>
    </g>
    <g class="cls-3">
        <path class="cls-2" d="M28.5,18.1v.5a.2.2,0,1,0,.4,0v-.5c.1-.3-.3-.3-.4,0"/>
    </g>
    <g class="cls-3">
        <path class="cls-2" d="M28.5,19.4V20a.2.2,0,1,0,.4,0v-.6c0-.2-.4-.2-.4,0"/>
    </g>
    <g class="cls-3">
        <path class="cls-2" d="M28.5,20.7a.64.64,0,0,0,0,.6c.1.3.5.1.4-.1v-.4c.1-.2-.3-.3-.4-.1"/>
    </g>
    <g class="cls-3">
        <path class="cls-2" d="M9.7,20.2c.2,0,.4,0,.5.2a.21.21,0,0,0,.3-.3,1.14,1.14,0,0,0-.8-.3.2.2,0,1,0,0,.4"/>
    </g>
    <g class="cls-3">
        <path class="cls-2"
              d="M10.7,20.9c.2.1.4.3.6.4a.21.21,0,1,0,.3-.3c-.2-.1-.4-.3-.6-.4a.19.19,0,0,0-.3,0s-.1.2,0,.3"/>
    </g>
    <g class="cls-3">
        <path class="cls-2"
              d="M11.7,21.8a4.35,4.35,0,0,1,.6.7.37.37,0,0,0,.3.1c.1,0,.1-.2.1-.3a5,5,0,0,0-.7-.8.21.21,0,1,0-.3.3"/>
    </g>
    <g class="cls-3">
        <path class="cls-2" d="M12.7,23a1.21,1.21,0,0,0,.5.5.21.21,0,1,0,.3-.3c-.2-.1-.3-.3-.4-.4-.2-.3-.6,0-.4.2"/>
    </g>
    <g class="cls-3">
        <path class="cls-2" d="M13.5,24a2.18,2.18,0,0,0,.4.5c.1.2.5,0,.3-.2a2.18,2.18,0,0,0-.4-.5c-.1-.2-.5,0-.3.2"/>
    </g>
    <g class="cls-3">
        <path class="cls-2" d="M14.4,25.2l.3.6c.1.2.5,0,.3-.2l-.3-.6c0-.2-.5,0-.3.2"/>
    </g>
    <g class="cls-3">
        <path class="cls-2"
              d="M15.3,26.5c0,.1.1.2.1.3s.2.1.3.1a.37.37,0,0,0,.1-.3c0-.1-.1-.2-.1-.3s-.2-.1-.3-.1-.2.2-.1.3"/>
    </g>
    <g class="cls-3">
        <path class="cls-2" d="M10.8,36.1a1.27,1.27,0,0,0,.6.1c.3-.1.1-.4-.1-.4a.37.37,0,0,1-.3-.1c-.2-.1-.4.2-.2.4"/>
    </g>
    <g class="cls-3">
        <path class="cls-2"
              d="M11.9,36.2a.9.9,0,0,0,.5-.1c.1,0,.2-.1.1-.2s-.1-.2-.2-.1a.6.6,0,0,1-.4.1c-.3-.1-.3.3,0,.3"/>
    </g>
    <g class="cls-3">
        <path class="cls-2" d="M13.1,35.9a.52.52,0,0,1,.4-.2c.2-.1,0-.5-.2-.3a.52.52,0,0,1-.4.2c-.3.1,0,.5.2.3"/>
    </g>
    <g class="cls-3">
        <path class="cls-2" d="M14.2,35.4c.1-.1.2-.1.3-.2s0-.5-.2-.3-.2.1-.3.2c-.3.1-.1.5.2.3"/>
    </g>
    <g class="cls-3">
        <path class="cls-2" d="M15.2,34.7a.76.76,0,0,1,.4-.2c.2-.1,0-.5-.2-.3a.76.76,0,0,1-.4.2c-.2.1,0,.4.2.3"/>
    </g>
    <g class="cls-3">
        <path class="cls-2" d="M16.1,34.2c.1-.1.3-.2.4-.3a.21.21,0,1,0-.3-.3c-.1.1-.2.1-.3.2s0,.5.2.4"/>
    </g>
    <g class="cls-3">
        <path class="cls-2" d="M16.8,33.8l.2-.2c.2-.1,0-.5-.2-.3l-.2.2c-.2.1,0,.5.2.3"/>
    </g>
    <g class="cls-3">
        <path class="cls-2"
              d="M32.9,24.3c0-.1.1-.2.1-.4a.37.37,0,0,0-.1-.3c-.1-.1-.2,0-.3.1a.75.75,0,0,0-.1.5c0,.1,0,.2.1.2s.3,0,.3-.1"/>
    </g>
    <g class="cls-3">
        <path class="cls-2" d="M33.3,23.6a1.38,1.38,0,0,1,.3-.4.21.21,0,1,0-.3-.3,2.18,2.18,0,0,0-.4.5c-.1.2.2.4.4.2"/>
    </g>
    <g class="cls-3">
        <path class="cls-2" d="M34.1,22.4l.3-.3a.37.37,0,0,0,.1-.3c0-.1-.2-.1-.3-.1s-.3.3-.5.5a.22.22,0,0,0,.4.2"/>
    </g>
    <g class="cls-3">
        <path class="cls-2"
              d="M35,21.4a1.38,1.38,0,0,1,.3-.4.21.21,0,1,0-.3-.3,1,1,0,0,0-.4.5.37.37,0,0,0,.1.3c0,.1.1,0,.3-.1"/>
    </g>
    <g class="cls-3">
        <path class="cls-2" d="M35.7,20.3a1.38,1.38,0,0,1,.3-.4.21.21,0,1,0-.3-.3,2.18,2.18,0,0,0-.4.5c0,.3.3.5.4.2"/>
    </g>
    <g class="cls-3">
        <path class="cls-2" d="M36.4,19.4c.1-.1.1-.3.2-.4a.21.21,0,1,0-.3-.3,1.27,1.27,0,0,0-.4.6c.1.2.5.3.5.1"/>
    </g>
    <g class="cls-3">
        <path class="cls-2" d="M37.1,18.3v-.1a.21.21,0,1,0-.3-.3c-.1.1-.1.2-.1.4a.2.2,0,1,0,.4,0"/>
    </g>
    <g class="cls-3">
        <path class="cls-12"
              d="M12.9,36.8c-.1.1-.2.1-.3.2a.37.37,0,0,0-.1.3c0,.1.2.1.3.1s.2-.1.3-.2a.37.37,0,0,0,.1-.3c-.1-.1-.3-.2-.3-.1"/>
    </g>
    <g class="cls-3">
        <path class="cls-13"
              d="M12.9,36.8l-.1-.1c-.1.1-.2.1-.3.2h0a.37.37,0,0,0-.1.3v.2a.1.1,0,0,0,.1.1h.2c.1,0,.1,0,.2-.1s.2-.1.3-.2h0a.37.37,0,0,0,.1-.3v-.2h0a.1.1,0,0,0-.1-.1H13c-.1,0-.1,0-.2.1h0l.1.1.1.1h0V37c-.1.1-.2.1-.3.2h0v-.1h0c.1-.1.2-.1.3-.2h0Z"/>
    </g>
    <g class="cls-3">
        <path class="cls-12" d="M11.9,37.7l-.3.3c-.2.1,0,.5.2.3a1,1,0,0,0,.4-.5c.1-.1-.2-.3-.3-.1"/>
    </g>
    <g class="cls-3">
        <path class="cls-13"
              d="M11.9,37.7l-.1-.1c-.1.1-.1.2-.3.3s-.2.2-.2.3,0,.2.1.2.1.1.2.1h.2a1.21,1.21,0,0,0,.5-.5v-.2c0-.1,0-.2-.1-.2s-.1-.1-.2-.1-.2.1-.3.2h.2l.1.1h0a.78.78,0,0,1-.4.4h0a.78.78,0,0,0,.4-.4Z"/>
    </g>
    <g class="cls-3">
        <path class="cls-12" d="M11,39.3c-.1.2-.1.3-.2.5s0,.2.1.2.2,0,.2-.1.1-.3.2-.5,0-.2-.1-.2-.2,0-.2.1"/>
    </g>
    <g class="cls-3">
        <path class="cls-13"
              d="M11,39.3h-.1c-.1.2-.1.3-.2.5v.1c0,.1,0,.1.1.2s.1.1.2.1h.1c.1,0,.1,0,.2-.1s.1-.1.1-.2h0c.1-.2.1-.3.2-.5v-.1c0-.1,0-.1-.1-.2s-.1-.1-.2-.1h-.1c-.1,0-.1,0-.2.1s-.1.1-.1.2h.2c-.1.2-.1.3-.2.5h0c.1-.2.1-.3.2-.5H11Z"/>
    </g>
    <g class="cls-3">
        <path class="cls-12" d="M10.7,41.1a2.77,2.77,0,0,0,.1.9.21.21,0,0,0,.4-.1,2.2,2.2,0,0,1-.1-.8.2.2,0,1,0-.4,0"/>
    </g>
    <g class="cls-3">
        <path class="cls-13"
              d="M10.7,41.1h-.1v.2a1.7,1.7,0,0,0,.1.7c0,.1.1.1.1.2s.1.1.2.1.2,0,.2-.1a.37.37,0,0,0,.1-.3v-.1a4.33,4.33,0,0,0-.1-.5v-.2h0c0-.1,0-.2-.1-.2s-.1-.1-.2-.1-.2,0-.2.1-.1.1-.1.2h.2v.2a1.27,1.27,0,0,0,.1.6h0a1.27,1.27,0,0,1-.1-.6v-.2Z"/>
    </g>
    <g class="cls-3">
        <path class="cls-12" d="M13.5,37.7l-.3.3c-.2.2.1.4.3.3l.3-.3c.1-.2-.2-.4-.3-.3"/>
    </g>
    <g class="cls-3">
        <path class="cls-13"
              d="M13.5,37.7h0a.52.52,0,0,0-.4.2h0c-.1.1-.1.1-.1.2s0,.2.1.2.1.1.2.1.2,0,.2-.1l.3-.3c.1-.1.1-.1.1-.2s0-.2-.1-.2-.1-.1-.2-.1-.2.1-.1.2h0l.1.1h0l-.3.3h0a.52.52,0,0,0,.2-.4Z"/>
    </g>
    <g class="cls-3">
        <path class="cls-12"
              d="M12.4,39.3c0,.2-.1.3-.1.5a.37.37,0,0,0,.1.3.37.37,0,0,0,.3-.1c.1-.2.1-.4.2-.6s0-.2-.1-.2-.3,0-.4.1"/>
    </g>
    <g class="cls-3">
        <path class="cls-13"
              d="M12.4,39.3h-.1c0,.2-.1.3-.1.5h0V40c0,.1.1.2.2.3h.4a.1.1,0,0,0,.1-.1c.1-.2.1-.4.2-.6h0v-.1c0-.1,0-.1-.1-.2s-.1-.1-.2-.1h-.1c-.1,0-.1,0-.2.1s-.1.1-.1.2v-.2h.1a.76.76,0,0,1-.2.5h0a.9.9,0,0,0,.1-.5Z"/>
    </g>
    <g class="cls-3">
        <path class="cls-12" d="M14.4,39c0,.2-.1.3-.1.5s.3.3.4.1.1-.3.1-.5-.3-.4-.4-.1"/>
    </g>
    <g class="cls-3">
        <path class="cls-13"
              d="M14.4,39h-.1c0,.2-.1.3-.1.5h0v.1c0,.1,0,.2.1.2s.1.1.2.1.1,0,.2-.1.1-.1.1-.2.1-.3.1-.5V39c0-.1,0-.2-.1-.2s-.1-.1-.2-.1-.1,0-.2.1-.1.1-.1.2h.2c0,.2-.1.3-.1.5h0c0-.2.1-.3.1-.5Z"/>
    </g>
    <g class="cls-3">
        <path class="cls-12" d="M13.9,40.5v.6c0,.2.4.2.4,0v-.6c.1-.3-.4-.3-.4,0"/>
    </g>
    <g class="cls-3">
        <path class="cls-13"
              d="M13.9,40.5h-.1v.6c0,.1,0,.2.1.2s.1.1.2.1.2,0,.2-.1.1-.1.1-.2v-.6c0-.1,0-.2-.1-.2s-.1-.1-.2-.1-.2,0-.2.1-.1.1-.1.2H14v.6h0v-.6Z"/>
    </g>
    <g class="cls-3">
        <path class="cls-12" d="M15.9,39.6a.73.73,0,0,0-.2.6.21.21,0,0,0,.4-.1.37.37,0,0,1,.1-.3c.1-.1-.1-.3-.3-.2"/>
    </g>
    <g class="cls-3">
        <path class="cls-13"
              d="M15.9,39.6h0a.55.55,0,0,0-.3.5v.2c0,.1.1.1.1.2s.1.1.2.1.2,0,.2-.1.1-.1.1-.2v-.1h0v-.1c.1-.1.1-.1.1-.2s0-.2-.1-.2-.1-.1-.2-.1c-.1-.2-.2-.1-.1,0h0l.1.1h0a.37.37,0,0,0-.1.3v.1h0V40c-.1,0,0-.2,0-.4Z"/>
    </g>
    <g class="cls-3">
        <path class="cls-12"
              d="M18.5,39.4c-.1.1-.2.2-.3.2s-.2.2-.2.3.2.1.3.1.2-.2.3-.2a.37.37,0,0,0,.1-.3c0-.2-.1-.2-.2-.1"/>
    </g>
    <g class="cls-3">
        <path class="cls-13"
              d="M18.5,39.4v-.2c-.1.1-.2.2-.3.2h0c-.2.1-.2.2-.2.3v.2h0c.1.1.2.2.3.2s.1,0,.2-.1.2-.2.3-.2h0a.37.37,0,0,0,.1-.3v-.2h0c-.1-.1-.2-.2-.3-.2s-.1,0-.2.1h0v.2l.1.1h.1v.1h0c-.1.1-.2.2-.3.2h-.1v-.1h0c.1-.1.2-.2.3-.2h0Z"/>
    </g>
    <g class="cls-3">
        <path class="cls-12" d="M17.4,40.3a.62.62,0,0,0-.2.7c0,.2.4.2.4,0a.6.6,0,0,1,.1-.4c.1-.2-.2-.5-.3-.3"/>
    </g>
    <g class="cls-3">
        <path class="cls-13"
              d="M17.4,40.3l-.1-.1a.91.91,0,0,0-.3.7V41a.35.35,0,0,0,.1.2c.1.1.1.1.2.1s.1,0,.2-.1.1-.1.1-.2h0a.37.37,0,0,1,.1-.3h0c.1-.1.1-.1.1-.2s0-.2-.1-.2-.1-.1-.2-.1-.2,0-.2.1h.1l.1.1h0a.9.9,0,0,0-.1.5h0a.76.76,0,0,1,.2-.5Z"/>
    </g>
    <g class="cls-3">
        <path class="cls-12" d="M19,41.4l.3-.6c.1-.2-.2-.4-.3-.2l-.3.6c-.2.2.2.4.3.2"/>
    </g>
    <g class="cls-3">
        <path class="cls-13"
              d="M19,41.4l.1.1.3-.6v-.2c0-.1,0-.2-.1-.2s-.1-.1-.2-.1-.2.1-.3.2h0l-.3.6v.2c0,.1,0,.2.1.2s.1.1.2.1.2-.1.3-.2l-.1-.1-.1-.1h0l.3-.6h0l-.3.6Z"/>
    </g>
    <g class="cls-3">
        <path class="cls-12" d="M20.1,40c.1-.1.3-.2.4-.3a.21.21,0,1,0-.3-.3c-.1.1-.3.2-.4.3a.19.19,0,0,0,0,.3h.3"/>
    </g>
    <g class="cls-3">
        <path class="cls-13"
              d="M20.1,40l.1.1c.1-.1.3-.2.4-.3h0a.31.31,0,0,0,.1-.2c0-.1,0-.2-.1-.2h0c-.1-.1-.1-.1-.2-.1s-.2,0-.2.1-.3.2-.4.3a.31.31,0,0,0-.1.2c0,.1,0,.2.1.2s.1.1.2.1.2,0,.2-.1l-.1-.1-.1-.1h-.1c.1-.1.3-.2.4-.3h.1c-.1.1-.3.2-.4.3Z"/>
    </g>
    <g class="cls-3">
        <path class="cls-12" d="M21.3,39.2c.2-.1.4-.1.6-.2a.21.21,0,0,0-.1-.4c-.2.1-.4.1-.6.2s-.1.4.1.4"/>
    </g>
    <g class="cls-3">
        <path class="cls-13"
              d="M21.3,39.2v.1c.2-.1.4-.1.6-.2h0c.1,0,.1-.1.2-.1s.1-.1.1-.2,0-.2-.1-.2-.1-.1-.2-.1h-.1c-.2.1-.4.1-.6.2s-.1.1-.2.1-.1.1-.1.2,0,.2.1.2.1.1.2.1h.1v-.2h0c.2-.1.4-.1.6-.2h0c-.2,0-.4.1-.6.1Z"/>
    </g>
    <g class="cls-3">
        <path class="cls-12"
              d="M23.4,38.7a.45.45,0,0,1,.5,0c.1,0,.2,0,.2-.1s0-.2-.1-.2a1.1,1.1,0,0,0-.8,0c-.1,0-.1.2-.1.3h.3"/>
    </g>
    <g class="cls-3">
        <path class="cls-13"
              d="M23.4,38.7l.1.1H24c.1,0,.1,0,.2-.1s.1-.1.1-.2h0v-.1c0-.1,0-.1-.1-.2s-.1-.1-.2-.1a.6.6,0,0,0-.4-.1.9.9,0,0,0-.5.1.1.1,0,0,0-.1.1v.4c.1.1.2.2.3.2h.2l-.1-.1-.1-.1h0a.6.6,0,0,1,.4-.1.37.37,0,0,1,.3.1h0c-.1,0-.2-.1-.3-.1a.37.37,0,0,0-.3.1Z"/>
    </g>
    <g class="cls-3">
        <path class="cls-12" d="M25.1,38.8a1.85,1.85,0,0,1,.7.2c.2.1.4-.2.2-.3a1.61,1.61,0,0,0-.9-.3c-.2,0-.2.4,0,.4"/>
    </g>
    <g class="cls-3">
        <path class="cls-13"
              d="M25.1,38.8V39a1.42,1.42,0,0,1,.6.2c.1,0,.1.1.2.1s.2,0,.2-.1.1-.1.1-.2a.37.37,0,0,0-.1-.3,1.61,1.61,0,0,0-.9-.3h0c-.1,0-.2,0-.2.1s-.1.1-.1.2,0,.2.1.2.1.1.2.1l-.1-.2v-.1h0a1.14,1.14,0,0,1,.8.3h0v.1h0c-.2-.1-.5-.2-.7-.3Z"/>
    </g>
    <g class="cls-3">
        <path class="cls-12" d="M27,39.5l.6.3a.22.22,0,1,0,.2-.4l-.6-.3a.37.37,0,0,0-.3.1c-.1.2,0,.3.1.3"/>
    </g>
    <g class="cls-3">
        <path class="cls-13"
              d="M27,39.5l-.1.1.6.3h.2c.1,0,.2-.1.3-.2h0v-.4a.1.1,0,0,0-.1-.1h0l-.6-.3h-.2c-.1,0-.2.1-.3.2v.4a.1.1,0,0,0,.1.1l.1-.1.1-.1h0l.6.3h0l-.6-.3h0Z"/>
    </g>
    <g class="cls-3">
        <path class="cls-12" d="M28.2,40.3c.1.2.3.4.4.6s.5,0,.3-.2-.3-.4-.4-.6-.4,0-.3.2"/>
    </g>
    <g class="cls-3">
        <path class="cls-13"
              d="M28.2,40.3l-.1.1c.1.2.3.4.4.6h0c.1.1.2.2.3.2s.2,0,.2-.1.1-.1.1-.2,0-.1-.1-.2-.3-.4-.4-.6-.2-.2-.3-.2-.2,0-.2.1-.1.1-.1.2,0,.1.1.2l.1-.1.1-.1h0c.1.2.3.4.4.6h0c-.1-.2-.3-.4-.4-.6Z"/>
    </g>
    <g class="cls-3">
        <path class="cls-12" d="M23.4,37.7c.1-.1.3-.1.4-.2a.2.2,0,0,0,0-.4,1.42,1.42,0,0,0-.6.2c-.2.2,0,.5.2.4"/>
    </g>
    <g class="cls-3">
        <path class="cls-13"
              d="M23.4,37.7l.1.1c.1-.1.2-.1.4-.1s.1,0,.2-.1.1-.1.1-.2,0-.2-.1-.2-.1-.1-.2-.1h0a1.85,1.85,0,0,0-.7.2.37.37,0,0,0-.1.3c0,.1,0,.2.1.2s.1.1.2.1.1,0,.2-.1l-.2-.1-.1-.1h0v-.1h0a1.07,1.07,0,0,1,.6-.2h-.1c-.2,0-.3.1-.5.2Z"/>
    </g>
    <g class="cls-3">
        <path class="cls-12" d="M25.2,37.5c.2,0,.2-.4,0-.4s-.2.4,0,.4"/>
    </g>
    <g class="cls-3">
        <path class="cls-13"
              d="M25.2,37.5v.1c.1,0,.2,0,.2-.1s.1-.1.1-.2,0-.2-.1-.2-.1-.1-.2-.1-.2,0-.2.1-.1.1-.1.2,0,.2.1.2.1.1.2.1v-.2h0Z"/>
    </g>
    <g class="cls-3">
        <path class="cls-12"
              d="M26,37.7c.2.1.3.1.5.2a.22.22,0,1,0,.2-.4c-.2-.1-.3-.1-.5-.2a.37.37,0,0,0-.3.1c0,.1,0,.3.1.3"/>
    </g>
    <g class="cls-3">
        <path class="cls-13"
              d="M26,37.7l-.1.1c.2.1.3.1.5.2h.2c.1,0,.2-.1.3-.2v-.4a.1.1,0,0,0-.1-.1c-.2-.1-.3-.1-.5-.2h-.2c-.1,0-.2.1-.3.2h0v.4a.1.1,0,0,0,.1.1h0l.1-.1.1-.1h0c.1.1.3.1.5.2h0c-.2-.1-.3-.1-.5-.2h0Z"/>
    </g>
    <g class="cls-3">
        <path class="cls-12" d="M27.6,38.3c.2,0,.4.1.6.1a.21.21,0,0,0,.1-.4c-.2,0-.4-.1-.6-.1s-.4.4-.1.4"/>
    </g>
    <g class="cls-3">
        <path class="cls-13"
              d="M27.6,38.3v.1c.2,0,.4.1.6.1h.1c.1,0,.2,0,.2-.1s.1-.1.1-.2,0-.1-.1-.2-.1-.1-.2-.1-.4-.1-.6-.1h-.1c-.1,0-.2,0-.2.1s-.1.1-.1.2,0,.1.1.2.1.1.2.1v-.2h0v-.1h0c.2,0,.4.1.6.1h0v.1h0c-.2,0-.4-.1-.6-.1Z"/>
    </g>
    <g class="cls-3">
        <path class="cls-12" d="M29,39.1c.2.1.3.3.5.4a.21.21,0,0,0,.3-.3c-.2-.1-.3-.3-.5-.4a.19.19,0,0,0-.3,0v.3"/>
    </g>
    <g class="cls-3">
        <path class="cls-13"
              d="M29,39.1l-.1.1c.2.1.3.3.5.4s.1.1.2.1.2,0,.2-.1h0c.1-.1.1-.1.1-.2s0-.2-.1-.2-.3-.3-.5-.4-.1-.1-.2-.1-.2,0-.2.1h0c-.1.1-.1.1-.1.2s0,.2.1.2h0l.1-.1.1-.1h.1c.2.1.3.3.5.4h-.1c-.2-.1-.3-.3-.5-.4h0Z"/>
    </g>
    <g class="cls-3">
        <path class="cls-12" d="M30.4,40.2c.1.2.2.3.2.5s.4,0,.3-.2-.2-.3-.2-.5-.4,0-.3.2"/>
    </g>
    <g class="cls-3">
        <path class="cls-13"
              d="M30.4,40.2l-.1.1c.1.2.2.3.2.5s.2.2.3.2.2,0,.2-.1.1-.1.1-.2v-.2c0-.2-.1-.3-.1-.5s-.2-.2-.3-.2-.2,0-.2.1-.1.1-.1.2v.1l.1-.1h0c.1.2.2.3.2.5h0c-.1-.2-.2-.3-.2-.5Z"/>
    </g>
    <g class="cls-3">
        <path class="cls-12"
              d="M26.5,36.8a.9.9,0,0,1,.5.1c.1,0,.2,0,.2-.1s0-.2-.1-.2a.9.9,0,0,1-.5-.1c-.1,0-.2,0-.2.1s0,.2.1.2"/>
    </g>
    <g class="cls-3">
        <path class="cls-13"
              d="M26.5,36.8v.1a.9.9,0,0,1,.5.1h.1c.1,0,.1,0,.2-.1s.1-.1.1-.2h0v-.1c0-.1,0-.1-.1-.2s-.1-.1-.2-.1h0a.9.9,0,0,1-.5-.1h-.1c-.1,0-.1,0-.2.1s-.1.1-.1.2h0v.1c0,.1,0,.1.1.2s.1.1.2.1h0v-.2h0v-.1h0a.9.9,0,0,1,.5.1h0v.1h0a.9.9,0,0,1-.5-.1h0Z"/>
    </g>
    <g class="cls-3">
        <path class="cls-12" d="M28.4,37.3c.1.1.3.2.4.3s.4-.2.2-.3-.3-.2-.4-.3-.4.1-.2.3"/>
    </g>
    <g class="cls-3">
        <path class="cls-13"
              d="M28.4,37.3l-.1.1c.1.1.3.2.4.3h.2c.1,0,.2,0,.2-.1s.1-.1.1-.2-.1-.2-.2-.3-.3-.2-.4-.3h-.2c-.1,0-.2,0-.2.1s-.1.1-.1.2.1.2.2.3l.1-.1.1-.1h0c.1.1.3.2.4.3h0c-.1-.1-.3-.2-.4-.3Z"/>
    </g>
    <g class="cls-3">
        <path class="cls-12" d="M30.3,38.1c.2.2.3.4.6.5s.4-.2.2-.3-.3-.3-.5-.4a.19.19,0,0,0-.3,0c-.1,0-.1.2,0,.2"/>
    </g>
    <g class="cls-3">
        <path class="cls-13"
              d="M30.3,38.1l-.1.1a2.65,2.65,0,0,0,.6.5H31c.1,0,.2,0,.2-.1s.1-.1.1-.2-.1-.2-.2-.3a.78.78,0,0,1-.4-.4.31.31,0,0,0-.2-.1c-.1,0-.2,0-.2.1s-.1.1-.1.2,0,.2.1.2h0l.1-.1v-.1h0c.1.2.3.3.5.5h0a2.18,2.18,0,0,1-.5-.4Z"/>
    </g>
    <g class="cls-3">
        <path class="cls-12" d="M31.8,39.6a2.65,2.65,0,0,0,.5.6c.2.2.4-.1.3-.3a1.76,1.76,0,0,1-.4-.5c-.2-.2-.5,0-.4.2"/>
    </g>
    <g class="cls-3">
        <path class="cls-13"
              d="M31.8,39.6l-.1.1a1.79,1.79,0,0,0,.5.7c.1.1.1.1.2.1s.2,0,.2-.1.1-.1.1-.2,0-.2-.1-.2a1,1,0,0,1-.4-.5.1.1,0,0,0-.1-.1h-.2c-.1,0-.2,0-.2.1s-.1.1-.1.2v.1l.2-.2.1-.1h0a2.65,2.65,0,0,0,.5.6h0a2.09,2.09,0,0,1-.4-.6Z"/>
    </g>
    <g class="cls-3">
        <path class="cls-12" d="M28.8,36.3h.3a.22.22,0,1,0,.2-.4,1.27,1.27,0,0,0-.6.1c-.1,0-.2.1-.1.2s.1.1.2.1"/>
    </g>
    <g class="cls-3">
        <path class="cls-13"
              d="M28.8,36.3v.1h.5c.1,0,.2-.1.3-.2v-.4a.1.1,0,0,0-.1-.1.75.75,0,0,0-.5-.1h-.2c-.1,0-.1.1-.2.1s-.1.1-.1.2V36c0,.1.1.1.1.2s.1.1.2.1h0v-.1H29a.37.37,0,0,1,.3.1h0c-.1,0-.2-.1-.3-.1h-.1Z"/>
    </g>
    <g class="cls-3">
        <path class="cls-12" d="M30.2,36.7c.1,0,.1,0,.2.1s.4-.1.3-.3a.76.76,0,0,0-.5-.2.2.2,0,1,0,0,.4"/>
    </g>
    <g class="cls-3">
        <path class="cls-13"
              d="M30.2,36.7v.1h0c.1.1.1.1.2.1s.2,0,.2-.1.1-.1.1-.2,0-.2-.1-.2a.76.76,0,0,0-.5-.2H30c-.1,0-.1,0-.2.1s-.1.1-.1.2,0,.2.1.2.1.1.2.1h0l.2-.1v-.1h.1c.1,0,.2.1.3.1h0l-.1-.1h-.2Z"/>
    </g>
    <g class="cls-3">
        <path class="cls-12" d="M31.6,37.3a.86.86,0,0,0,.6.3.2.2,0,1,0,0-.4.6.6,0,0,1-.4-.1c-.1-.3-.4,0-.2.2"/>
    </g>
    <g class="cls-3">
        <path class="cls-13"
              d="M31.6,37.3l-.1.1a.91.91,0,0,0,.7.3h.1c.1,0,.2,0,.2-.1s.1-.1.1-.2,0-.2-.1-.2-.1-.1-.2-.1h0c-.1,0-.2,0-.2-.1s-.1-.1-.2-.1-.2,0-.2.1-.1.1-.1.2,0,.2.1.2l-.1-.1.1-.1h0a.76.76,0,0,0,.4.2H32a.76.76,0,0,1-.5-.2Z"/>
    </g>
    <g class="cls-3">
        <path class="cls-12" d="M33.2,38.3l.3.3c.2.2.4-.1.3-.3l-.3-.3c-.2-.1-.4.2-.3.3"/>
    </g>
    <g class="cls-3">
        <path class="cls-13"
              d="M33.2,38.3h0c0,.2.1.3.2.3s.1.1.2.1.2,0,.2-.1.1-.1.1-.2,0-.2-.1-.2l-.3-.3h-.1c-.1,0-.2,0-.2.1s-.1.1-.1.2,0,.2.1.1h0l.1-.1h0l.3.3h0a.52.52,0,0,0-.4-.2Z"/>
    </g>
    <g class="cls-3">
        <path class="cls-12" d="M34.1,39.8c.1.2.1.4.2.6a.21.21,0,0,0,.4-.1c-.1-.2-.1-.4-.2-.6s-.5-.2-.4.1"/>
    </g>
    <g class="cls-3">
        <path class="cls-13"
              d="M34.1,39.8H34c.1.2.1.4.2.6s.1.1.1.2.1.1.2.1.2,0,.2-.1.1-.1.1-.2v-.1c-.1-.2-.1-.4-.2-.6s-.1-.1-.1-.2-.1-.1-.2-.1-.2,0-.2.1-.1.1-.1.2v.1h.2c.1.2.1.4.2.6h0c-.1-.2-.1-.4-.2-.6Z"/>
    </g>
    <g class="cls-3">
        <path class="cls-12" d="M29.2,34.7c.1,0,.3.1.4.1s.2,0,.2-.1,0-.2-.1-.2-.3-.1-.4-.1-.2,0-.2.1,0,.2.1.2"/>
    </g>
    <g class="cls-3">
        <path class="cls-13"
              d="M29.2,34.7v.1c.1,0,.3.1.4.1h.1c.1,0,.1,0,.2-.1s.1-.1.1-.2h0v-.1c0-.1-.1-.3-.2-.3h0c-.1,0-.3-.1-.4-.1h-.1c-.1,0-.1,0-.2.1s-.1.1-.1.2v.1c0,.1.1.3.2.3v-.3h0c.1,0,.3.1.4.1h0v.1h0c-.1,0-.3-.1-.4-.1Z"/>
    </g>
    <g class="cls-3">
        <path class="cls-12" d="M30.6,35.3c.2.1.3.1.5.2s.2,0,.2-.1,0-.2-.1-.2-.3-.1-.5-.2-.2,0-.2.1,0,.2.1.2"/>
    </g>
    <g class="cls-3">
        <path class="cls-13"
              d="M30.6,35.3v.1c.2.1.3.1.5.2h.1c.1,0,.1,0,.2-.1s.1-.1.1-.2v-.1c0-.1,0-.1-.1-.2s-.1-.1-.2-.1h0c-.1.1-.3,0-.5,0h-.1c-.1,0-.1,0-.2.1s-.1.1-.1.2v.1c0,.1,0,.1.1.2s.1.1.2.1v-.4h0c.2.1.3.1.5.2h0c-.2-.1-.3-.1-.5-.2Z"/>
    </g>
    <g class="cls-3">
        <path class="cls-12" d="M32.3,36.2c.2.1.3.2.5.3s.4-.2.2-.3-.3-.2-.5-.3-.4.2-.2.3"/>
    </g>
    <g class="cls-3">
        <path class="cls-13"
              d="M32.3,36.2l-.1.1c.2.1.3.2.5.3h.1c.1,0,.2,0,.2-.1s.1-.1.1-.2v-.2L33,36c-.2-.1-.3-.2-.5-.3h-.1c-.1,0-.2,0-.2.1s-.1.1-.1.2v.2l.1.1.1-.1.1-.1h0c.2.1.3.2.5.3h0c-.2-.1-.3-.2-.5-.3Z"/>
    </g>
    <g class="cls-3">
        <path class="cls-12" d="M33.8,37.3l.5.5c.2.2.4-.1.3-.3l-.5-.5a.21.21,0,1,0-.3.3"/>
    </g>
    <g class="cls-3">
        <path class="cls-13"
              d="M33.8,37.3h0a1.27,1.27,0,0,0,.4.6c.1.1.1.1.2.1s.2,0,.2-.1.1-.1.1-.2,0-.2-.1-.2l-.5-.5c-.1-.1-.1-.1-.2-.1s-.2,0-.2.1-.1.1-.1.2,0,.1.2.1h0l.1-.1h0l.5.5h0c-.2-.2-.4-.4-.6-.4Z"/>
    </g>
    <g class="cls-3">
        <path class="cls-12" d="M35.2,38.8c.1.3.2.5.3.8s.4,0,.3-.2-.2-.5-.3-.8-.4,0-.3.2"/>
    </g>
    <g class="cls-3">
        <path class="cls-13"
              d="M35.2,38.8l-.1.2c.1.3.2.5.3.8a.1.1,0,0,0,.1.1h.2c.1,0,.2,0,.2-.1s.1-.1.1-.2v-.1c-.1-.3-.2-.5-.3-.8h0a.1.1,0,0,0-.1-.1h-.2c-.1,0-.2,0-.2.1s-.1.1-.1.2V39h0l.1-.2.1-.1h0v-.1h0c.1.3.2.5.3.8h0v.1h0c-.1-.3-.2-.5-.3-.8h0Z"/>
    </g>
    <g class="cls-3">
        <path class="cls-13"
              d="M36.1,41.2l-.1.1a1.85,1.85,0,0,1,.2.7c0,.1,0,.2.1.2s.1.1.2.1.2,0,.2-.1.1-.1.1-.2h0a2.28,2.28,0,0,0-.3-1.1c-.1-.1-.2-.2-.3-.2s-.2,0-.2.1-.1.1-.1.2v.2h.2l.1-.1h0a1.61,1.61,0,0,1,.3.9h0a1.61,1.61,0,0,0-.3-.9Z"/>
    </g>
    <g class="cls-3">
        <path class="cls-13" d="M13.4,5.5l.1.1c.1.1.2,0,.2-.1s0-.2-.1-.2l-.1-.1c-.1-.1-.2,0-.2.1s0,.1.1.2"/>
    </g>
    <g class="cls-3">
        <path class="cls-13" d="M12.8,4.5c.1,0,.1.1.2.1s.4-.2.2-.3-.1-.1-.2-.1-.3.2-.2.3"/>
    </g>
    <g class="cls-3">
        <path class="cls-13" d="M13.4,4.8c.1.1.2.1.3.2s.3-.2.2-.3-.2-.1-.3-.2-.4.2-.2.3"/>
    </g>
    <g class="cls-3">
        <path class="cls-13" d="M13.5,4.4l.1.1c.2.1.3-.2.2-.3l-.1-.1c-.2-.2-.4.1-.2.3"/>
    </g>
    <g class="cls-3">
        <path class="cls-13" d="M13.1,3.1c.1.1.1.2.2.3s.4,0,.3-.2l-.3-.3c-.1-.1-.4,0-.2.2"/>
    </g>
    <g class="cls-3">
        <path class="cls-13" d="M13.6,2.8c0,.1.1.1.1.2s.4,0,.3-.2-.1-.1-.1-.2-.4.1-.3.2"/>
    </g>
    <g class="cls-3">
        <path class="cls-13" d="M13.7,3.7c.1.1.1.2.2.3s.4-.2.2-.3l-.2-.2c0-.2-.3,0-.2.2"/>
    </g>
    <g class="cls-3">
        <path class="cls-13" d="M14.5,3.7c0,.1.1.1,0,0,.3.3.5,0,.3-.1l-.1-.1c-.1-.2-.3.1-.2.2"/>
    </g>
    <g class="cls-3">
        <path class="cls-13" d="M12.9,3.9c.1.1.2.1.2.2.2.1.4-.2.2-.3s-.2-.1-.2-.2c-.2-.1-.4.2-.2.3"/>
    </g>
    <g class="cls-3">
        <path class="cls-13" d="M14.2,4.6h0c.2.2.5.1.3-.1s-.2-.2-.3-.2-.2.3,0,.3"/>
    </g>
    <g class="cls-3">
        <path class="cls-13" d="M14,5.2h0c.2.3.5.1.4-.1h-.2c-.1-.2-.4,0-.2.1"/>
    </g>
    <g class="cls-3">
        <path class="cls-13" d="M15,4.1l.1.1c.1.2.4-.1.2-.2l-.1-.1c-.1-.2-.3.1-.2.2"/>
    </g>
    <g class="cls-3">
        <path class="cls-13" d="M14.9,3.3c0,.1.1.1.1.2s.4-.1.2-.2c0-.1-.1-.1-.1-.2s-.4,0-.2.2"/>
    </g>
    <g class="cls-3">
        <path class="cls-13" d="M14.2,2.9l.2.1c.2.2.4-.1.2-.2l-.1-.1c-.1-.1-.5.1-.3.2"/>
    </g>
    <g class="cls-3">
        <path class="cls-13" d="M14.2,2l.1.1c.1.2.4,0,.3-.2l-.1-.1c-.1-.1-.5,0-.3.2"/>
    </g>
    <g class="cls-3">
        <path class="cls-13" d="M14.7,2.4c0,.1.1.1.1.2s.4,0,.3-.2-.1-.1-.1-.2c-.2-.3-.4,0-.3.2"/>
    </g>
    <g class="cls-3">
        <path class="cls-13" d="M16.4,1.6c0,.1,0,.1.1.2s.4.1.3-.1,0-.1-.1-.2-.3-.1-.3.1"/>
    </g>
    <g class="cls-3">
        <path class="cls-13" d="M16.6,2.3a.37.37,0,0,0,.1.3c.1.2.4,0,.3-.2V2.3c-.1-.3-.4-.3-.4,0"/>
    </g>
    <g class="cls-3">
        <path class="cls-13" d="M16.8,3.2v.2c0,.2.4.1.3-.1V3.1c0-.2-.4-.1-.3.1"/>
    </g>
    <g class="cls-3">
        <path class="cls-13" d="M17.4,3.3v.2c0,.2.3.3.3.1V3.4c0-.3-.3-.3-.3-.1"/>
    </g>
    <g class="cls-3">
        <path class="cls-13" d="M17.5,2.4c0,.1-.1.2-.1.3s.2.4.3.2.1-.2.1-.3-.2-.4-.3-.2"/>
    </g>
    <g class="cls-3">
        <path class="cls-13" d="M17.2,1.5a.6.6,0,0,0-.1.4c.1.2.4.1.3-.1V1.7c.2-.2-.1-.4-.2-.2"/>
    </g>
    <g class="cls-3">
        <path class="cls-13" d="M18,1.5a.37.37,0,0,1-.1.3c-.1.2.3.3.3.1a.37.37,0,0,1,.1-.3c.2-.2-.3-.3-.3-.1"/>
    </g>
    <g class="cls-3">
        <path class="cls-13" d="M18.3,2.2a.37.37,0,0,0-.1.3.2.2,0,0,0,.4,0h0c.2-.2,0-.6-.3-.3"/>
    </g>
    <g class="cls-3">
        <path class="cls-13" d="M18.1,2.9a.37.37,0,0,1-.1.3c0,.2.3.3.3.1a.37.37,0,0,0,.1-.3c.2-.2-.3-.3-.3-.1"/>
    </g>
    <g class="cls-3">
        <path class="cls-13" d="M19,2.5a.35.35,0,0,1-.1.2c-.1.2.2.3.3.1a.35.35,0,0,1,.1-.2c.1-.2-.2-.3-.3-.1"/>
    </g>
    <g class="cls-3">
        <path class="cls-13" d="M18.7,3.4c0,.1-.1.1-.1.2s.2.4.3.2.1-.1.1-.2-.2-.4-.3-.2"/>
    </g>
    <g class="cls-3">
        <path class="cls-13" d="M19.2,3.6h0c-.2.2,0,.5.2.3.1,0,.1-.1.2-.2a.21.21,0,0,0-.4-.1"/>
    </g>
    <g class="cls-3">
        <path class="cls-13" d="M19.5,3.9h0c-.2.2,0,.5.2.3h0c.2-.2-.1-.4-.2-.3"/>
    </g>
    <g class="cls-3">
        <path class="cls-13" d="M14.7,9.9v.2a.15.15,0,0,0,.3,0V9.9c.1-.2-.3-.2-.3,0"/>
    </g>
    <g class="cls-3">
        <path class="cls-13" d="M15.3,10.6v.2a.15.15,0,0,0,.3,0v-.2a.15.15,0,1,0-.3,0"/>
    </g>
    <g class="cls-3">
        <path class="cls-13" d="M15.8,10.8v.3c0,.2.4.1.3-.1v-.3c0-.2-.4-.1-.3.1"/>
    </g>
    <g class="cls-3">
        <path class="cls-13" d="M16.6,11.4v.4c.1.2.4,0,.3-.2v-.1c.1-.3-.3-.4-.3-.1"/>
    </g>
    <g class="cls-3">
        <path class="cls-13" d="M17.1,11.7a.6.6,0,0,0,.1.4c.1.2.4-.1.2-.2v-.1c0-.3-.3-.3-.3-.1"/>
    </g>
    <g class="cls-3">
        <path class="cls-13" d="M17.9,11.9c0,.1.1.2.1.3s.4.1.3-.1-.1-.2-.1-.3-.4-.1-.3.1"/>
    </g>
    <g class="cls-3">
        <path class="cls-13" d="M18.8,11.8c.1.1.1.2.2.2s.3-.2.2-.3l-.1-.1c-.2-.1-.5,0-.3.2"/>
    </g>
    <g class="cls-3">
        <path class="cls-13" d="M19.5,11.4l.1.1c.1.2.4,0,.3-.2l-.1-.1c-.1-.2-.4,0-.3.2"/>
    </g>
    <g class="cls-3">
        <path class="cls-13" d="M19.9,11.1c.1,0,.1.1,0,0,.3.3.5,0,.3-.1l-.1-.1c-.1-.2-.3,0-.2.2"/>
    </g>
    <g class="cls-3">
        <path class="cls-13" d="M20.4,9.9c0,.1.1.2.1.3s.4,0,.3-.2-.1-.2-.2-.3-.4,0-.2.2"/>
    </g>
    <g class="cls-3">
        <path class="cls-13" d="M20.6,9.4l.1.1c.2.2.4-.1.2-.2l-.1-.1c-.1-.2-.3,0-.2.2"/>
    </g>
    <g class="cls-3">
        <path class="cls-13" d="M20.6,8.6l.1.1c.2.2.4-.1.2-.2l-.1-.1c-.1-.2-.3.1-.2.2"/>
    </g>
    <g class="cls-3">
        <path class="cls-13" d="M20.1,8.9h0c-.1.3.2.4.3.2V9c.1-.2-.2-.3-.3-.1"/>
    </g>
    <g class="cls-3">
        <path class="cls-13" d="M19.4,9.2v.1c.1.2.4.1.3-.1V9.1c-.1-.2-.4-.1-.3.1"/>
    </g>
    <g class="cls-3">
        <path class="cls-13" d="M18.8,9.3v.1c.1.2.4.1.3-.1V9.2c0-.2-.3-.1-.3.1"/>
    </g>
    <g class="cls-3">
        <path class="cls-13" d="M18.2,9.5v.2c0,.2.4.1.3-.1V9.4c.1-.2-.3-.1-.3.1"/>
    </g>
    <g class="cls-3">
        <path class="cls-13" d="M17.8,9.6h0c0,.3.3.4.3.2V9.5c-.1-.2-.4-.1-.3.1"/>
    </g>
    <g class="cls-3">
        <path class="cls-13" d="M14.9,11a.6.6,0,0,0,.1.4c.1.2.4,0,.3-.2s-.1-.1-.1-.2a.15.15,0,0,0-.3,0"/>
    </g>
    <g class="cls-3">
        <path class="cls-13" d="M15.6,11.6a.1.1,0,0,0,.1.1c.1.2.4,0,.3-.2a.1.1,0,0,0-.1-.1c-.1-.1-.4.1-.3.2"/>
    </g>
    <g class="cls-3">
        <path class="cls-13" d="M16.2,11.9c.1.1.1.2.2.3s.4,0,.3-.2-.1-.2-.2-.3-.4,0-.3.2"/>
    </g>
    <g class="cls-3">
        <path class="cls-13"
              d="M17.6,12.6a.35.35,0,0,0,.1.2c0,.1.1.1.2.1s.2-.1.1-.2a.35.35,0,0,0-.1-.2c0-.1-.1-.1-.2-.1s-.2.1-.1.2"/>
    </g>
    <g class="cls-3">
        <path class="cls-13" d="M18.8,12.7l.1.1c.2.2.4-.1.2-.2l-.1-.1c-.2-.2-.4,0-.2.2"/>
    </g>
    <g class="cls-3">
        <path class="cls-13" d="M19.6,12.2h0c.2.2.5,0,.3-.2l-.1-.1c-.1-.1-.4.2-.2.3"/>
    </g>
    <g class="cls-3">
        <path class="cls-13" d="M20.4,11.3h0c.2.2.5,0,.3-.2l-.1-.1c-.1-.1-.3.2-.2.3"/>
    </g>
    <g class="cls-3">
        <path class="cls-13" d="M20,10.2c.1.1.1.2.2.3s.4,0,.3-.2-.1-.2-.2-.3-.4,0-.3.2"/>
    </g>
    <g class="cls-3">
        <path class="cls-13" d="M21,9.9h0c.1.3.4.2.4,0V9.8a.21.21,0,0,0-.4.1"/>
    </g>
</svg>
