<?xml version="1.0" encoding="UTF-8"?>
<svg width="50px" height="50px" viewBox="0 0 50 50" version="1.1" xmlns="http://www.w3.org/2000/svg"
>
    <title>3442CAFA-A189-457D-B372-51CBB6DE5D3C</title>
    <g id="Page-1" stroke="none" stroke-width="1" fill="none" fill-rule="evenodd">
        <g id="[NEW-OSN]---Souscription-Internet-Fibre-&amp;-ADSL-changement-d'offre-7"
           transform="translate(-590, -550)" fill-rule="nonzero">
            <g id="Group-17" transform="translate(550, 440)">
                <g id="Group-24" transform="translate(40, 100)">
                    <g id="21_Icone_IbouAssistance" transform="translate(0, 10)">
                        <path d="M18,44.0005215 C17.9156929,43.9965518 17.8316026,44.0152736 17.7518797,44.0557629 C17.5075188,44.4479769 17.2105263,46.1549367 17,47.6409308 C17.2330827,47.7679861 17.4661654,47.883993 17.7030075,48 C17.7140954,46.7432467 17.7781277,45.4887078 17.8947368,44.2435837 C17.9027731,44.1432197 17.9415303,44.0537259 18,44.0005215 L18,44.0005215 Z"
                              id="Path" fill="#FFFFFF"></path>
                        <path d="M31.2814519,19.907061 C31.342525,19.976848 31.3788445,20.0647205 31.3848047,20.1571157 C31.4438634,20.6474189 31.5078437,21.1377221 31.5669025,21.6280254 C31.5964319,21.8388558 31.3749616,21.9957528 31.1879422,22.0055589 C31.0875379,22.0060726 30.9913749,21.9652685 30.9221778,21.8927891 C30.8540866,21.8207241 30.8139608,21.7268704 30.8089819,21.6280254 C30.7499231,21.1377221 30.6859428,20.6474189 30.626884,20.1571157 C30.5973547,19.9462853 30.818825,19.7893882 31.0058444,19.7795822 C31.0351938,19.7749895 31.065083,19.7749895 31.0944325,19.7795822 C30.0412181,19.2353456 27.9003384,19 25.5379883,19 C24.1719251,19.0027624 22.8068877,19.0747666 21.4481698,19.2157334 C18.2737619,19.5491396 16.8563519,20.0982793 16.6742541,20.3875582 C16.3275543,21.1887238 16.1003967,22.036119 16,22.9028138 C17.7800152,22.5853885 19.6058727,22.6270701 21.3694248,23.0253896 C22.0273602,23.1941106 22.6608504,23.446223 23.2543833,23.7755536 C23.3528145,23.829487 23.4561673,23.9226446 23.5644417,23.991287 L23.662873,23.991287 C24.5373143,24.0525879 25.4035268,23.7888113 26.0941249,23.2509291 C27.1822873,22.6446056 28.3971275,22.2988152 29.6425715,22.2409044 C30.4269809,22.1748148 31.2155906,22.1748148 32,22.2409044 C31.8179022,21.4368071 31.6456475,20.6915462 31.5078437,20.059055 C31.4391191,19.9990774 31.3630507,19.9480069 31.2814519,19.907061 L31.2814519,19.907061 Z M19.8388188,22.0447832 C19.7305325,22.2204524 19.5019701,22.2790043 19.3220548,22.177165 L19.2433098,22.1379408 L19.2088588,22.1379408 L19.1744079,22.1379408 L19.1104276,22.1379408 C19.0166973,22.1082492 18.9214043,22.0836973 18.8249769,22.0643953 L18.7708397,22.0643953 L18.7708397,22.0643953 L18.633036,22.0643953 C18.539591,22.0594934 18.4459519,22.0594934 18.3525069,22.0643953 L18.2983697,22.0643953 L18.2491541,22.0643953 L18.1162719,22.0889104 C18.0259266,22.1107928 17.9371425,22.1386382 17.8505075,22.172262 L17.8160566,22.172262 L17.7816057,22.172262 L17.6438019,22.2458075 C17.5646267,22.2907573 17.4889501,22.3415647 17.41741,22.3978015 C17.2363897,22.5028949 17.0042203,22.44398 16.8957244,22.2654196 C16.796552,22.0831241 16.856927,21.8554222 17.0335281,21.7456982 C17.8119099,21.1786259 18.8458634,21.1007062 19.7010151,21.5446738 C19.8707192,21.650152 19.9306838,21.8677721 19.8388188,22.0447832 L19.8388188,22.0447832 Z M29.7410028,21.4809344 C29.7138258,21.5829121 29.6455661,21.6691736 29.5523758,21.7193068 C29.4591856,21.7694401 29.3493454,21.7789905 29.2488465,21.7456982 C29.1506075,21.7019018 29.0484434,21.6674281 28.9437096,21.6427345 L28.7862196,21.6133163 L28.6877884,21.6133163 C28.5862111,21.6059328 28.4842288,21.6059328 28.3826515,21.6133163 L28.2694556,21.6133163 L28.1464165,21.6378315 C28.0411751,21.6581036 27.93755,21.6859607 27.836358,21.721183 L27.757613,21.7506012 C27.72051,21.770094 27.6843762,21.7913654 27.6493387,21.8143406 C27.5535686,21.865076 27.461475,21.9224178 27.3737312,21.9859468 L27.3737312,21.9859468 C27.3534215,21.9996228 27.3351895,22.0161349 27.319594,22.0349771 L27.2014765,22.1428438 C27.1303866,22.2138035 27.0338852,22.2536798 26.9332513,22.2536798 C26.8326174,22.2536798 26.736116,22.2138035 26.6650261,22.1428438 C26.5193544,21.9942562 26.5193544,21.7570009 26.6650261,21.6084133 C27.4064436,20.8727881 28.5111196,20.6369631 29.4900031,21.0053403 C29.6866409,21.0729272 29.7965796,21.2812391 29.7410028,21.4809344 L29.7410028,21.4809344 Z"
                              id="Shape" fill="#FFFFFF"></path>
                        <path d="M18.0299401,44 C18.2133101,44.0827776 18.3163366,44.2553609 18.2874251,44.4313222 C18.098736,45.596822 18.002706,46.771977 18,47.9486521 L18.2035928,48 C18.4011976,46.8344031 18.6886228,45.4634146 19,44.0821566 C18.6347305,44.0462131 18.3053892,44.0154044 18.0299401,44 Z"
                              id="Path" fill="#FFFFFF"></path>
                        <path d="M28.0399297,30.3359917 C27.8357092,30.2968166 27.6350415,30.2399385 27.4400525,30.1659601 C26.1145174,29.6658671 25.7033112,27.6654954 25.5920437,26.1652166 C25.3751603,28.1153412 25.5919168,30.0909129 26.2257849,31.94129 C26.3854296,32.4113774 25.6646095,32.6114146 25.5049647,32.1463281 C24.8058302,30.0719864 24.5984521,27.8544972 24.9002498,25.6801264 C24.9269638,25.5761125 24.9940606,25.4881288 25.0856633,25.4369945 C25.177266,25.3858603 25.2852349,25.3761192 25.3840217,25.4100762 C25.4669842,25.4334173 25.5380345,25.4889507 25.5823682,25.565105 C25.5823682,25.355066 25.5823682,25.1650307 25.5823682,25 C25.1865431,25.0856125 24.7809456,25.1125543 24.3777761,25.0800149 C24.5809603,26.415263 24.9002498,29.7258783 23.207048,30.5060233 C21.9701264,30.9829219 20.6566874,31.2120423 19.3368725,31.1811488 C18.6506378,31.1862628 17.9654718,31.1243091 17.2905171,30.9961144 C16.8447392,30.9121127 16.4129797,30.7622146 16.0085215,30.5510317 C15.9847827,31.2188873 16.0106599,31.8876415 16.085925,32.5514034 C16.2891092,34.2917269 19.5884339,42.0931767 23.7440348,44.6536526 C24.7306755,45.1819899 25.9193749,45.1010969 26.8304998,44.4436136 C29.9266403,41.8481312 33.7436009,34.6017845 34,31.6512361 C33.9973352,30.956419 33.9325568,30.2633434 33.8064912,29.5808513 C32.4113234,30.1540196 30.9248017,30.4525343 29.4235174,30.4610149 C28.959461,30.4666252 28.4960066,30.4247467 28.0399297,30.3359917 L28.0399297,30.3359917 Z M23.4440962,33.7916339 C23.4983152,33.5878759 23.7012569,33.4673592 23.8988419,33.5215837 C24.2761144,33.6494854 24.673105,33.703751 25.06957,33.6816135 C25.4457807,33.6684379 25.8164174,33.5836722 26.1628945,33.431567 C26.3427617,33.3307954 26.5674304,33.392144 26.6756928,33.571593 C26.7600474,33.7496523 26.7017724,33.9647988 26.5402367,34.071686 C25.6483218,34.4949576 24.6357609,34.5591518 23.7004954,34.2517194 C23.5116641,34.191431 23.3998226,33.9907415 23.4440962,33.7916339 Z M24.1020261,40.2928422 C23.898444,40.2875784 23.7346136,40.1182209 23.7295217,39.9077706 C23.7321289,39.6962279 23.8973872,39.5253942 24.1020261,39.522699 C24.3191797,39.5451928 24.5379646,39.5451928 24.7551182,39.522699 L24.861548,39.522699 L25.0211928,39.4926934 L25.3162937,39.4126786 C25.6930375,39.2929458 26.0432099,39.0975073 26.3467279,38.8375717 C26.4953066,38.6946389 26.7254606,38.6946389 26.8740393,38.8375717 C26.9440538,38.909808 26.9833989,39.0078656 26.9833989,39.1101223 C26.9833989,39.2123791 26.9440538,39.3104367 26.8740393,39.382673 C26.1058824,40.0587835 25.1068019,40.3868238 24.1020261,40.2928422 L24.1020261,40.2928422 Z M32.292285,34.2917269 C32.8244342,33.0865029 33.3710965,31.6862426 32.9502149,30.3609963 C32.7954079,29.890909 33.5162281,29.6858709 33.6661974,30.1559582 C34.0870789,31.4712027 33.6952237,32.8414573 33.1824254,34.071686 C32.6696272,35.3019146 32.0358859,36.6321618 31.4021447,37.8723923 C30.1888305,40.3820675 28.5315635,42.6346424 26.5160481,44.5136266 C26.1532191,44.838687 25.6259077,44.2935857 25.9887367,43.9685253 C27.8704301,42.2266672 29.4280104,40.1436696 30.5845701,37.822383 C31.189285,36.6621674 31.7601359,35.4719462 32.292285,34.2917269 Z M29.9605043,35.0968765 C30.0225298,35.2289714 30.0064856,35.3860334 29.9191381,35.5018226 C29.8317906,35.6176118 29.6883448,35.6719723 29.5492981,35.6419778 C29.5046582,35.6264404 29.4623257,35.6045601 29.4235174,35.5769657 C27.9167997,37.4982397 25.5986727,38.539637 23.2118857,38.3674843 C22.7281138,38.3274769 22.7281138,37.5573338 23.2118857,37.5973412 C25.3773117,37.776082 27.4889669,36.8408223 28.8575043,35.0968765 L28.7655876,35.0968765 C28.7060201,35.0918856 28.6461595,35.0918856 28.586592,35.0968765 C28.3830099,35.0916128 28.2191795,34.9222552 28.2140876,34.7118049 C28.2144832,34.6085081 28.2544985,34.5095911 28.3253551,34.4367538 C28.3898514,34.3564404 28.4815474,34.3045744 28.5817543,34.2917269 C29.1506448,34.2506937 29.690057,34.5578685 29.9605043,35.0768728 L29.9605043,35.0968765 Z"
                              id="Shape" fill="#FFFFFF"></path>
                        <path d="M27.509166,29.7676983 C29.0897262,30.2894562 32.2929949,29.8655279 34,29.1574279 C33.7049621,27.6620325 33.2729423,25.7986115 32.846191,24.074947 C31.950302,23.987458 31.0469608,23.9765375 30.1487016,24.0423372 C28.5365301,24.1681181 27.3458414,24.9740477 26.0023652,25.4399029 C25.970754,26.8840542 26.2447178,29.3624042 27.509166,29.7676983 Z M27.1456371,27.2567385 C27.2600129,27.0854014 27.5089533,27.0272569 27.7041017,27.126299 L27.8621578,27.2054944 L27.9095746,27.2054944 L27.9517228,27.2054944 C28.0495304,27.2382715 28.1498953,27.2647392 28.2520293,27.2846898 L28.3415944,27.2846898 L28.3415944,27.2846898 L28.5049189,27.2846898 C28.6084668,27.2893366 28.7122146,27.2893366 28.8157624,27.2846898 L28.8157624,27.2846898 L28.8895219,27.2846898 L29.0475779,27.2474213 C29.1013555,27.2368944 29.1541837,27.2228809 29.205634,27.2054944 L29.2530508,27.2054944 L29.295199,27.2054944 C29.3893857,27.1634453 29.4808488,27.1167875 29.5691628,27.0657378 L29.6165796,27.0377865 L29.6481908,27.0377865 C29.6910469,27.0076459 29.7315326,26.9749605 29.7693671,26.9399569 C29.930136,26.8044891 30.1828684,26.8044891 30.3436373,26.9399569 C30.499579,27.0811355 30.499579,27.3065605 30.3436373,27.4477391 C29.5143983,28.1506143 28.2584714,28.2818228 27.2668134,27.7691792 C27.1733673,27.715822 27.1079643,27.6316103 27.0851981,27.5353347 C27.0624319,27.439059 27.0841971,27.3387314 27.1456371,27.2567385 L27.1456371,27.2567385 Z"
                              id="Shape" fill="#FFFFFF"></path>
                        <path d="M16.4992547,24.2868996 C16.2496274,26.1502143 16.0649031,28.3346087 16,30.1505511 C16.0374599,30.1935486 16.0774814,30.2339849 16.1198211,30.2716139 C17.2780922,31.2822253 21.3220556,31.1769533 23.0844249,30.3505679 C24.2377034,29.8242078 24.0829344,26.8134281 23.7883741,25.192239 C23.2137331,24.827584 22.5959883,24.5444174 21.9511166,24.3500628 C20.1604504,23.9056834 18.2987511,23.8841144 16.4992547,24.2868996 Z M19.6595373,27.0397629 L19.7144553,26.8976457 C19.7901998,26.7606802 19.9138907,26.6605131 20.0589411,26.6186748 C20.2041795,26.5757629 20.359462,26.5926988 20.4932927,26.6660472 C20.5602917,26.7026967 20.6170755,26.7571209 20.6580468,26.8239553 C20.7085913,26.8814077 20.7431398,26.9524349 20.7578978,27.0292357 C20.8178083,27.355579 20.8727264,27.6766586 20.9326369,28.0030019 C20.9575809,28.1084129 20.9575809,28.2186705 20.9326369,28.3240815 L20.8727264,28.4714624 C20.7954141,28.6069626 20.6723525,28.7066201 20.5282406,28.7504332 C20.378092,28.7931303 20.2179647,28.7703679 20.0839039,28.68727 C20.0183247,28.6504807 19.9631911,28.5959867 19.9241423,28.529362 C19.8738587,28.4709585 19.8378678,28.4004893 19.8192988,28.3240815 C19.7643808,28.0030019 19.7044702,27.6766586 19.6495522,27.355579 C19.6231565,27.251888 19.6248863,27.1424689 19.6545448,27.0397629 L19.6595373,27.0397629 Z"
                              id="Shape" fill="#FFFFFF"></path>
                        <path d="M34.6364359,34.904933 C35.2157744,34.5373488 35.646662,33.9762713 35.8528496,33.320988 C36.494418,31.8296111 37.2027095,29.8599652 36.9460822,27.8954619 C36.9356463,27.6301348 36.8256694,27.3785251 36.6381293,27.1909149 C36.4683921,27.0670572 36.2629648,27.0020574 36.0530189,27.0057785 C35.9556521,26.9980738 35.8578306,26.9980738 35.7604637,27.0057785 C35.7916354,27.6517287 35.6610708,28.295233 35.3806552,28.8777136 C35.6082743,28.6983246 35.9009275,28.6236161 36.1864652,28.6720064 C36.5176072,28.7332972 36.7637287,29.0139192 36.7818407,29.35084 C36.8059129,29.6656307 36.6102137,29.9554963 36.3096463,30.0502443 C36.2048391,30.0851639 36.0902901,30.0751466 35.9931048,30.022563 C35.8959196,29.9699794 35.8247336,29.8795018 35.7963916,29.7725397 C35.7703544,29.6811739 35.781424,29.5831991 35.8271869,29.4999777 L35.8271869,29.4999777 L35.791259,29.5359764 C35.7446239,29.5785193 35.7016969,29.6249719 35.6629453,29.6748288 L35.6629453,29.6748288 L35.6064873,29.7519689 L35.3755227,30.0965284 C35.2266788,30.3330916 35.0829675,30.5747975 34.9546538,30.8216461 C34.9006302,30.9196644 34.8036029,30.9863833 34.6928939,31.0016399 C34.7438667,31.3747362 34.7610452,31.7516883 34.7442194,32.1278865 C34.6185145,33.0838767 34.3683109,34.0192376 34,34.9100757 L34.0359278,34.9460744 C34.2309626,35.0304494 34.4546784,35.0151224 34.6364359,34.904933 Z"
                              id="Path" fill="#FFFFFF"></path>
                        <path d="M29,46 C29,46.0657277 29,46.1361502 29,46.2018779 C29.1078859,46.0907563 29.2967661,46.0436471 29.4705882,46.084507 C30.3931889,46.2629108 30.7585139,46.9906103 30.8823529,47.6384977 C30.8823529,47.7605634 30.9256966,47.8779343 30.9442724,48 L31,48 C30.9677821,47.4163055 30.8022741,46.8412716 30.5108359,46.3004695 C30.2321981,46.2300469 29.6934985,46.1314554 29,46 Z"
                              id="Path" fill="#FFFFFF"></path>
                        <path d="M39.5975496,18.1121908 C39.2115976,17.8814615 38.7257454,18.0173471 38.4923248,18.4213058 L37.1159107,20.6789489 C37.0041433,20.8799378 36.9715393,21.1208038 37.0253635,21.3478784 C37.0791877,21.574953 37.2149679,21.7693696 37.4024504,21.8878092 C37.7884024,22.1185385 38.2742546,21.9826529 38.5076752,21.5786942 L39.8840893,19.3210511 C39.9958567,19.1200622 40.0284607,18.8791962 39.9746365,18.6521216 C39.9208123,18.425047 39.7850321,18.2306304 39.5975496,18.1121908 L39.5975496,18.1121908 Z"
                              id="Path" fill="#FFFFFF"></path>
                        <path d="M39.2580584,25.1141472 C39.0603963,25.0011365 38.8309855,24.9707367 38.6138102,25.0287763 C38.2893302,25.1228133 38.0495985,25.4186281 38.0067829,25.7778122 C37.9639674,26.1369963 38.1265355,26.4885148 38.4184234,26.6678959 L40.7419416,27.8858528 C40.9396037,27.9988635 41.1690145,28.0292633 41.3861898,27.9712237 C41.7106698,27.8771867 41.9504015,27.5813719 41.9932171,27.2221878 C42.0360326,26.8630037 41.8734645,26.5114852 41.5815766,26.3321041 L39.2580584,25.1141472 Z"
                              id="Path" fill="#FFFFFF"></path>
                        <path d="M48,25 L48,25 C47.9998609,22.627076 47.6627872,20.2675606 47,18 C47.6627872,20.2675606 47.9998609,22.627076 48,25 L48,25 Z"
                              id="Path" fill="#FFFFFF"></path>
                        <path d="M41.6781927,22.0882959 C41.5226678,21.9984236 41.335181,21.975963 41.1616552,22.0264155 L39.4925131,22.6988489 C39.3271249,22.7520635 39.1855351,22.858324 39.091236,23 C39.0011111,23.1511316 38.9765549,23.3305936 39.0229335,23.4991683 C39.0674611,23.6705572 39.1792136,23.8184951 39.3345636,23.9117041 C39.4900885,24.0015764 39.6775753,24.024037 39.8511012,23.9735845 L41.5074365,23.2722736 C41.6728247,23.219059 41.8144145,23.1127985 41.9087136,22.9711225 C42.0925426,22.6651575 41.9902331,22.2733425 41.6781927,22.0882959 Z"
                              id="Path" fill="#FFFFFF"></path>
                        <path d="M27.1133257,45.4525186 C26.4700365,45.9147907 25.6851375,46.1554999 24.8838269,46.136251 C24.2674607,46.1476884 23.6590137,46.0006428 23.1207289,45.7101569 C21.9292577,44.9782021 20.8697028,44.0627228 19.9840547,43 C19.5996583,44.8084228 19.2255125,46.730801 19,48.2617671 C19.3587699,48.3509496 19.7226651,48.4351775 20.0916856,48.5045417 C21.7048901,48.8309896 23.3484154,48.997007 24.9965831,49 C25.3912301,49 25.785877,49 26.1753986,48.9702725 C26.5649203,48.940545 26.9493166,48.9207267 27.333713,48.8860446 C27.4736057,47.4728771 27.6960565,46.0684881 28,44.6796036 C27.7184144,44.9518373 27.4224615,45.2098198 27.1133257,45.4525186 L27.1133257,45.4525186 Z"
                              id="Path" fill="#FFFFFF"></path>
                        <path d="M13.9955,29.996 C13.9989521,29.9981099 14.0019999,30.0008191 14.0045,30.004 C14.0045,30.004 14.0045,30.004 14.0045,30.004 L13.9955,29.996 Z"
                              id="Path" fill="#FFFFFF"></path>
                        <path d="M29.4155251,46.1897019 C29.3248069,46.1648211 29.2469904,46.0960368 29.2009132,46 C29.1278539,46.704607 29.0593607,47.3821138 29,48 L29.1415525,48 C29.4292237,47.9457995 29.7123288,47.8753388 30,47.8102981 C30,47.7235772 30,47.6368564 30,47.5555556 C29.9360731,47.0731707 29.8584475,46.3252033 29.4155251,46.1897019 Z"
                              id="Path" fill="#FFFFFF"></path>
                        <path d="M14.8944977,31.7365924 C14.7922266,31.3837646 14.6899554,30.9391049 14.5828142,30.4316128 C14.5828142,30.4316128 14.5535939,30.3929468 14.5438538,30.3736137 C14.4659329,30.2141162 14.4172324,30.0449522 14.3490516,29.890288 C14.3374019,29.8583701 14.3227259,29.8276215 14.3052211,29.7984561 L14.3052211,29.7984561 C14.3045541,29.8590629 14.28954,29.9186652 14.2613906,29.9724534 C14.1571977,30.1340068 13.9463493,30.1905057 13.7743852,30.1029513 C13.6424062,30.0242318 13.5463755,29.8977359 13.5065322,29.7501235 C13.4675654,29.6257854 13.4675654,29.4926343 13.5065322,29.3682962 C13.6042334,29.0835189 13.8807794,28.8979152 14.1834698,28.91397 C14.2207566,28.9112521 14.2581942,28.9112521 14.295481,28.91397 L14.295481,28.8463044 C14.0004102,28.2731057 13.8342482,27.6431629 13.8084756,27 C13.4794917,27.2138002 13.2364933,27.53535 13.121798,27.9086524 C12.9921884,28.4138887 12.9656953,28.9397474 13.0438771,29.4552948 C13.2371729,31.0823264 13.7553823,32.6547842 14.5682041,34.0807222 C14.7162081,34.3767255 14.92724,34.6372855 15.1867009,34.8443769 C15.4061554,35.0091411 15.6972315,35.0459407 15.9512995,34.9410421 L16,34.8927095 C15.6374808,34.0993373 15.3615631,33.2697367 15.1769608,32.4180817 C15.1769608,32.2875837 15.1380004,32.1329195 15.1282603,31.9347559 L14.9480683,31.9347559 L14.8944977,31.7365924 Z"
                              id="Path" fill="#FFFFFF"></path>
                        <path d="M30.02,47.9955 L29.98,48.0045 L30.02,47.9955 Z" id="Path" fill="#FFFFFF"></path>
                        <path d="M47,16 C47.3797468,16.6543779 47.7088608,17.3179724 48,18 C47.7088608,17.3179724 47.3797468,16.6543779 47,16 Z"
                              id="Path" fill="#FFFFFF"></path>
                        <path d="M34,47 C33.0202793,47.3913399 32.0185805,47.7252395 31,48 C32.0185805,47.7252395 33.0202793,47.3913399 34,47 Z"
                              id="Path" fill="#FFFFFF"></path>
                        <path d="M28.0145,44.0425 C28.0145,44.0145 28.0225,43.9865 28.0275,43.9575 L27.9725,44.0205 C27.9880612,44.0243604 28.002466,44.0319058 28.0145,44.0425 L28.0145,44.0425 Z"
                              id="Path" fill="#FFFFFF"></path>
                        <path d="M28,47.993 L27,48.007 L28,47.993 Z" id="Path" fill="#FFFFFF"></path>
                        <path d="M40.3668551,8.09144701 L40.2182539,7.95838565 C39.752637,7.54441696 39.27216,7.15016106 38.7768229,6.77561796 C38.6282218,6.65734119 38.4746673,6.54892082 38.3211128,6.43557225 C34.3062135,3.53903827 29.4704534,1.98592965 24.511114,2.00009606 C22.9183609,2.00561591 21.3302113,2.17072341 19.7707378,2.4930133 C19.3843749,2.57186448 19.0079187,2.66057206 18.6314624,2.75420783 C17.5127634,3.04192874 16.4167799,3.41089052 15.3523307,3.85812434 C14.648952,4.15381626 13.9604334,4.48400557 13.2966817,4.84376408 C6.25095542,8.65323529 1.63981706,15.7699538 1.0614411,23.727336 C0.483065145,31.6847182 4.01706309,39.3874575 10.4385866,44.1658614 C10.7407422,44.3925586 11.0478512,44.6093993 11.3599136,44.8213118 C11.9889917,45.2402087 12.63293,45.6295364 13.3016351,45.9892949 C13.9690822,46.3533293 14.6552388,46.6823267 15.3572841,46.9749347 L15.7040201,47.1129242 C15.9516887,45.9055156 16.3727252,44.2102152 16.8432955,43.7075389 C17.0364769,43.4956264 17.8339697,43.4906982 18.8989445,43.608975 C18.9881052,43.1506525 19.0822192,42.6972582 19.1713799,42.2537203 C17.7614595,40.4055692 16.5713323,38.4012343 15.6247662,36.2807435 C15.4523034,36.3771614 15.2579069,36.4280584 15.0600818,36.4285895 C14.7517332,36.4230808 14.451891,36.3270703 14.1981953,36.1526104 C13.8534301,35.8920311 13.5751438,35.5543823 13.3858424,35.1669706 C12.5164502,33.6497572 11.9638448,31.9735464 11.7611367,30.2387719 C11.6666799,29.6307036 11.7004173,29.0097337 11.8602041,28.4153384 C12.0541699,27.7691514 12.5283929,27.2431069 13.153034,26.9812326 C13.1554815,26.9402004 13.1554815,26.8990598 13.153034,26.8580276 C13.0787334,26.3652078 12.9994794,25.8329623 12.9202255,25.305645 C12.2812406,25.3844962 11.9691782,24.4727795 12.6378834,24.3200053 L12.7716244,24.2855079 C12.0484322,19.1798941 11.4490743,13.7785883 11.4887012,13.3547632 C11.6620692,11.6397501 14.0644542,7.20437125 23.0647296,6.55384902 C29.4397183,6.10045474 33.2835343,7.64298093 34.4921569,11.1469302 C34.7596389,11.9255856 34.6655249,18.1252595 34.5317838,23.3984321 L35.1509552,23.5807755 C35.8493806,23.8074726 35.6462923,24.8276098 34.9181468,24.6009126 L34.7200119,24.5467024 C34.8898808,25.269662 35.004139,26.0044474 35.0617946,26.7446791 C35.1771619,26.7348448 35.2931632,26.7348448 35.4085305,26.7446791 C35.7391439,26.7460129 36.0598689,26.8570025 36.3199508,27.0600838 C36.616919,27.3380423 36.7943991,27.7194512 36.8152879,28.1245747 C37.0778166,30.1549925 36.3645312,32.1410566 35.7106862,33.6441572 C35.4569829,34.4127734 34.9280934,35.0617556 34.2246748,35.4675907 C34.0338455,35.5631744 33.824046,35.6153578 33.6104568,35.6203649 C33.453699,35.6202149 33.2992145,35.5830568 33.1597,35.5119445 C32.0579229,38.1036303 30.6334188,40.547419 28.9196143,42.7859658 C28.7611064,43.6927543 28.6224121,44.6044711 28.4985778,45.4816905 C29.3753245,45.693603 29.9350554,45.8365208 29.9548689,45.8513054 C30.2669313,46.0927871 30.450206,46.9798629 30.5988071,48 L30.5988071,48 C31.4820692,47.7582008 32.3503869,47.4652959 33.199327,47.1227806 L33.4024152,47.0439295 C33.6352237,46.9502937 33.8630787,46.8517297 34.0958872,46.7482375 L34.3485091,46.634889 L35.0122608,46.3194842 L35.2500227,46.1962793 C35.4778777,46.0829307 35.7007794,45.9646539 35.9236811,45.841449 L36.0326553,45.7823106 C36.7666646,45.368214 37.4792049,44.9175322 38.1675583,44.4319841 L38.3954133,44.2693536 C38.5786881,44.1362922 38.7570094,43.9983027 38.9353308,43.8603131 L39.2127196,43.6434724 L39.7080567,43.2295037 L39.9903988,42.9880219 C40.1538601,42.8451042 40.3173213,42.7021864 40.485736,42.5543404 L40.7433113,42.3128587 C41.2683686,41.8101824 41.7637057,41.2845079 42.2293226,40.7358351 L42.5265249,40.4007176 L42.8782142,39.9670361 L43.1803699,39.5875648 L43.5072924,39.1489552 C43.6063598,39.0158938 43.7054272,38.8779042 43.7995413,38.7349865 C43.8936553,38.5920687 44.0026295,38.4491509 44.0967435,38.3062332 C44.1908576,38.1633154 44.3047851,37.9908285 44.4038525,37.8134133 L44.6564745,37.4142292 C44.8298425,37.1283937 44.9933037,36.8425582 45.1518116,36.5567226 C45.2162054,36.4433741 45.2706925,36.3250973 45.3301329,36.2117487 C45.4341537,36.0146208 45.5381745,35.8174928 45.637242,35.6203649 L45.8304234,35.2113244 L46.0830454,34.6544379 L46.2613667,34.2355411 C46.3406207,34.0433413 46.4149212,33.8462134 46.4892218,33.6540136 C46.5635224,33.4618139 46.5932426,33.3780345 46.6427763,33.2400449 C46.7220302,33.0281324 46.7963308,32.8063634 46.865678,32.5895227 L46.9845589,32.2346924 C47.0885797,31.8995749 47.1826938,31.5595292 47.2718544,31.2194835 L47.3164348,31.0371401 C47.3907353,30.7513046 47.4551292,30.4605409 47.519523,30.1697771 C47.5442899,30.041644 47.5690567,29.918439 47.5888702,29.795234 C47.6334505,29.5636087 47.6780309,29.3024142 47.7176578,29.0905016 L47.7770983,28.6814611 C47.8101208,28.4514785 47.839841,28.2198532 47.866259,27.9865851 L47.9108393,27.5775446 C47.9108393,27.3262065 47.9504663,27.0847248 47.9702798,26.8235302 C47.9702798,26.7052535 47.9702798,26.5869767 47.9702798,26.4686999 C47.9702798,26.099085 48,25.7294701 48,25.354927 L48,25.354927 C48,23.0160788 47.6475583,20.6904467 46.9548387,18.4554489 C46.7269836,17.7260755 46.4595016,17.0164148 46.172206,16.3166106 C45.0090104,13.5613174 43.3277906,11.0523033 41.2188349,8.92431259 C40.9563062,8.63354887 40.6690107,8.35756974 40.3668551,8.09144701 Z M36.6171531,21.9889673 C36.2479392,21.7691043 36.1244266,21.2951197 36.3397643,20.9244764 L37.6722211,18.9088431 C37.8981871,18.5481872 38.3685232,18.4268679 38.7421493,18.632864 C39.1113632,18.852727 39.2348758,19.3267116 39.0195381,19.6973549 L37.6870813,21.7129882 C37.4611153,22.0736441 36.9907793,22.1949634 36.6171531,21.9889673 L36.6171531,21.9889673 Z M41.674545,27.7451034 C41.5702759,27.91793 41.4038012,28.0447945 41.2089282,28.0999337 C41.0052155,28.1501905 40.7900259,28.1238672 40.6046169,28.0260107 L38.4251336,26.9713762 C38.1513398,26.8160493 37.9988493,26.5116677 38.0390107,26.2006486 C38.0791721,25.8896294 38.3040429,25.633482 38.6084083,25.552055 C38.8121209,25.5017982 39.0273106,25.5281215 39.2127196,25.625978 L41.3922029,26.6806125 C41.7609221,26.9005298 41.886189,27.372813 41.674545,27.7451034 Z M41.3575293,23.0436018 C41.2481105,23.2128495 41.0838186,23.3397896 40.8919124,23.4033603 L38.9402842,24.2066567 C38.7389356,24.2669279 38.5213876,24.2400962 38.3409263,24.1327337 C38.1606678,24.0213853 38.0309972,23.844657 37.9793302,23.6399139 C37.9255153,23.4385327 37.9540088,23.2241453 38.0585841,23.0436018 C38.1680028,22.8743541 38.3322948,22.7474141 38.524201,22.6838433 L40.4609691,21.8805469 C40.6671673,21.8304375 40.8850541,21.8698519 41.060327,21.9889673 C41.4331658,22.2000626 41.565718,22.6704295 41.3575293,23.0436018 L41.3575293,23.0436018 Z"
                              id="Shape" fill="#FF7900"></path>
                        <path d="M17.772093,43.5939848 C17.8839926,43.5138564 18.0276353,43.5138564 18.1395349,43.5939848 C18.3534884,43.5939848 18.6046512,43.6405716 18.8930233,43.6768058 C18.9302326,43.4801058 18.9627907,43.2782295 19,43.0815296 C17.9813953,42.957298 17.2511628,42.9624743 17.0697674,43.1850559 C16.627907,43.7026874 16.2325581,45.4936923 16,46.7618895 L16.5395349,47 C16.7953488,45.6075713 17.1627907,44.0080899 17.4697674,43.6405716 C17.5672203,43.6050078 17.6696237,43.589228 17.772093,43.5939848 Z"
                              id="Path" fill="#000000"></path>
                        <path d="M29.0727273,45 C29.05,45.2166667 29.0272727,45.4333333 29,45.6444444 C29.5227273,45.8 29.9090909,45.9166667 30.0863636,45.9888889 C30.3003058,46.6288381 30.4218037,47.3092948 30.4454545,48 L31,47.8388889 L31,47.8388889 C30.8818182,46.6888889 30.6954545,45.6888889 30.4090909,45.4166667 C30.4090909,45.4 29.8954545,45.2388889 29.0727273,45 Z"
                              id="Path" fill="#000000"></path>
                        <path d="M28.6353791,45.5959253 C28.6353791,45.524618 28.6353791,45.4482173 28.6353791,45.37691 C28.6570397,45.1833616 28.6750903,44.9847199 28.6931408,44.7860781 C28.7833935,43.8794567 28.8844765,42.9371817 29,42 C28.8122744,42.336163 28.6389892,42.6570458 28.4368231,42.9575552 C28.4368231,43.1052632 28.4043321,43.2478778 28.3898917,43.3904924 C28.4624478,43.4825595 28.4930056,43.6236563 28.4693141,43.7572156 C28.2552397,45.1575838 28.0985419,46.5741935 28,48 C28.1371841,48 28.2779783,47.9541596 28.4151625,47.9235993 L28.4151625,47.9235993 C28.4620939,47.3429542 28.5162455,46.7062818 28.5740072,46.0441426 C28.5315408,45.8905337 28.5554161,45.7161656 28.6353791,45.5959253 Z"
                              id="Path" fill="#000000"></path>
                        <path d="M19.3656958,42 C19.2491909,42.4568528 19.1262136,42.9238579 19.0097087,43.3959391 C18.9579288,43.5888325 18.9126214,43.786802 18.8608414,43.9796954 C18.5242718,45.3451777 18.2135922,46.7005076 18,47.8527919 L18.6472492,48 L18.7572816,48 C19.0420712,46.4314721 19.5145631,44.4467005 20,42.6091371 C19.7993528,42.4263959 19.579288,42.2182741 19.3656958,42 Z"
                              id="Path" fill="#000000"></path>
                        <path d="M36.3596404,26.621621 C36.5780129,26.6180081 36.7916855,26.681117 36.9682355,26.8013717 C37.1554877,26.9866141 37.2620946,27.2305423 37.2671944,27.4854229 C37.5341221,29.3927773 36.7974018,31.3051249 36.1300826,32.7531165 C35.9156193,33.3893372 35.4674371,33.9340925 34.8648456,34.2909834 C34.6886523,34.3882669 34.4751214,34.4065891 34.2829433,34.3409142 L34.2455734,34.3059626 L34,34.8901524 C34.1503633,34.9622008 34.3168608,34.9998481 34.4858083,35 C34.7160065,34.9949269 34.9421204,34.9420567 35.1477889,34.8452147 C35.9059064,34.434037 36.4759232,33.7765115 36.7493548,32.9977771 C37.4540438,31.4748894 38.2227954,29.4626804 37.9398521,27.4055337 C37.9173389,26.995077 37.7260577,26.6086472 37.4059968,26.3270296 C37.122811,26.1191646 36.7730083,26.0065915 36.413026,26.0074728 C36.2886875,25.9975091 36.1636657,25.9975091 36.0393272,26.0074728 C36.0393272,26.2121889 36.0393272,26.4169049 36.0393272,26.6166279 C36.146062,26.6099982 36.2532011,26.6116683 36.3596404,26.621621 L36.3596404,26.621621 Z"
                              id="Path" fill="#000000"></path>
                        <path d="M15.6913579,35.3665276 C15.4273959,35.4683689 15.1249847,35.4326418 14.8969841,35.2726799 C14.6274191,35.0716243 14.408169,34.8186586 14.2544014,34.5312826 C13.4099263,33.1469047 12.8715366,31.6202777 12.6707134,30.0406674 C12.589487,29.540146 12.6170118,29.029614 12.7516687,28.5391032 C12.8656413,28.1794927 13.110636,27.8677023 13.4448484,27.6569343 C13.4321251,27.4381152 13.4321251,27.2188191 13.4448484,27 C12.8172739,27.2570816 12.3447904,27.7588438 12.1546234,28.3701773 C11.9914064,28.9361311 11.9569448,29.5273881 12.0534293,30.1063608 C12.260489,31.7581276 12.8249573,33.3541329 13.7130128,34.7987487 C13.9063781,35.167623 14.1906383,35.4891155 14.5428046,35.7372263 C14.8019465,35.9033384 15.1082255,35.9947549 15.4231935,36 C15.6252653,35.9994944 15.8238349,35.9510328 16,35.8592284 C15.9089253,35.6715328 15.8229103,35.4885297 15.741955,35.310219 L15.6913579,35.3665276 Z"
                              id="Path" fill="#000000"></path>
                        <path d="M34.7451327,22.247733 C34.6451848,19.7079302 34.5302447,17.1632054 34.4402915,14.6234026 C34.3803227,12.8268368 34.6152004,10.6217367 33.1909422,9.24847125 C33.1184312,9.18850329 33.0741463,9.10180659 33.0684756,9.00871764 C33.0628048,8.91562869 33.096247,8.82433863 33.1609578,8.75626142 C31.301926,7.33869709 28.2635085,6.78742208 24.0756895,7.07290378 C15.4601766,7.70785447 13.1163973,11.8817939 13.0014572,13.2944361 C12.9664754,13.7275807 13.5661631,18.9991481 14.2807909,24 C14.8654864,23.8572591 15.4551792,23.7243625 16.0548669,23.6160763 C16.1676704,22.5973923 16.4372877,21.6015618 16.8544505,20.6628173 C17.3841746,19.8211385 20.4026025,19.3879938 22.156689,19.2107983 C25.2150961,18.8908619 31.3968766,18.7185885 32.9260801,20.2788936 L32.9860489,20.3428809 L32.9910463,20.4314787 C33.0210307,20.5545312 33.2559083,21.548795 33.565747,22.9171384 C34.0654867,22.9811256 34.5302447,23.0648013 35,23.1730875 L35,22.6021241 C34.8428985,22.5551067 34.7380402,22.4093021 34.7451327,22.247733 L34.7451327,22.247733 Z"
                              id="Path" fill="#000000"></path>
                        <path d="M33.8961039,28.9950397 L33.8961039,28.593254 C33.8253081,28.5266554 33.7866716,28.4252011 33.7922078,28.3204365 C33.8828234,27.104954 33.76217,25.8809476 33.4372294,24.719246 C33.3203463,24.3125 33.7835498,24.109127 34,24.3621032 C33.9878654,24.3164208 33.9777516,24.2700654 33.969697,24.2232143 C33.6493506,24.1339286 33.3246753,24.0595238 33,24 C33.2987013,25.5823413 33.6320346,27.4325397 33.8658009,29 L33.8961039,28.9950397 Z"
                              id="Path" fill="#000000"></path>
                        <path d="M14.4999106,24.1199166 C14.1386072,25.0525779 13.9694032,26.0623276 14.0045389,27.076121 C14.0469994,27.362878 14.0894598,27.6392075 14.1272024,27.9103233 C14.2205802,28.297722 14.3703615,28.665754 14.5706779,29 C14.650881,27.4358707 14.8018514,25.6058394 15,24 L14.4999106,24.1199166 Z"
                              id="Path" fill="#000000"></path>
                        <path d="M35.037,29 C35.0135656,29.1697523 34.9888298,29.3225601 34.963,29.4571429 L34.972,30 C34.985,29.7904762 34.997,29.5714286 35.011,29.3714286 L35.037,29 Z"
                              id="Path" fill="#000000"></path>
                        <polygon id="Path" fill="#000000"
                                 points="14.003 29.0075 13.997 28.9925 13.997 29.0065"></polygon>
                        <path d="M13.1570248,25.1632653 C13.1047728,25.1663212 13.052252,25.1663212 13,25.1632653 C13.1322314,25.787172 13.2644628,26.3994169 13.3884298,27 C13.4881398,26.3195747 13.6932203,25.6489061 14,25 L13.1570248,25.1632653 Z"
                              id="Path" fill="#000000"></path>
                        <path d="M12.6299768,12.9904466 C12.7673815,11.5581067 15.0836306,7.32596653 23.5291068,6.70711584 C27.6414305,6.40268123 30.6250735,6.97661534 32.4505919,8.41394597 C32.5085078,8.31799718 32.6062958,8.25415573 32.7161878,8.24055015 C32.8260797,8.22694457 32.9360725,8.26506096 33.0149323,8.34407573 C34.4576807,9.78140636 34.4135149,11.942393 34.4527734,13.8338802 C34.5067538,16.5737917 34.6588803,19.3236847 34.7619337,22.0536148 C34.7655544,22.1763121 34.7081767,22.2926148 34.6092949,22.3630088 C34.5104131,22.4334027 34.3833227,22.4484228 34.271203,22.402966 L34.271203,22.9818908 C34.4724026,23.0268074 34.6736022,23.0767147 34.8698945,23.1316127 C35.0023918,17.7915302 35.0956307,11.5131901 34.8306361,10.7246546 C33.633253,7.18123532 29.8251824,5.61913641 23.5094776,6.07828369 C14.5438268,6.75203243 12.1637826,11.2436906 12.0018415,12.9305578 C11.962583,13.3597607 12.5563672,18.8296023 13.2728341,24 L13.861711,23.8452873 C13.1599661,18.7747043 12.5710892,13.429631 12.6299768,12.9904466 Z"
                              id="Path" fill="#000000"></path>
                        <path d="M33.9715,27.9595 L33.9715,28.0405 L33.9915,28.0265 C34.0063599,28.0137692 34.0188814,27.9985403 34.0285,27.9815 L34.0285,27.9815 C34.0073184,27.9821081 33.9867805,27.9741812 33.9715,27.9595 Z"
                              id="Path" fill="#000000"></path>
                        <path d="M14,31 C14.1929825,31.6583072 14.377193,32.2539185 14.5614035,32.69279 L14.6754386,33 L15,33 C15,32.6112853 14.9473684,32.1347962 14.9473684,31.6018809 C14.8426967,31.6023904 14.7397338,31.5829104 14.6491228,31.5454545 C14.3788582,31.4002715 14.1571348,31.2139585 14,31 L14,31 Z"
                              id="Path" fill="#000000"></path>
                        <path d="M14.013,28 C14.005,27.675 13.996,27.375 13.987,27 C13.9907761,27.3375864 13.9994789,27.6723108 14.013,28 L14.013,28 Z"
                              id="Path" fill="#000000"></path>
                        <path d="M23.3941058,45.5773998 C23.9226393,45.8647815 24.520064,46.0102556 25.1252644,45.9989405 C25.9120589,46.0179837 26.682739,45.7798468 27.3143747,45.3225147 C27.6182867,45.077641 27.908885,44.8175012 28.1849864,44.5431546 C28.1849864,44.4745317 28.1849864,44.4010071 28.2252459,44.3323842 C28.2416416,44.2410248 28.2969329,44.1606771 28.3774628,44.1111873 C28.4579926,44.0616974 28.556252,44.04768 28.6479706,44.0725975 L28.9247547,43.7637944 C29.1864415,43.4745979 29.4279985,43.1657948 29.709815,42.8422868 C31.457347,40.6120118 32.9097165,38.1763622 34.0326788,35.5927669 L34.264171,35.0192755 C34.625298,34.1701919 34.8706214,33.2786723 34.9938744,32.3674903 C35.0103721,32.0089248 34.9935286,31.6496408 34.94355,31.294032 C34.8510102,31.310794 34.7553738,31.2969939 34.6717984,31.2548189 C34.5037609,31.1500539 34.4431403,30.9391791 34.5308901,30.7646552 C34.6164416,30.6078029 34.7120579,30.4607538 34.8026418,30.3137047 L34.7573498,30 C34.5710115,30.1040966 34.3776605,30.1958029 34.1786195,30.2744916 C34.3097592,30.9434328 34.3771449,31.6227475 34.379917,32.303769 C34.1131978,35.1957344 30.1426046,42.2982052 26.9218446,44.8421544 C25.9740469,45.4865834 24.7375024,45.5658703 23.7111494,45.0480231 C19.4033829,42.5481886 15.9712604,34.9016362 15.7095737,33.1909652 C15.6312791,32.5403822 15.6043604,31.8849061 15.6290547,31.2303107 C15.5024857,31.1576064 15.382901,31.0739402 15.2717516,30.9803272 L15.1711029,30.8920978 C15.1711029,30.916606 15.1711029,30.9362125 15.2063299,30.9607207 L15.2063299,30.9607207 L15.2063299,30.9901305 L15.2465894,31.024442 L15.2465894,31.024442 C15.4036886,31.1378668 15.4527723,31.3457272 15.3623355,31.5146056 C15.2865581,31.6370082 15.1462925,31.7072156 15,31.6959661 C15,32.1126052 15,32.4851295 15.0301946,32.789031 C15.0301946,32.9703915 15.0603893,33.1272439 15.080519,33.2791946 C15.2712764,34.1428984 15.5563942,34.9842358 15.9310009,35.7888323 C16.0115199,35.9750945 16.0970714,36.1662583 16.1876553,36.3623238 C17.1503617,38.4662744 18.3594561,40.4548228 19.7908806,42.2884019 C19.956951,42.4991723 20.1280539,42.7001394 20.2941243,42.8962048 C21.1697886,43.9492035 22.2170511,44.8549879 23.3941058,45.5773998 Z"
                              id="Path" fill="#000000"></path>
                        <path d="M32.4419069,19.4591429 L32.3836711,19.3899231 C30.8986583,17.6913766 24.8955181,17.8883867 21.9254924,18.2344855 C20.2220953,18.426171 17.2908935,18.8947356 16.7764773,19.8052417 C16.3713697,20.8207509 16.1095437,21.8980143 16,23 L16.6163289,22.8881835 C16.7153266,21.9469698 16.9393189,21.0267153 17.2811876,20.1566651 C17.4607479,19.8425139 18.8584071,19.246159 21.9885812,18.8840864 C23.3283661,18.7309992 24.6743824,18.652804 26.0214102,18.6498041 C28.3508421,18.6498041 30.4618898,18.9053848 31.5004282,19.496415 C31.5669244,19.509099 31.6280694,19.544506 31.6751356,19.5975824 L31.6751356,19.5975824 C31.7527316,19.6461222 31.8244691,19.7051539 31.8886669,19.7732941 C32.0342564,20.4601671 32.2041108,21.2695059 32.3739652,22.1427399 C32.5826434,22.1427399 32.7913217,22.1853366 33,22.2172842 C32.718527,20.75302 32.4710248,19.6774514 32.4710248,19.5549856 L32.4419069,19.4591429 Z"
                              id="Path" fill="#000000"></path>
                        <path d="M34,28.7021082 C33.6606061,27.2538955 33.1939394,25.5444546 32.7878788,24.0824931 C32.5272727,24.0504125 32.2666667,24.0229148 32,24 C32.4909091,25.695692 32.9878788,27.5288726 33.3272727,29 C33.5619271,28.9148045 33.7869266,28.8151719 34,28.7021082 Z"
                              id="Path" fill="#000000"></path>
                        <path d="M15.4174312,24.1346499 C15.2247706,25.7935368 15.0779817,27.6570916 15,29.2998205 C15.1557808,29.5579318 15.337523,29.7930247 15.5412844,30 C15.6100917,28.1418312 15.7798165,25.9066427 16,24 L15.4174312,24.1346499 Z"
                              id="Path" fill="#000000"></path>
                        <path d="M33.8294751,24.1637344 C33.8690084,24.2094587 33.8988277,24.2635336 33.9169438,24.3223522 C34.3062039,25.5910505 34.4531883,26.9283157 34.3494277,28.2570952 C34.344439,28.4705041 34.1827091,28.6430392 33.9801156,28.6510812 C33.9333754,28.7382713 33.8725285,28.8161932 33.8003189,28.8813327 L33.7031315,28.9529665 L33.7031315,28.9529665 C33.5291811,29.0796871 33.3455101,29.1909335 33.1540227,29.2855521 C31.5795868,30.0632907 28.6445274,30.5289105 27.167279,29.9558399 C26.0010302,29.510687 25.748343,26.788602 25.7774992,25.1666078 C25.5239131,25.2669174 25.2641488,25.3489735 25,25.4122095 C25,25.5810606 25,25.7754952 25,25.9903967 C25.0552685,26.0890329 25.0775126,26.2043412 25.0631718,26.3178655 C25.0631718,26.4099662 25.0631718,26.5071835 25.0340156,26.6044008 C25.1457811,28.1394111 25.5588275,30.1860915 26.8902949,30.6977616 C27.0861566,30.7734526 27.2877223,30.8316474 27.4928568,30.8717294 C27.9461926,30.9615352 28.4067913,31.0043789 28.8680584,30.9996469 C30.3760615,30.99097 31.8692359,30.6855447 33.2706476,30.0991076 C33.4617077,30.0101325 33.6467919,29.9075612 33.8246157,29.7921055 C33.9501322,29.7198005 34.0703324,29.6377039 34.1842091,29.5465039 C34.2867301,29.3758653 34.4091697,29.2194382 34.5486618,29.0808841 L34.6361305,29.014367 C34.9016211,28.4348288 35.0252365,27.7945751 34.9957239,27.1518878 C34.9957239,26.9472198 34.9957239,26.737435 34.9957239,26.5276503 C34.9391624,25.759105 34.8270725,24.9962142 34.6604273,24.2456016 C34.3850631,24.153501 34.1032196,24.0716338 33.814897,24 C33.8168377,24.0548227 33.8217048,24.1094872 33.8294751,24.1637344 L33.8294751,24.1637344 Z"
                              id="Path" fill="#000000"></path>
                        <path d="M13.4803298,28.7883909 L13.5161424,28.8625146 C13.774857,28.9234921 13.9987662,29.079491 14.1403062,29.2973737 C14.2568891,29.4928691 14.3512332,29.6999732 14.4216915,29.9150712 C14.4216915,29.9546038 14.4626203,29.9941365 14.4830847,30.0336691 L14.6109871,30.1423838 C14.7248,30.2299174 14.8463474,30.3076337 14.97423,30.3746381 C15.4019619,30.5833148 15.8585662,30.7314339 16.3299956,30.8144387 C17.0437892,30.9411121 17.7683817,31.0023305 18.4941044,30.9972772 C19.8898656,31.027804 21.2788838,30.8014028 22.5869817,30.3301639 C24.3776155,29.5592774 24.0399531,26.2879515 23.825077,24.9685497 L23.7278712,24.9685497 C22.9809211,24.8894844 22.5614012,24.4743917 21.8400316,24.2322543 C21.5939893,24.1414434 21.3429137,24.0639058 21.0879654,24 C21.7487955,24.1824642 22.3818275,24.448307 22.9706889,24.7906528 C23.2469581,26.3126594 23.4311376,29.1244184 22.2493193,29.6334011 C20.4433372,30.4092292 16.299299,30.5080608 15.1123646,29.5592774 C15.068977,29.5239505 15.0279651,29.4859881 14.9895782,29.4456211 C14.7677098,29.2548473 14.570197,29.0391882 14.4012271,28.8032157 C14.1840003,28.486419 14.0215747,28.1376001 13.9203141,27.7704255 C13.8511389,27.5113371 13.8066144,27.2466863 13.7872956,26.9797727 C13.7547008,26.0231273 13.9416424,25.0713652 14.3347179,24.1927216 L13.38824,24.4101511 C13.1983287,24.9600867 13.0713741,25.5284656 13.0096489,26.105113 C13.0121768,26.1462567 13.0121768,26.1875089 13.0096489,26.2286525 C12.9967837,26.4590922 12.9967837,26.6900341 13.0096489,26.9204737 C13.0268956,27.5684013 13.1873767,28.2052775 13.4803298,28.7883909 Z"
                              id="Path" fill="#000000"></path>
                        <path d="M14.2342205,24.3922337 L15.1387345,24.1873795 L15.6569966,24.0695883 L16.2779332,23.921069 C18.0370563,23.5306966 19.85674,23.5516808 21.6072319,23.9825253 C21.8508766,24.048756 22.0908203,24.1291143 22.3259538,24.223229 C23.0153401,24.4997821 23.4162598,24.9043692 24.1300925,24.9863109 L24.2229885,24.9863109 C24.6304537,25.0196338 25.0403728,24.9920433 25.4404155,24.9043692 C25.7061893,24.8410757 25.9675517,24.758945 26.2226978,24.6585441 C27.4694604,24.1464086 28.5744342,23.286021 30.0705492,23.1221376 C30.904459,23.0532023 31.7427712,23.0686377 32.5738528,23.1682298 C32.7889805,23.1682298 32.9992189,23.2245647 33.2094573,23.2604142 C33.5761521,23.3218705 33.942847,23.3986908 34.3046526,23.4908752 C34.6664582,23.5830596 34.8766966,23.6445158 35.1553846,23.7367002 L35.3509552,23.7930351 C36.0501201,24.0286175 36.270137,22.968497 35.5807507,22.7329146 L34.9695926,22.5434245 C34.774022,22.4870896 34.5735621,22.435876 34.3731023,22.3897838 C33.9135114,22.277114 33.444142,22.190051 32.9698833,22.1234734 C32.7596449,22.0927452 32.5494065,22.0722598 32.3391681,22.0517744 C31.5599064,21.9827419 30.776472,21.9827419 29.9972103,22.0517744 C28.7599395,22.1122638 27.5530717,22.4734516 26.4720503,23.1067735 C25.7859843,23.6686066 24.9254563,23.9441286 24.0567535,23.8800982 L23.9589682,23.8800982 C23.8514044,23.8083992 23.7487298,23.7110934 23.6509445,23.6547585 C23.0598604,23.3214017 22.4305823,23.0684122 21.7783561,22.9019193 C20.0263774,22.4858634 18.212502,22.4423258 16.4441682,22.7738855 L15.8232316,22.8814339 C15.2365198,22.9941037 14.6595866,23.1323803 14.0875426,23.2808996 L13.5008308,23.4396616 L13.3688207,23.4755111 C12.7087699,23.6598799 13.0167936,24.6073306 13.6475087,24.4997821 C13.6784211,24.5024662 13.7094924,24.5024662 13.7404048,24.4997821 L14.2342205,24.3922337 Z"
                              id="Path" fill="#000000"></path>
                        <path d="M19.7938002,22.2399875 C18.9563678,21.8672278 17.9438385,21.93265 17.1815852,22.4087695 C17.0086434,22.5008949 16.9495194,22.6920757 17.0466368,22.8451329 C17.1528846,22.995054 17.3802433,23.0445195 17.5575128,22.956282 C17.6275706,22.9090651 17.7016791,22.8664067 17.7792137,22.8286663 L17.9141621,22.7669168 L17.9478992,22.7669168 L17.9816363,22.7669168 C18.0664761,22.7386859 18.1534206,22.7153067 18.2418939,22.696934 L18.3720227,22.6763508 L18.4202185,22.6763508 L18.473234,22.6763508 C18.5647427,22.6722351 18.6564416,22.6722351 18.7479503,22.6763508 L18.8828987,22.6763508 L18.8828987,22.6763508 L18.9359141,22.6763508 C19.0303434,22.692557 19.123662,22.713171 19.2154501,22.7381004 L19.2781047,22.7381004 L19.3118418,22.7381004 L19.3455788,22.7381004 L19.4226922,22.7710334 C19.5376676,22.836663 19.6858285,22.8422452 19.8071227,22.7855174 C19.9284169,22.7287897 20.002723,22.6191624 19.9999236,22.5010695 C19.9971241,22.3829767 19.9176834,22.2760084 19.7938002,22.223521 L19.7938002,22.2399875 Z"
                              id="Path" fill="#000000"></path>
                        <path d="M29.7143606,21.1183168 C28.8081908,20.8626223 27.7882754,21.028891 27.1015783,21.5442581 C26.9661406,21.6492032 26.9661406,21.816773 27.1015783,21.9217182 C27.1676737,21.971836 27.2573955,22 27.3509594,22 C27.4445233,22 27.5342451,21.971836 27.6003406,21.9217182 L27.7101598,21.8455336 C27.7246596,21.8322257 27.7416107,21.8205634 27.7604936,21.8109042 L27.7604936,21.8109042 C27.8417916,21.7636564 27.9274221,21.7208391 28.0167385,21.6827755 C28.0595127,21.6634055 28.1038302,21.6460576 28.1494367,21.6308315 L28.2226495,21.6100539 C28.3167322,21.5851769 28.4130773,21.5655019 28.5109249,21.5511839 L28.62532,21.5338693 L28.7305634,21.5338693 C28.8250044,21.5286544 28.919822,21.5286544 29.014263,21.5338693 L29.1057791,21.5338693 L29.2522047,21.5546469 C29.3495804,21.5720876 29.4445671,21.5964359 29.5359044,21.6273686 C29.6293427,21.6508824 29.7314662,21.6441371 29.8181094,21.6087287 C29.9047526,21.5733204 29.9682167,21.5123953 29.9934844,21.44037 C30.0303894,21.2936246 29.9069154,21.1511602 29.7143606,21.1183168 Z"
                              id="Path" fill="#000000"></path>
                        <path d="M27.181421,27.7496557 C28.0565803,28.1625226 29.1649625,28.0568515 29.8967836,27.4907779 C30.0344055,27.3770772 30.0344055,27.1955269 29.8967836,27.0818261 C29.7549017,26.9727246 29.5318599,26.9727246 29.3899779,27.0818261 C29.3565882,27.1100169 29.3208587,27.1363408 29.2830373,27.160615 L29.2551397,27.160615 L29.2132934,27.1831261 C29.1353544,27.2242399 29.0546362,27.2618167 28.9715145,27.2956817 L28.9343178,27.2956817 L28.8924714,27.2956817 C28.8470654,27.3096842 28.8004435,27.3209702 28.7529836,27.3294483 L28.6134958,27.3594631 L28.5484015,27.3594631 L28.5484015,27.3594631 C28.4570183,27.3632056 28.3654587,27.3632056 28.2740755,27.3594631 L28.1299381,27.3594631 L28.1299381,27.3594631 L28.050895,27.3594631 C27.9607596,27.3433956 27.8721855,27.3220793 27.7858682,27.2956817 L27.7486714,27.2956817 L27.7068251,27.2956817 L27.5673373,27.2319002 C27.4527187,27.1762733 27.310029,27.1742137 27.1930183,27.2264973 C27.0760075,27.2787809 27.0024523,27.3774645 27.0000601,27.4853751 C26.997668,27.5932856 27.0668024,27.6940288 27.181421,27.7496557 L27.181421,27.7496557 Z"
                              id="Path" fill="#000000"></path>
                        <path d="M19.1483622,27.5924168 C19.1623316,27.6620214 19.1894076,27.7262162 19.2272359,27.7794196 C19.2566123,27.8401123 19.2980893,27.8897542 19.3474244,27.9232679 C19.4482784,27.998967 19.5687421,28.0197027 19.6816988,27.9808072 C19.7901141,27.9408951 19.8826933,27.8501109 19.9408553,27.7266752 L19.985926,27.5924168 C20.0046913,27.4963913 20.0046913,27.3959508 19.985926,27.2999253 C19.9408553,27.0026388 19.8995405,26.7101472 19.8544698,26.4128607 C19.8433674,26.342898 19.8173765,26.2781949 19.7793519,26.2258579 C19.7485314,26.1608127 19.7043744,26.1077559 19.6516516,26.0724197 C19.5498778,25.9998611 19.4299264,25.9809342 19.3173773,26.0196753 C19.2082559,26.0577884 19.1152033,26.1490369 19.0582208,26.2738073 L19.016906,26.4032708 C18.9943647,26.5002771 18.9943647,26.603551 19.016906,26.7005573 C19.0619767,27.0026388 19.1070474,27.2999253 19.1483622,27.5924168 Z"
                              id="Path" fill="#000000"></path>
                        <path d="M23.2544553,34.8243881 C24.1065019,35.1061038 25.0289663,35.0472795 25.8415196,34.6594144 C25.988682,34.5614683 26.0417718,34.3643187 25.964923,34.2011541 C25.8782997,34.0231651 25.6707079,33.9498574 25.4977529,34.0361804 C25.1829761,34.1802882 24.8452852,34.2626318 24.5017111,34.2790584 C24.1405232,34.2993441 23.7788564,34.2496178 23.4351531,34.1324151 C23.3162735,34.0988523 23.1892039,34.1337838 23.10181,34.224051 C23.0144162,34.3143182 22.9799754,34.4462075 23.0114611,34.5700375 C23.0429468,34.6938675 23.1355757,34.7908254 23.2544553,34.8243881 Z"
                              id="Path" fill="#000000"></path>
                        <path d="M28.8145695,35.2417565 C28.7735172,35.1962597 28.7268722,35.1549523 28.6754967,35.1185975 C28.6213683,35.0822032 28.562587,35.0515826 28.5003679,35.0273687 L28.397351,35 C26.9402335,36.590686 24.6918991,37.4437541 22.3863135,37.2807212 C21.8712288,37.2442297 21.8712288,37.9466919 22.3863135,37.9831834 C24.9275879,38.1402071 27.3957583,37.1903289 29,35.4378985 C28.956482,35.4109215 28.9211078,35.3748962 28.8969831,35.3329853 C28.8729162,35.3002818 28.8453151,35.2697284 28.8145695,35.2417565 Z"
                              id="Path" fill="#000000"></path>
                        <path d="M28.4123446,35.0032325 C28.3047737,35.0049615 28.2018704,35.0337801 28.1231679,35.084218 C28.044733,35.1378331 28.000438,35.2106454 28,35.2866816 C28.0056365,35.4415929 28.186989,35.5662561 28.4123446,35.5701307 C28.4782831,35.5664569 28.5445458,35.5664569 28.6104843,35.5701307 L28.7122316,35.5701307 L28.8193341,35.5922176 C28.8840208,35.6117587 28.9451333,35.63647 29.0014084,35.6658408 C29.0548214,35.6951797 29.1033163,35.7285154 29.1459968,35.765232 C29.1794999,35.7935964 29.2082422,35.8244678 29.2316788,35.8572609 C29.2567603,35.8910837 29.2935374,35.9201567 29.3387813,35.9419275 C29.3817401,35.9622396 29.4286002,35.9783456 29.4780145,35.9897826 C29.6396147,36.0204222 29.8121151,35.9807616 29.9143805,35.8894549 C30.0166458,35.7981482 30.0283194,35.6733709 29.9439104,35.5738119 C29.6407288,35.1933452 29.041583,34.9701356 28.4123446,35.0032325 Z"
                              id="Path" fill="#000000"></path>
                        <path d="M26.9034199,39.1359257 C26.7662331,38.9546914 26.5537256,38.9546914 26.4165388,39.1359257 C26.1362922,39.465516 25.8129684,39.7133259 25.4651104,39.8651434 L25.1926356,39.9665997 L25.0452312,40.0046459 L24.9469616,40.0046459 C24.7464576,40.0331672 24.5444475,40.0331672 24.3439436,40.0046459 C24.1549949,40.0080632 24.0024073,40.224675 24,40.4929046 C24.0047015,40.7597491 24.1559707,40.9744892 24.3439436,40.9811634 C25.2729264,41.0968444 26.1955572,40.6762592 26.9034199,39.8144152 C27.0321934,39.625192 27.0321934,39.325149 26.9034199,39.1359257 Z"
                              id="Path" fill="#000000"></path>
                        <path d="M33.0904012,8.62670123 C34.2657725,10.0003717 34.0719394,12.2061222 34.1214287,14.003218 C34.1956627,16.5437699 34.2905172,19.0892454 34.3729994,21.6297973 C34.3714564,21.7891728 34.4591981,21.9301825 34.5874531,21.9744458 C34.6816787,22.0192907 34.7884857,22.0044728 34.8715862,21.9350264 C34.9546866,21.86558 35.0029069,21.7508429 34.9998641,21.6297973 C34.9132578,18.9267682 34.7854104,16.2138921 34.7400452,13.5207101 C34.7070523,11.6399139 34.7400452,9.50801672 33.531681,8.10480492 C33.4654071,8.02685378 33.372969,7.98925048 33.2806156,8.00267291 C33.1882622,8.01609535 33.106081,8.07907741 33.0574083,8.17373462 C32.9696783,8.31255131 32.9839177,8.50804636 33.0904012,8.62670123 Z"
                              id="Path" fill="#4EB3E3"></path>
                        <path d="M31.002032,20.3158453 C31.0645542,20.7625695 31.1322865,21.2092938 31.1948087,21.656018 C31.2000796,21.7460774 31.2425586,21.8315893 31.3146429,21.8972491 C31.3878981,21.9632863 31.4897004,22.0004637 31.5959928,22 C31.7939797,22 32.0284379,21.8481094 31.9971768,21.656018 C31.9346547,21.2092938 31.8669223,20.7625695 31.8044001,20.3158453 C31.7980904,20.2316624 31.759641,20.1516002 31.6949863,20.088016 L31.6949863,20.088016 C31.6444558,20.0434859 31.5788103,20.01378 31.5074197,20.0031384 C31.4763491,19.9989539 31.444707,19.9989539 31.4136364,20.0031384 C31.2052291,19.9808022 30.9759811,20.1237539 31.002032,20.3158453 Z"
                              id="Path" fill="#4EB3E3"></path>
                        <path d="M26.1222487,44.3438617 C25.7587269,44.6745701 26.2870453,45.2291428 26.6505672,44.8984343 C28.6753486,42.9816813 30.3392224,40.6828517 31.5556886,38.121455 C32.1906401,36.8596751 32.8158977,35.5775439 33.3393692,34.2547101 C33.8628407,32.9318763 34.2360564,31.6090425 33.824065,30.2709452 C33.6738093,29.7926899 32.9516125,30.0012907 33.1067152,30.479546 C33.5284006,31.8278189 32.9806943,33.2524091 32.4475289,34.4785743 C31.9143635,35.7047394 31.3424225,36.9105533 30.7365527,38.0909281 C29.5748917,40.4533771 28.0110103,42.5726234 26.1222487,44.3438617 L26.1222487,44.3438617 Z"
                              id="Path" fill="#4EB3E3"></path>
                        <path d="M24.8150747,26.0198702 C24.6833861,25.9860115 24.5394571,25.9957244 24.4173454,26.0467105 C24.2952337,26.0976967 24.2057897,26.1854257 24.1701783,26.2891383 C23.7781952,28.4592033 24.0657066,30.6703189 25.0085436,32.7366145 C25.2213594,33.2003541 26.182255,33.0008962 25.9694392,32.5321702 C25.1244558,30.6871516 24.8355067,28.7173009 25.1246249,26.7728237 C25.1246249,26.6780812 25.1246249,26.5833387 25.1633187,26.4935827 C25.1823506,26.3829482 25.1528301,26.2705753 25.0794822,26.17445 C25.0203828,26.0985162 24.9256685,26.0431437 24.8150747,26.0198702 L24.8150747,26.0198702 Z"
                              id="Path" fill="#4EB3E3"></path>
                        <path d="M27.9231223,44.1291007 C27.8810435,44.0731925 27.8306744,44.0333735 27.776262,44.0130013 C27.7125334,43.9861744 27.64426,44.0012659 27.5883057,44.0545482 C27.5323513,44.1078304 27.4939334,44.1943351 27.4825412,44.2926954 C27.4825412,44.3665769 27.4825412,44.4457356 27.4545678,44.519617 C27.2472054,45.9989517 27.0954405,47.4948008 27,49 L27,49 L27.4265944,48.9261185 L27.5314947,48.9261185 C27.6269403,47.4488411 27.7787145,45.9810923 27.9860625,44.5301715 C28.0182177,44.3893593 27.9937097,44.233188 27.9231223,44.1291007 L27.9231223,44.1291007 Z"
                              id="Path" fill="#4EB3E3"></path>
                        <path d="M29.5807944,46.013925 C29.4098058,45.9748183 29.2240047,46.0199061 29.1178775,46.1262595 C28.9933277,46.23701 28.9649796,46.3903693 29.0447854,46.5216772 C29.1062492,46.6012944 29.2100511,46.6583187 29.3310629,46.6789456 C29.9401641,46.7912801 30.0254382,47.4113669 30.0802573,47.788811 C30.0802573,47.8562118 30.0802573,47.9281059 30.0802573,48 L30.3178067,47.9640529 L30.5614472,47.9236125 L31,47.847225 C31,47.7303971 30.9634539,47.6180625 30.9390899,47.5012346 C30.8477247,46.8856412 30.4883551,46.1891669 29.5807944,46.013925 Z"
                              id="Path" fill="#4EB3E3"></path>
                        <path d="M18.7813202,44.0594151 C18.661592,43.980195 18.5079,43.980195 18.3881718,44.0594151 C18.3126673,44.1098097 18.2632991,44.1925423 18.2538047,44.2845914 C18.0994415,45.4380919 18.0146778,46.6003145 18,47.7645884 L18.7564374,48 C18.7586863,46.8272539 18.8384954,45.6560228 18.9953124,44.4944147 C19.0215913,44.3173065 18.9356343,44.1425746 18.7813202,44.0594151 Z"
                              id="Path" fill="#4EB3E3"></path>
                        <path d="M34.5552224,30.8569518 C34.6565707,30.6451332 34.7700809,30.4156631 34.8876449,30.2347347 L35.070072,29.9390712 L35.1146652,29.8728779 L35.1146652,29.8728779 C35.1452731,29.8300962 35.1791789,29.7902356 35.2160136,29.75373 L35.2443911,29.7228398 L35.2443911,29.7228398 C35.2082454,29.7942513 35.1995021,29.8783226 35.2200675,29.9567228 C35.2424534,30.048506 35.2986796,30.1261441 35.3754412,30.1712656 C35.4522028,30.2163872 35.5426791,30.2249829 35.6254609,30.1950187 C35.8628635,30.1137163 36.0174362,29.8649852 35.9984228,29.594866 C35.9841171,29.3057573 35.7897185,29.064958 35.5281665,29.0123649 C35.3026351,28.9708416 35.0714834,29.0349483 34.8916989,29.1888804 L34.8187281,29.2462479 C34.7023566,29.3657436 34.6002113,29.5006539 34.514683,29.6478207 L34.4092808,29.8199233 C34.3525257,29.9125939 34.3038785,30.0140903 34.2511773,30.1111739 C34.1984762,30.2082574 34.1011818,30.3759471 34.0322649,30.5171595 C33.9615771,30.6742814 34.0104106,30.8641295 34.1457751,30.9584482 C34.2131001,30.9964179 34.290141,31.008842 34.3646875,30.9937513 C34.4431786,30.9797152 34.512468,30.9299671 34.5552224,30.8569518 Z"
                              id="Shape" fill="#000000"></path>
                        <path d="M14.4232076,29.4337999 C14.2901879,29.2174846 14.0797577,29.0626078 13.8366172,29.0020691 L13.8077685,29.0020691 C13.7709558,28.9993103 13.7339945,28.9993103 13.6971818,29.0020691 C13.398341,28.9857726 13.1253121,29.1741709 13.0288534,29.4632361 C12.9903822,29.5894464 12.9903822,29.7246022 13.0288534,29.8508125 C13.06819,30.0006475 13.1629994,30.1290481 13.2932999,30.2089529 C13.463077,30.2978256 13.6712439,30.240476 13.7741117,30.07649 C13.8019031,30.021892 13.8167262,29.9613922 13.8173847,29.8998729 L13.8173847,29.8998729 C13.8346669,29.9294774 13.8491562,29.9606889 13.8606578,29.9930875 C13.9279714,30.1549865 13.9760526,30.3266976 14.0529825,30.4836906 C14.0529825,30.4836906 14.0818312,30.5229389 14.0914474,30.542563 C14.1793141,30.7046637 14.3007283,30.8452918 14.4472482,30.9546696 C14.4969144,30.9839793 14.5533509,30.9992226 14.6107242,30.9988239 C14.7504957,31.0100835 14.884509,30.9398131 14.9569086,30.8173008 C15.0433142,30.648271 14.9964184,30.4402242 14.8463219,30.3266976 L14.8463219,30.3266976 L14.807857,30.2531071 L14.769392,30.2531071 L14.769392,30.2531071 C14.769392,30.2531071 14.769392,30.2089529 14.7357352,30.1844227 C14.7020784,30.1598925 14.6924622,30.1059262 14.6780378,30.0666779 C14.6161988,29.8467854 14.5307368,29.6345382 14.4232076,29.4337999 L14.4232076,29.4337999 Z"
                              id="Shape" fill="#000000"></path>
                        <path d="M34.0173333,24.4138006 C34.322117,25.4601645 34.4345176,26.5630097 34.3479601,27.6578224 C34.3428037,27.7516792 34.3787897,27.8425704 34.4447289,27.902235 C34.5023247,27.963193 34.5785935,27.9980854 34.6584266,28 L34.6584266,28 C34.8296761,27.9976708 34.9686025,27.8465175 34.9729253,27.6578224 C35.0592478,26.5070112 34.9386715,25.3487372 34.6181063,24.2493776 C34.6030746,24.1982936 34.5783323,24.1513294 34.5455297,24.1116178 C34.339896,23.8672052 33.9084684,24.0494037 34.0173333,24.4138006 Z"
                              id="Path" fill="#4EB3E3"></path>
                        <path d="M25,0 C11.1928813,0 0,11.1928813 0,25 C0,38.8071187 11.1928813,50 25,50 C38.8071187,50 50,38.8071187 50,25 C49.9863554,11.198537 38.801463,0.0136445607 25,0 L25,0 Z M47.470297,18.049505 C48.1626144,20.2946144 48.5148515,22.6307683 48.5148515,24.980198 L48.5148515,24.980198 C48.5148515,25.3564356 48.5148515,25.7277228 48.4851485,26.0990099 C48.4851485,26.2178218 48.4851485,26.3366337 48.4851485,26.4554455 C48.4851485,26.7079208 48.450495,26.950495 48.4257426,27.2128713 L48.3811881,27.6237624 C48.3580858,27.8547855 48.3283828,28.0874587 48.2920792,28.3217822 L48.2326733,28.7326733 C48.1930693,28.970297 48.1485149,29.2277228 48.1039604,29.4405941 C48.1039604,29.5643564 48.0594059,29.6881188 48.0346535,29.8168317 C47.970297,30.1089109 47.9059406,30.4009901 47.8316832,30.6881188 L47.7871287,30.8712871 C47.6980198,31.2128713 47.6039604,31.5544554 47.5,31.8910891 L47.3811881,32.2475248 C47.3118812,32.4653465 47.2376238,32.6881188 47.1584158,32.9009901 C47.1089109,33.039604 47.0594059,33.1782178 47.0049505,33.3168317 C46.950495,33.4554455 46.8564356,33.7079208 46.7772277,33.9009901 L46.5990099,34.3217822 L46.3465347,34.8811881 L46.1534653,35.2920792 C46.0544554,35.490099 45.950495,35.6881188 45.8465347,35.8861386 C45.7871287,36 45.7326733,36.1188119 45.6683168,36.2326733 C45.509901,36.519802 45.3465347,36.8069307 45.1732673,37.0940594 L44.9207921,37.4950495 C44.8217822,37.6534653 44.7178218,37.8118812 44.6138614,37.990099 C44.509901,38.1683168 44.4207921,38.2772277 44.3168317,38.4207921 C44.2128713,38.5643564 44.1237624,38.7029703 44.0247525,38.8366337 L43.6980198,39.2772277 L43.3960396,39.6584158 L43.0445545,40.0940594 L42.7475248,40.4306931 C42.2689769,40.9818482 41.7739274,41.509901 41.2623762,42.0148515 L41.0049505,42.2574257 C40.8465347,42.4059406 40.6831683,42.549505 40.509901,42.6930693 L40.2277228,42.9356436 L39.7326733,43.3514851 L39.4554455,43.5693069 C39.2772277,43.7079208 39.0990099,43.8465347 38.9158416,43.980198 L38.6881188,44.1435644 C38.0001651,44.6313092 37.2880386,45.08403 36.5544554,45.5 L36.4455446,45.5594059 C36.2227723,45.6831683 36,45.8019802 35.7722772,45.9158416 L35.5346535,46.039604 L34.8712871,46.3564356 L34.6188119,46.470297 C34.3861386,46.5742574 34.1584158,46.6732673 33.9257426,46.7673267 L33.7227723,46.8465347 C32.8740044,47.1855667 32.006196,47.4748362 31.1237624,47.7128713 L31.1237624,47.7128713 L30.519802,47.8564356 L30.4752475,47.8564356 L30.1188119,47.9405941 L29.9207921,47.9851485 L29.7277228,48.0247525 C29.4158416,48.0841584 29.1089109,48.1485149 28.7970297,48.1980198 L28.6435644,48.1980198 L28.6435644,48.1980198 C28.4554455,48.2277228 28.2623762,48.2475248 28.0742574,48.2722772 L27.9257426,48.2722772 L27.3217822,48.3415842 L27.3217822,48.3415842 C26.950495,48.3762376 26.5792079,48.4059406 26.2029703,48.4257426 C25.8267327,48.4455446 25.4455446,48.4554455 25.0643564,48.4554455 C23.4723969,48.452455 21.8849213,48.2865746 20.3267327,47.960396 C19.970297,47.8910891 19.6188119,47.8069307 19.2722772,47.7178218 L19.1881188,47.7178218 L18.6930693,47.5742574 L18.5247525,47.5247525 L17.6930693,47.3316832 C17.3811881,47.2277228 17.0742574,47.1237624 16.7673267,47.009901 L16.1930693,46.7821782 L15.8465347,46.6435644 C15.144897,46.3496325 14.4591388,46.0191467 13.7920792,45.6534653 C13.1237624,45.2920792 12.480198,44.9009901 11.8514851,44.480198 C11.539604,44.2673267 11.2326733,44.049505 10.9306931,43.8217822 C4.50421569,39.022318 0.966651919,31.278732 1.5458781,23.2787967 C2.12510429,15.2788613 6.74125468,8.12563577 13.7920792,4.3019802 C14.4554455,3.94059406 15.1435644,3.60891089 15.8465347,3.31188119 C16.9103658,2.86262398 18.0057129,2.49199292 19.1237624,2.2029703 C19.5,2.10891089 19.8762376,2.01980198 20.2623762,1.94059406 C21.8209443,1.61684604 23.4081717,1.45099156 25,1.44552032 C29.9592156,1.43840879 34.7924249,3.00729487 38.8019802,5.92574257 C38.9554455,6.03960396 39.1089109,6.14851485 39.2574257,6.26732673 C39.7524752,6.64356436 40.2326733,7.03960396 40.6980198,7.45544554 L40.8465347,7.58910891 C41.1435644,7.85643564 41.4306931,8.13366337 41.7128713,8.41584158 C43.8206024,10.5534599 45.5008461,13.0738253 46.6633663,15.8415842 C46.9851485,16.6039604 47.2425743,17.3168317 47.470297,18.049505 Z"
                              id="Shape" fill="#000000"></path>
                    </g>
                </g>
            </g>
        </g>
    </g>
</svg>
