<svg id="Calque_1" data-name="Calque 1" xmlns="http://www.w3.org/2000/svg"
     viewBox="0 0 41 41">
    <defs>
        <style>
            .cls-1{fill:none;}.cls-2{fill:#fff;}.cls-3{clip-path:url(#clip-path);}.cls-4{fill:#ffe8f7;}.cls-5{fill:#704f45;}.cls-6{fill:#595959;}.cls-7{fill:#8f8f8f;}.cls-8{fill:#70cfed;}.cls-9{fill:#ffd100;}.cls-10{fill:#4a4a4a;}.cls-11{fill:#2b2b2b;}.cls-12{fill:#262926;}.cls-13{fill:#664540;}.cls-14{fill:#61332e;}.cls-15{fill:#fab530;}.cls-16{fill:#fff5b8;}.cls-17{fill:#bf6124;}.cls-18{fill:#f27830;}.cls-19{fill:#5c7394;}.cls-20{fill:#fcd130;}.cls-21{fill:#d6d6d6;}
        </style>
        <clipPath id="clip-path">
            <path class="cls-1" d="M0,19.37v2.26a20.5,20.5,0,1,0,0-2.26"/>
        </clipPath>
    </defs>
    <title>Menu_Offres Mobile ok-01</title>
    <rect class="cls-2" width="41" height="41"/>
    <g class="cls-3">
        <rect class="cls-4" x="-10.87" y="-5.13" width="62.83" height="65.6"/>
    </g>
    <g class="cls-3">
        <path class="cls-5" d="M15.48,9.43a4.09,4.09,0,0,1-.41-.31s-.2.2,0,.31Z"/>
    </g>
    <g class="cls-3">
        <path class="cls-5" d="M15.07,9.53a4.09,4.09,0,0,1-.41-.31s-.2.2,0,.31Z"/>
    </g>
    <g class="cls-3">
        <path class="cls-5" d="M14.76,9.63a4.09,4.09,0,0,1-.41-.31s-.2.2,0,.31Z"/>
    </g>
    <g class="cls-3">
        <path class="cls-6"
              d="M12.81,12.1l4-.62c.21,0,.31-.2.31-.41l-.41-1.54a.56.56,0,0,0-.51-.31l-3.9.72c-.2,0-.31.2-.31.41l.41,1.43c0,.21.21.41.41.31"/>
    </g>
    <g class="cls-3">
        <path class="cls-7"
              d="M12.81,12.3l4-.62c.21,0,.31-.2.31-.41l-.41-1.54c0-.2-.21-.31-.41-.31l-4,.72c-.2,0-.31.2-.31.41L12.4,12c0,.21.21.31.41.31"/>
    </g>
    <g class="cls-3">
        <path class="cls-8"
              d="M13,12.2l3.59-.62c.21,0,.31-.2.21-.41l-.3-1.43c0-.2-.2-.31-.41-.2l-3.59.72c-.2,0-.31.2-.2.41L12.71,12c0,.1.1.2.31.2"/>
    </g>
    <g class="cls-3">
        <path class="cls-5"
              d="M11.17,14.45c.2.1.51.2.72.31a3.42,3.42,0,0,1,1.33-1.13c.72-.41,1.64-.41,1.74-.82s.2-.92.31-1.33.31-1.13-.1-.62a2.7,2.7,0,0,0-.51.92l-1.74.41s-.72.62-.62.92a12.13,12.13,0,0,1-1.13,1.33"/>
    </g>
    <g class="cls-3">
        <polygon class="cls-5" points="14.96 12.71 15.79 11.79 15.07 11.89 14.96 12.71"/>
    </g>
    <g class="cls-3">
        <path class="cls-5"
              d="M11.79,15a15.1,15.1,0,0,0,1.74-1.64L12.3,13c-.62.41-1.23.82-1.74,1.23.51.21.61.51,1.23.72"/>
    </g>
    <g class="cls-3">
        <path class="cls-9"
              d="M13.12,14c0-.62-.82-.82-1.23-.92a.77.77,0,0,0-1,.46v0a.16.16,0,0,0,.31,0c0-.41.62-.2.82-.1s.72.2.72.62c.1.1.51.1.41-.1"/>
    </g>
    <g class="cls-3">
        <path class="cls-9"
              d="M12.5,14.76c.2-.1.51-.31.31-.62a1.36,1.36,0,0,0-.82-.51c-.31-.1-1.74-.31-1.43.51.1.2.41.1.31-.1s2.36.1,1.54.51c-.21,0-.1.31.1.21"/>
    </g>
    <g class="cls-3">
        <path d="M25.63,28.91l3.17,16.8-3.48-.21L22.86,35.16c-.1-.21,0-.21,0,0l.92,10.25a9.78,9.78,0,0,1-3-.41c-.72-.31-1.64-11.79-2-15.27-.1-.62.62-2.36,1.23-2.46,1.64-.2,4.51.31,5.64,1.64"/>
    </g>
    <g class="cls-3">
        <path class="cls-2"
              d="M23,40.28c-1.64-.21-4.41-.21-4.51-1.44-.1-.72-.41-11.48.92-15.48.1-.21-2.56,0-2.46-1.13,0,0-.31-4.82,3.79-5.53h2.87l2.87.82,2.36,1.23c1.54,1.23-.51,4.2-.51,4.2s-1.54,9.33-.41,16C28,40.08,23,40.28,23,40.28"/>
    </g>
    <g class="cls-3">
        <path d="M23.47,16.61a1.45,1.45,0,0,0-.1.92,3.07,3.07,0,0,0,.41,1,4.18,4.18,0,0,1,.51,1.84,12.56,12.56,0,0,1-.21,2,24,24,0,0,0-.92,3.89,5.79,5.79,0,0,1,1.33,0,6.61,6.61,0,0,1,.31-2A15.91,15.91,0,0,1,25.21,22a6.87,6.87,0,0,1,.72-1.84,8.23,8.23,0,0,0,1.33-2.46l-.72-.41-3.07-.72Z"/>
    </g>
    <g class="cls-3">
        <path d="M27,32.9a.45.45,0,1,1,.46-.44.46.46,0,0,1-.46.44h0m-1.43.41a.46.46,0,0,1,0-.92h0c.62-.1.62.92,0,.92m-1.33.21a.46.46,0,0,1,0-.92h0c.62-.1.62.92,0,.92m-1.54-.1a.46.46,0,0,1,0-.92h0c.62-.1.62.92,0,.92m-1.43-.2a.46.46,0,1,1,0-.92h0a.46.46,0,0,1,0,.92M20,32.7a.46.46,0,1,1,.46-.46.46.46,0,0,1-.46.46m-1.13-.62a.46.46,0,1,1,.46-.46.46.46,0,0,1-.46.46m8-.41a12.24,12.24,0,0,1-4.72.31,10.81,10.81,0,0,1-2.46-.62,5.81,5.81,0,0,1-1.33-.82,7.76,7.76,0,0,1-.1,1.54,4.93,4.93,0,0,0,1.64,1.23,10.71,10.71,0,0,0,4.41.61,14.86,14.86,0,0,0,3.07-.61V31.67a.46.46,0,0,0-.51,0"/>
    </g>
    <g class="cls-3">
        <path d="M20.19,31.06a10.09,10.09,0,0,0,4.61.62,11.23,11.23,0,0,0,2.67-.62v-.72a8.68,8.68,0,0,1-1.74.41,11.09,11.09,0,0,1-4.51-.21,6.76,6.76,0,0,1-2.77-1.23v.62a7.3,7.3,0,0,0,1.74,1.13"/>
    </g>
    <g class="cls-3">
        <path class="cls-9"
              d="M27.57,37.31a.36.36,0,0,0-.21.1c-.62.92-3.28,1.23-5,1.13a8,8,0,0,1-4-1,3.22,3.22,0,0,0,.1,1.23c.1,1.33,3,1.23,4.51,1.44,0,0,5-.21,4.92-1.23-.1-.51-.21-1-.31-1.64"/>
    </g>
    <g class="cls-3">
        <path class="cls-2"
              d="M28.49,18.76s2.56.72,3.89,4.31c.21.51,3.28,5.74,1.23,8.51-3,3.89-5.64-2.26-6-3.48l-.72-5.23Z"/>
    </g>
    <g class="cls-3">
        <path class="cls-5"
              d="M28.19,22.55h0a4.2,4.2,0,0,1,.1-1.13c.1-.21-.51-.51-.51-.82s-.62.21-.1.62c.21.21,0,.72,0,.72s.41.82.51.61"/>
    </g>
    <g class="cls-3">
        <path class="cls-5"
              d="M24.09,22s-.51.31-.41.31A6.16,6.16,0,0,0,24.6,21c0-.21.62-.31.72-.62s.41.51-.21.62a.32.32,0,0,0-.21.4h0s-.82.82-.82.62"/>
    </g>
    <g class="cls-3">
        <path class="cls-10"
              d="M26.24,18.55l1.64.72c.1.1.21.21.21.31l-1,4.2a.42.42,0,0,1-.51.21L25,23.17a.53.53,0,0,1-.21-.41l.82-3.89c.1-.21.41-.41.62-.31"/>
    </g>
    <g class="cls-3">
        <path class="cls-11"
              d="M26.14,18.66l1.64.72c.1.1.21.21.21.31l-1,3.89c-.1.31-.1.51-.31.41l-1.74-.72a.53.53,0,0,1-.21-.41l.9-3.86a.39.39,0,0,1,.44-.33l.07,0"/>
    </g>
    <g class="cls-3">
        <path class="cls-5"
              d="M28.39,24.29a12.3,12.3,0,0,0-.31-2c-.1-.21-.1-.31-.21-.41a.38.38,0,0,1-.1-.31,2.47,2.47,0,0,0-.62-.82,2.72,2.72,0,0,1-.51-.62.1.1,0,0,0-.1-.1h-.21a.46.46,0,0,0,0,.51c.1.1.1.31.21.41s.21.21.21.31a1.37,1.37,0,0,0,.31.51c.21.21.41.31.62.51a4.35,4.35,0,0,0-1.33-1c-.21-.1-.41,0-.62,0s-.31.1-.41.1H25v.1h0a.22.22,0,0,0,.21.21,2.1,2.1,0,0,0,1.13,0l.92.92A5.66,5.66,0,0,0,26,22c-.31-.1-.41.1-.62.31s-.21.31-.41.41h0c0,.1.1.1.21.1a.38.38,0,0,0,.31-.1l.31-.31.92.62a.92.92,0,0,1-.51-.1c-.21,0-.72-.1-.82.1s0,.41,0,.62v.1c0,.1.1.1.21.1s.1,0,.21-.1a.31.31,0,0,0,0-.41,2.61,2.61,0,0,1,.72.21c.82,2,1.33,1.74,1.33,1.74a1.21,1.21,0,0,0,.51-1"/>
    </g>
    <g class="cls-3">
        <path class="cls-5"
              d="M25.63,21.53h0m.31,2.26a.1.1,0,0,0,.1.1h0c.1,0,.1,0,.21-.1v-.1c0-.21.21-.41.1-.62s-.62-.21-.82-.31H25l1-.41c.1.1.1.31.31.41a.32.32,0,0,0,.21.1.38.38,0,0,0,.31-.1h0c-.1-.1-.21-.31-.31-.41v-.1H27a.38.38,0,0,0,.31-.1h0V22a.38.38,0,0,0-.31-.1.53.53,0,0,1-.41-.21h.21c.21,0,.31,0,.41-.1h0v-.1a.38.38,0,0,0-.31-.1c-.41-.1-.62-.41-1-.31a1.64,1.64,0,0,0-.62.31h0a6.58,6.58,0,0,0-1.33,1l-.1.1c-.21.51-.41,1-.62,1.43a1.3,1.3,0,0,0,.1.62,2.11,2.11,0,0,0,1.13,0c.41-.1.62-.51.92-.82h.1l.1-.1c.1-.1.72-.1.72-.1-.41-.1-.41.1-.31.21"/>
    </g>
    <g class="cls-3">
        <path class="cls-10"
              d="M25.93,18.86h0a.1.1,0,0,0-.1.1h0v.1h.1V19c.1,0,0,0,0-.1Zm-.2.1a.1.1,0,0,1,.1-.1h.1c.1,0,.1.1.1.21a.1.1,0,0,1-.1.1h-.1a.36.36,0,0,1-.1-.21"/>
    </g>
    <g class="cls-3">
        <path class="cls-12"
              d="M26.34,20.09a.36.36,0,0,0-.1.21c0,.41.31.62.51.92h0c.1.1.21.1.21.21-.1-.1-.1-.21-.21-.31s-.21-.21-.21-.31a.53.53,0,0,1-.21-.41v-.31"/>
    </g>
    <g class="cls-3">
        <path class="cls-13"
              d="M26.44,20.09h0c-.1.1,0,.21,0,.31a.74.74,0,0,0,.21.41c.11.1.21.21.21.31s.1.21.21.31l-.21-.21h0c.1.1.21.1.31.21s.31.21.41.31c-.2-.51-.82-1-1.13-1.64h0"/>
    </g>
    <g class="cls-3">
        <path d="M30.34,11.89a.89.89,0,0,0,.62-.31l-.21-.1c.31-.1.31-.62,0-.82.21-.1.31-.31.41-.41s-.21-.41-.31-.31a1.46,1.46,0,0,0,.21-.62.62.62,0,0,0-.1-.41c-.1-.1-.31-.1-.31,0a.8.8,0,0,0-.21-.82,1.16,1.16,0,0,0-.82-.31c.1-.2-.21-.41-.41-.41a.68.68,0,0,0-.51.41.56.56,0,0,0-.31-.51.68.68,0,0,0-.62.1c0-.2-.41-.31-.62-.2a.94.94,0,0,0-.41.61.47.47,0,0,0-.51,0c-.21.1-.21.31-.21.51a.63.63,0,0,0-.62.1c-.1.2-.21.41,0,.62-.21,0-.41.1-.41.31a.45.45,0,0,0,.1.51.46.46,0,0,0-.41.31.37.37,0,0,0,.17.49l0,0c-.21,0-.31.2-.31.41s.21.31.31.41c-.21-.1-.41.1-.41.41a.44.44,0,0,0,.41.41.55.55,0,0,0,.12.77l.09.05a1.35,1.35,0,0,0,1-.31c1-.51,2.36-.31,3.38-.62"/>
    </g>
    <g class="cls-3">
        <path class="cls-14"
              d="M23.27,15.89a1.24,1.24,0,0,0,.51-.51,7.44,7.44,0,0,0,.51-.92A26.21,26.21,0,0,0,25.42,12c0,.51.21,1.33.21,1.85a1.93,1.93,0,0,0,.62,1.54c.21.1.41.1.62.2s.72.41.82.31a19.63,19.63,0,0,0-1.13,2.87s-.51.21-1.74-.41a3.57,3.57,0,0,1-1.33-1.13,1.27,1.27,0,0,1-.41-.82c-.21-.31-.1-.41.2-.51"/>
    </g>
    <g class="cls-3">
        <path class="cls-5"
              d="M27.57,10.25h0c.92,0,2.67.62,2.87,1.54v.31a3.63,3.63,0,0,1-.31,1.13,7.91,7.91,0,0,1-.82,1.95c-.41.62-1.23,1.74-2,1.74s-1.54-1.13-1.84-1.74c-.62-1.74-.41-4.92,2.15-4.92"/>
    </g>
    <g class="cls-3">
        <path d="M27.37,12.2c.21.1.31.2.51.2-.21.2-.41.41-.62.2l-.51-.51-.1-.1c.21-.2.51.1.72.2"/>
    </g>
    <g class="cls-3">
        <path d="M29.62,13.33c.21.1.41.1.31.41,0,0-.51-.1-.62-.1s-.1,0-.21-.1-.1-.2-.1-.41c.1,0,.51.21.62.21"/>
    </g>
    <g class="cls-3">
        <path class="cls-14"
              d="M28.08,13.43c0,.31-.1.51-.1.82a.38.38,0,0,0,.1.31.38.38,0,0,1,.1.31c0,.51-.72.2-.82-.2s.31-1.44.72-1.23"/>
    </g>
    <g class="cls-3">
        <path class="cls-14" d="M26.44,14.55c.1-.1.21-.1,0,0v.31c-.1.1-.1,0-.1,0Z"/>
    </g>
    <g class="cls-3">
        <path class="cls-15"
              d="M23.27,15.89c-.1,0,.1.82.1.82a2,2,0,0,0,1,1c.31.1.51.21.82.31A2.21,2.21,0,0,0,26,18a4.46,4.46,0,0,0,.72-.41c.1.1.21.31.31.41-.1.1-.1.21-.21.21a.94.94,0,0,1-.62.41,2,2,0,0,1-1.54,0,3.14,3.14,0,0,1-2.15-2c0-.2-.21-.72-.1-.82.31,0,.72.1.82.1"/>
    </g>
    <g class="cls-3">
        <path d="M27.16,7.69c.1-.2.41-.82.72-.51a.78.78,0,0,0-.21.41c0-.1.72-.2.72-.2.31,0,1.64.2,1.64.72a.53.53,0,0,0-.41.21c.31-.31,1.33,1,1.23,1.33h-.31c0,.1.21.31.21.41A2.21,2.21,0,0,1,31,11.17c-.1.41-.41.41-.72.31A3.16,3.16,0,0,1,29,11.17a1.46,1.46,0,0,0-.62-.2c-.21,0-.31.1-.51,0-.51-.31-.51-1-.51-1.54s-.41-1.13-.1-1.74"/>
    </g>
    <g class="cls-3">
        <path d="M26.24,8.2c.21-.1.62-.31.82-.2.41.2.31,1.13.31,1.43s.1.62.1.92-.1.41-.51.51c-.72.1-1.13.82-1.33,1.43-.31,0-.31-.72-.31-.92,0-.41-.31-.92-.31-1.43A3.06,3.06,0,0,1,26.24,8.2"/>
    </g>
    <g class="cls-3">
        <path class="cls-5" d="M25.22,11.07c.72-.2.41,1.33.1,1.54-.1.1-.41-.62-.41-.72s-.1-.72.31-.82"/>
    </g>
    <g class="cls-3">
        <path d="M26.86,12.81a.19.19,0,0,1,0,.26l0,0c-.1.2-.21.2-.31.1a.19.19,0,0,1,0-.26l0,0c0-.1.21-.1.31-.1"/>
    </g>
    <g class="cls-3">
        <path d="M29,14.25a.38.38,0,0,1,.1.31.38.38,0,0,1-.31.1c-.1-.1-.21-.2-.1-.31s.21-.2.31-.1"/>
    </g>
    <g class="cls-3">
        <path d="M26.24,12.4a2,2,0,0,1,1.13.92v.1h-.1a2.33,2.33,0,0,0-.92-.82c-.21-.1-.21-.1-.1-.2h0"/>
    </g>
    <g class="cls-3">
        <path d="M28.8,14c.1,0,.1,0,.21.1l.31.31h0v.1h-.1c-.1-.1-.21-.2-.31-.2a.1.1,0,0,1-.1-.1h0s-.21-.1-.21-.2.1-.1.21,0"/>
    </g>
    <g class="cls-3">
        <path class="cls-14" d="M25.22,11.48v.41H25c0-.2,0-.41.21-.41"/>
    </g>
    <g class="cls-3">
        <path class="cls-14" d="M28.19,15.58c.1-.1.1,0,0,0v.2c0,.1-.1,0-.1,0Z"/>
    </g>
    <g class="cls-3">
        <path class="cls-16"
              d="M26.24,18.14a.22.22,0,0,1,.21.21h0a.19.19,0,0,1,0,.26l0,0c-.1.1-.31.1-.31,0s-.21-.21-.21-.31.2-.21.31-.21"/>
    </g>
    <g class="cls-3">
        <path class="cls-16" d="M25.22,18.14a.21.21,0,0,1,0,.41.19.19,0,0,1-.26,0l0,0c-.1-.1-.1-.31,0-.31s.2-.1.31-.1"/>
    </g>
    <g class="cls-3">
        <path class="cls-16" d="M24.29,17.83a.26.26,0,1,1-.2.2.26.26,0,0,1,.2-.2"/>
    </g>
    <g class="cls-3">
        <path class="cls-16"
              d="M23.37,16.91c.1,0,.1,0,.21.1s.1.1.1.21a.22.22,0,0,1-.21.21.27.27,0,0,1-.31-.31s.1-.21.2-.21"/>
    </g>
    <g class="cls-3">
        <path class="cls-16"
              d="M23,16.09h0c.21,0,.31.1.31.2a.22.22,0,0,1-.21.21h0a.22.22,0,0,1-.21-.2c-.1-.1,0-.21.1-.21"/>
    </g>
    <g class="cls-3">
        <path class="cls-14" d="M25.93,13.63c.21-.2,1,0,.72.41s-1.13,0-.72-.41h0"/>
    </g>
    <g class="cls-3">
        <path class="cls-14" d="M28.49,14.86h0c.21-.2.82.1.51.41a.33.33,0,0,1-.51-.41"/>
    </g>
    <g class="cls-3">
        <path class="cls-2" d="M26.75,14.86h0a5.76,5.76,0,0,0,1.33.72c-.21.2-.51.51-.92.31-.62-.31-.51-1-.41-1"/>
    </g>
    <g class="cls-3">
        <path class="cls-5" d="M28.39,24s2,4,4.51,4.82,2.36,5.43-.82,4.92-4.92-7.79-4.61-9.12.92-.61.92-.61"/>
    </g>
    <g class="cls-3">
        <path class="cls-5"
              d="M23.27,23.47a12.11,12.11,0,0,1-7.38,1c-3.9-.82-4.71,4.61-1.95,4.92s9.74-3.69,9.74-5-.41-.92-.41-.92"/>
    </g>
    <g class="cls-3">
        <path d="M20.5,24.81h-.1l.1.1h.1c0-.1,0-.1-.1-.1"/>
    </g>
    <g class="cls-3">
        <path class="cls-17" d="M18.24,17.22s-4.51-.92-4.92-.51-.62,3.79-.2,4.1,3.38-.21,3.38-.21,2.15-1.84,1.74-3.38"/>
    </g>
    <g class="cls-3">
        <path class="cls-18"
              d="M21.73,21.42c0-.62-.62-3.18-2-4.1-.62-.31-.62-.21-1.33,0l-1.74.1a2.75,2.75,0,0,0-2.25,2,1.3,1.3,0,0,0-.1.62c-.1.31-.2.72-.31,1-.41,1-.82,2.15-1.23,3.18a1,1,0,0,1-.41.51c.31.21.72.51,1,.72-.51.92,2.25,3.28.92,5.53a43.13,43.13,0,0,0-4.1,11.17c.41.21,10.25,5.23,15,.41C23.9,41,21,31.51,20.93,29.9c-.2-2.15.82-5.54.82-8.51"/>
    </g>
    <g class="cls-3">
        <path class="cls-5"
              d="M7.79,22.86a.31.31,0,0,1,.1-.41c.1-.31.2-.92.1-1a1.73,1.73,0,0,0-.51-.21S7,20.6,6.76,20.7a.51.51,0,0,0-.31.51c0,.2-.45,1.13-.3,1.34a3.32,3.32,0,0,0,.92.82c.1.1,2.46,3.59,3.69,3.89a2.2,2.2,0,0,0,.62.1l.1-.1a12.87,12.87,0,0,1-3.69-4.41"/>
    </g>
    <g class="cls-3">
        <path d="M17.43,7.38a3.69,3.69,0,0,0-2.15,1.13,4,4,0,0,0-1.13,1.74,6.24,6.24,0,0,0-.31,2.36c0,.82.41,1.54-.2,2.15a2.91,2.91,0,0,0-.92,1.74v.21c.1-.1.72.62.92.72.82.21,1.13-.41,1.95-.21a3.54,3.54,0,0,0,.1-2A6.12,6.12,0,0,0,15.07,14c-.72-1.43-.51-4.1,1-5,.62-.31,1.43-.2,2-.51.92-.51.1-1.13-.72-1.13"/>
    </g>
    <g class="cls-3">
        <path class="cls-14"
              d="M15.68,15.89a5.68,5.68,0,0,1-.2,1.84c1-.62,1.54-.21,2.36.21.1,0,.1.1.21.21a2.34,2.34,0,0,0,1.23.62h.41a.51.51,0,0,0,.31-.1V17.32c-.31-.1-.62-.21-.72-.62a14.51,14.51,0,0,1-.41-2.05c-.1-.82.1-1.74-.41-2.46-.51.92-1.84,2.46-3,2.36a9.24,9.24,0,0,1,.2,1.33"/>
    </g>
    <g class="cls-3">
        <path class="cls-5"
              d="M16.3,8.61a2,2,0,0,1,.82-.1,2.43,2.43,0,0,1,2,1.33,4.11,4.11,0,0,1,.31,1.54,3.37,3.37,0,0,1-.41,1.74,2.33,2.33,0,0,1-.92.82,11.18,11.18,0,0,1-1.13.62,1.49,1.49,0,0,1-2-.41,4.24,4.24,0,0,1-.51-1.95c0-1.23.41-3.18,1.85-3.59"/>
    </g>
    <g class="cls-3">
        <path d="M17.94,11c.21,0,.51.1.51.31h-.1c-.21,0-.62,0-.62-.1-.21,0-.21-.31-.21-.51a1.41,1.41,0,0,0,.41.31"/>
    </g>
    <g class="cls-3">
        <path d="M15.58,10.45l.51.1c-.1.2-.1.31-.2.31h-.2s-.51-.31-.51-.2c0-.31.1-.31.41-.21"/>
    </g>
    <g class="cls-3">
        <path class="cls-5"
              d="M15.78,12.3c.1,0,.1-.1.1-.2a2.26,2.26,0,0,1,.2-.62c.41,0,.1,1,0,1.13s-.72.2-.51-.2a.36.36,0,0,0,.2-.1"/>
    </g>
    <g class="cls-3">
        <path d="M15.07,11.38c-.1.2-.1.31,0,.41a.38.38,0,0,0,.31.1c.1,0,.2-.1.2-.31h.1c0,.2-.1.31-.31.41a.45.45,0,0,1-.51-.1c-.1-.1-.2-.2,0-.62Z"/>
    </g>
    <g class="cls-3">
        <path d="M17.32,11.68q-.15.46,0,.62a.46.46,0,0,0,.51,0c.21-.1.31-.2.31-.41h.21a.69.69,0,0,1-.41.62.61.61,0,0,1-.72-.1c-.1-.1-.31-.31-.1-.82Z"/>
    </g>
    <g class="cls-3">
        <path class="cls-14" d="M17.12,12.92c.21-.31,1.13-.2.82.31s-1.13.2-.82-.31h0"/>
    </g>
    <g class="cls-3">
        <path class="cls-14" d="M14.76,12.5c.1-.2.82-.2.62.2s-.92.21-.62-.2h0"/>
    </g>
    <g class="cls-3">
        <path class="cls-19" d="M16,13.22a.1.1,0,0,1,.1.1h0v.2c0,.1-.2.2-.2,0v-.31H16"/>
    </g>
    <g class="cls-3">
        <path class="cls-2" d="M16.71,13.43l-.1.1c-.51.31-1.23.31-1.23-.41.1.1.41.1.62.2a1.57,1.57,0,0,0,.72.1"/>
    </g>
    <g class="cls-3">
        <path class="cls-14"
              d="M15.38,13c.1,0,.1-.1.2-.1s.1.1.2.2.1-.1.2-.1.2.1.31.1a.78.78,0,0,0,.41.2h-.1a2.88,2.88,0,0,1-.82-.1.38.38,0,0,1-.31-.1.1.1,0,0,1-.1-.1h0l-.1-.1c.1.21.1.1.1.1"/>
    </g>
    <g class="cls-3">
        <path class="cls-14"
              d="M15.58,13.63h0a1.74,1.74,0,0,0,.72.1c.1,0,.21-.1.31-.1s.1-.1.1-.2a.32.32,0,0,1-.1.2.86.86,0,0,1-.72.41.78.78,0,0,1-.51-.2v-.72a.78.78,0,0,0,.2.51"/>
    </g>
    <g class="cls-3">
        <path d="M18,7.59a1.69,1.69,0,0,1,1-.1,3.19,3.19,0,0,1,1.64,1.43c.41.62,1.33.62,1.74,1.23.92,1.23-.41,2.77.41,4,.41.62,1.23,1,1.23,1.85.1,1.44-1.43,2.25-2.67,2.25s-2.87-.41-2.77-2c0-.41.1-.51-.1-.92a1.46,1.46,0,0,1-.21-.62,1.72,1.72,0,0,1,.41-1.54,3.58,3.58,0,0,0,.51-1.33A2.73,2.73,0,0,0,17.94,9c-.31-.2-.92-.31-.92-.72a2.62,2.62,0,0,1,1-.72"/>
    </g>
    <g class="cls-3">
        <path class="cls-5" d="M19.78,11.89c.62.1.41,1,0,1.23h-.21c-.21,0-.62-.1-.62,0,.1-.31.21-1.33.82-1.23"/>
    </g>
    <g class="cls-3">
        <path class="cls-14" d="M19.78,12.5c0,.2,0,.41-.31.31,0-.1.1-.31.1-.41Z"/>
    </g>
    <g class="cls-3">
        <path class="cls-20"
              d="M20.81,11s-3.9-3.62-5.54-2.7a4.72,4.72,0,0,0-.51,1c0,.2-.82-.72-.72-.92s.82-1.54.72-1.74.92-1.23.92-1.23L16.3,4.1l3.07.1a14.7,14.7,0,0,1,2.87.72c0,.2.31,2.05.1,2.05a3.18,3.18,0,0,0-.72.2l1,2.26-1.23.92v.92l-.31.62Z"/>
    </g>
    <g class="cls-3">
        <path class="cls-5"
              d="M7.69,22.45s1.43,3,3,3.59c.62.21,1.43-1.13,1.85-1.33l2.56,1.54s-2.46,5.84-5,4.41C7,29,7.17,23.06,7.17,23.06Z"/>
    </g>
    <g class="cls-3">
        <path d="M15.07,18.76h0c-.2.21,0,.31.1.21l.1-.1c.1,0-.1-.2-.21-.1"/>
    </g>
    <g class="cls-3">
        <path d="M14.66,20l-.31.31c-.1.1.1.31.2.21l.31-.31c0-.1-.1-.31-.2-.21"/>
    </g>
    <g class="cls-3">
        <path d="M14,20.81c-.1.21-.1.31-.2.51s.1.21.2.1.1-.31.2-.51-.1-.2-.2-.1"/>
    </g>
    <g class="cls-3">
        <path d="M13.53,22.24c-.1.21-.2.31-.2.51s.2.21.2.1a1.63,1.63,0,0,1,.2-.51c.1-.2-.1-.21-.2-.1"/>
    </g>
    <g class="cls-3">
        <path d="M13,23.47a.53.53,0,0,0-.2.41c0,.1.2.21.2.1s.1-.21.2-.31,0-.31-.2-.21"/>
    </g>
    <g class="cls-3">
        <path d="M15.89,18.35c.1-.1.2-.1.31-.21s.1-.1,0-.1-.1-.1-.1,0-.2.1-.31.21-.1.1,0,.1h.1"/>
    </g>
    <g class="cls-3">
        <path d="M16.81,18.14h.31c.1.1.21-.1.1-.21a.77.77,0,0,0-.51-.1.2.2,0,0,0,0,.28l.06,0"/>
    </g>
    <g class="cls-3">
        <path class="cls-20"
              d="M15.68,17.83c1.13-.82,2,.41,2.87.82.41.21,2,.31,1.64-.62-.1-.21-.62-.1-.51.1-.1.1-.1.21-.21.31h-.21c-.1,0-.31-.1-.41-.1a2.14,2.14,0,0,1-.62-.41,3.41,3.41,0,0,0-1-.62,2.24,2.24,0,0,0-1.95.31c-.2.1.21.31.41.21"/>
    </g>
    <g class="cls-3">
        <path d="M17.22,18.35a.37.37,0,0,0-.49.17l0,0c-.1.1.1.21.21.1a.38.38,0,0,1,.31-.1s.1-.21,0-.21"/>
    </g>
    <g class="cls-3">
        <path d="M16.09,18.86a1,1,0,0,0-.41.51v.1h.1a1.41,1.41,0,0,1,.31-.41c.31-.1.1-.31,0-.21"/>
    </g>
    <g class="cls-3">
        <path d="M15.38,20.09c-.1.1-.1.31-.2.41s.1.21.2.1.1-.31.2-.41-.1-.21-.2-.1"/>
    </g>
    <g class="cls-3">
        <path d="M14.86,21.22c-.1.21-.1.31-.2.51s.2.21.2.1a1.63,1.63,0,0,1,.2-.51c.1-.2-.2-.21-.2-.1"/>
    </g>
    <g class="cls-3">
        <path d="M14.25,22.65a.78.78,0,0,1-.2.51c-.1.1.1.21.2.1a1.46,1.46,0,0,0,.2-.62c0-.1-.2-.21-.2,0"/>
    </g>
    <g class="cls-3">
        <path d="M13.84,24a1.41,1.41,0,0,0-.31.41c-.1.1.1.21.2.1A1.41,1.41,0,0,0,14,24.1c0-.1-.2-.21-.2-.1"/>
    </g>
    <g class="cls-3">
        <path d="M13.33,25h0c-.1.1-.1.21,0,.21h.1V25c0-.1-.1-.1-.1,0"/>
    </g>
    <g class="cls-3">
        <path d="M17.43,18.76a.68.68,0,0,0-.51.41c-.1.1.1.21.21.1a1.41,1.41,0,0,1,.41-.31c.1,0,0-.21-.1-.21"/>
    </g>
    <g class="cls-3">
        <path d="M16.4,19.78c-.1.1-.1.31-.2.41s.2.31.2.21a.74.74,0,0,1,.21-.41c.11-.1-.1-.31-.21-.21"/>
    </g>
    <g class="cls-3">
        <path d="M16,21a.78.78,0,0,1-.2.41c-.1.1.1.21.2.1a.78.78,0,0,0,.2-.41c0-.1,0-.1-.1-.1s-.1-.1-.1,0"/>
    </g>
    <g class="cls-3">
        <path d="M15.48,22.24c0,.1-.1.21-.1.31v.1h.1c.1-.1.1-.21.2-.41,0,0-.2-.1-.2,0"/>
    </g>
    <g class="cls-3">
        <path d="M15,23.58a1.64,1.64,0,0,1-.31.62c-.21.21.1.21.2.1a5,5,0,0,0,.31-.72c0-.1-.2-.21-.2,0"/>
    </g>
    <g class="cls-3">
        <path d="M14.25,24.91a.53.53,0,0,1-.2.41c-.1.1.1.31.2.21a2.71,2.71,0,0,0,.31-.51c.11-.2-.2-.2-.31-.1"/>
    </g>
    <g class="cls-3">
        <path d="M17.43,19.68l-.31.31c-.1.1.1.21.21.1s.1-.21.21-.31,0-.21-.1-.1"/>
    </g>
    <g class="cls-3">
        <path d="M16.81,21c-.1.1-.1.31-.21.41s0,.1.1.1.1,0,.1-.1A.74.74,0,0,1,17,21c.11-.1,0-.1-.1-.1a.1.1,0,0,0-.1.1h0"/>
    </g>
    <g class="cls-3">
        <path d="M16.4,22.14a.78.78,0,0,1-.2.41c-.1.1.1.21.2.1a.82.82,0,0,0,.21-.51c0-.2-.21-.1-.21,0"/>
    </g>
    <g class="cls-3">
        <path d="M16,23.27a1.46,1.46,0,0,0-.2.62c0,.1.2.21.2.1a.78.78,0,0,1,.2-.51c.1-.21-.1-.31-.2-.21"/>
    </g>
    <g class="cls-3">
        <path d="M15.58,24.5a.78.78,0,0,0-.2.51c0,.1.2.21.2.1a1.05,1.05,0,0,1,.2-.51c.1-.1-.2-.31-.2-.1"/>
    </g>
    <g class="cls-3">
        <path d="M15.17,25.42c-.1.21-.1.31-.2.51s.1.21.2.1.1-.31.2-.51-.2-.31-.2-.1"/>
    </g>
    <g class="cls-3">
        <path d="M10.35,40.39c.1.1.2.1.31.21s.2-.1.1-.21-.2-.1-.31-.21-.31.21-.1.21"/>
    </g>
    <g class="cls-3">
        <path d="M11.28,40.9c.2,0,.31.1.51.1s.2-.21.1-.21a4.59,4.59,0,0,0-.51-.1c-.2,0-.31.1-.1.21"/>
    </g>
    <g class="cls-3">
        <path d="M12.1,24.5a21.26,21.26,0,0,0,3.28,2c.1.1.2-.1.1-.21A12.88,12.88,0,0,1,12.2,24.4c0-.1-.21,0-.1.1"/>
    </g>
    <g class="cls-3">
        <path d="M14.86,8a.38.38,0,0,1,.31-.1c.1,0,.2-.2.1-.2s-.41,0-.51.2,0,.31.1.1"/>
    </g>
    <g class="cls-3">
        <path d="M15.68,7.89a1.46,1.46,0,0,1,.62.2c.1,0,.2-.2.1-.2a1.48,1.48,0,0,0-.72-.2c-.1,0-.1.2,0,.2"/>
    </g>
    <g class="cls-3">
        <path d="M16.91,8.2c.1.1.31.1.41.2s.21-.1.1-.2L17,8c-.1,0-.21.2-.1.2"/>
    </g>
    <g class="cls-3">
        <path d="M18.14,8.71a2.24,2.24,0,0,1,.51.31c.1.1.21-.1.1-.2a2.24,2.24,0,0,1-.51-.31c-.21-.1-.31.1-.1.2"/>
    </g>
    <g class="cls-3">
        <path d="M19.48,9.43c.21.1.31.31.51.41s.31-.1.21-.2a2.27,2.27,0,0,0-.51-.41c-.2-.1-.31.1-.21.2"/>
    </g>
    <g class="cls-3">
        <path d="M20.71,10.35c.1.2.31.31.41.51s.31,0,.21-.1a2.27,2.27,0,0,1-.41-.51c-.1-.2-.31,0-.21.1"/>
    </g>
    <g class="cls-3">
        <path d="M14.66,8.92c0-.1.1-.2.2-.31s-.1-.31-.2-.2a.78.78,0,0,0-.2.41c0,.1,0,.1.1.1h.1"/>
    </g>
    <g class="cls-3">
        <path d="M15,7.18l.31-.31c.1-.1-.1-.31-.2-.2L14.76,7c-.1.2.1.31.2.2"/>
    </g>
    <g class="cls-3">
        <path d="M15.68,6.87a1.74,1.74,0,0,0,.72-.1c.1,0,.1-.2,0-.2a1.74,1.74,0,0,0-.72.1c-.1,0-.1.31,0,.2"/>
    </g>
    <g class="cls-3">
        <path d="M17.12,7.07a6.53,6.53,0,0,0,.72.2c.1,0,.21-.2.1-.2a1.48,1.48,0,0,0-.72-.2c-.2-.1-.2.1-.1.2"/>
    </g>
    <g class="cls-3">
        <path d="M18.55,7.69l.62.31c.1.1.21-.1.1-.2a1.53,1.53,0,0,0-.72-.31c-.1-.1-.21.2,0,.2"/>
    </g>
    <g class="cls-3">
        <path d="M19.78,8.61c.21.1.41.31.62.41s.21,0,.21-.2A2.72,2.72,0,0,0,20,8.3c-.21,0-.31.21-.21.31"/>
    </g>
    <g class="cls-3">
        <path d="M20.91,9.53a1.8,1.8,0,0,1,.41.51c.1.1.31,0,.21-.1A2.72,2.72,0,0,0,21,9.33c0-.1-.21.1-.1.21"/>
    </g>
    <g class="cls-3">
        <path d="M15.27,6.35A2.24,2.24,0,0,1,15.78,6c.1,0,.1-.2-.1-.2a.89.89,0,0,0-.62.31c-.1.1.1.31.21.2"/>
    </g>
    <g class="cls-3">
        <path d="M16.5,6.15h.72c.1,0,.1-.2,0-.2H16.5c-.21-.1-.21.1,0,.2"/>
    </g>
    <g class="cls-3">
        <path d="M18,6.35a.78.78,0,0,1,.51.2c.1.1.31-.1.21-.2a1.9,1.9,0,0,0-.72-.2c-.21,0-.21.2,0,.2"/>
    </g>
    <g class="cls-3">
        <path d="M19.17,6.87a2.14,2.14,0,0,1,.62.41c.1.1.21-.1.1-.2a2.14,2.14,0,0,1-.62-.41c-.1,0-.21.2-.1.2"/>
    </g>
    <g class="cls-3">
        <path d="M20.5,7.69a2.72,2.72,0,0,1,.62.51c.1.1.21,0,.21-.2l-.62-.61c-.21,0-.31.2-.21.31"/>
    </g>
    <g class="cls-3">
        <path d="M21.53,8.51c.1.2.31.41.41.62s.31,0,.21-.1a3,3,0,0,1-.41-.62c-.1-.21-.31,0-.21.1"/>
    </g>
    <g class="cls-3">
        <path d="M22.14,9.74l.1.1s.1.1.1,0,.1-.1,0-.1l-.1-.1s-.1-.1-.1,0c0-.1-.1,0,0,.1"/>
    </g>
    <g class="cls-3">
        <path d="M16,5.54a1.09,1.09,0,0,1,.51-.2c.2,0,0-.21-.1-.21s-.31.2-.51.2,0,.31.1.21"/>
    </g>
    <g class="cls-3">
        <path d="M17,5.33c.21,0,.51-.1.72,0s.1-.2,0-.2H17c-.21,0-.1.2,0,.2"/>
    </g>
    <g class="cls-3">
        <path d="M18.24,5.54a.78.78,0,0,1,.51.2c.1.1.31-.1.21-.2a.93.93,0,0,0-.72-.31c-.1,0-.1.31,0,.31"/>
    </g>
    <g class="cls-3">
        <path d="M19.48,6a1.65,1.65,0,0,1,.72.41c.1.1.21-.1.1-.2a2.06,2.06,0,0,0-.82-.41c0-.1-.1.1,0,.2"/>
    </g>
    <g class="cls-3">
        <path d="M20.81,6.76a.8.8,0,0,1,.41.41c0,.1.21.1.21-.1a.76.76,0,0,0-.51-.61c-.1.1-.2.2-.1.31"/>
    </g>
    <g class="cls-3">
        <path d="M21.53,8l.1.1c.1.1.31-.1.21-.2l-.1-.1c-.1,0-.31.1-.21.2"/>
    </g>
    <g class="cls-3">
        <path d="M16.4,4.71a1.11,1.11,0,0,1,.51-.1c.1,0,.1-.2,0-.2s-.41.1-.62.1c0,0,0,.31.1.2"/>
    </g>
    <g class="cls-3">
        <path d="M17.94,4.71a1.46,1.46,0,0,1,.62.2c.1,0,.21-.2.1-.2a2.65,2.65,0,0,1-.72-.2c-.21-.1-.21.2,0,.2"/>
    </g>
    <g class="cls-3">
        <path d="M19.27,4.92a.89.89,0,0,1,.62.31c.1.1.21-.1.1-.2l-.62-.31c-.1,0-.2.2-.1.2"/>
    </g>
    <g class="cls-3">
        <path d="M20.5,5.64a.8.8,0,0,1,.41.41c.1.1.31,0,.21-.1a1.24,1.24,0,0,0-.51-.51c-.1-.1-.21.1-.1.2"/>
    </g>
    <g class="cls-3">
        <path d="M21.22,6.25a4.46,4.46,0,0,1,.41.72c.1.1.31,0,.21-.1a5.88,5.88,0,0,1-.41-.72c-.1-.2-.31-.1-.2.1"/>
    </g>
    <g class="cls-3">
        <path d="M19.78,4.61a.31.31,0,0,1,.41,0c.1.1.21-.1.1-.2a.65.65,0,0,0-.62,0c-.2,0-.1.2.1.2"/>
    </g>
    <g class="cls-3">
        <path d="M20.71,4.92c.21,0,.31.1.41.31s.31,0,.21-.1a2.14,2.14,0,0,0-.62-.41c-.1,0-.1.2,0,.2"/>
    </g>
    <g class="cls-3">
        <path d="M21.53,5.43l.31.61c0,.1.21.1.21,0a.93.93,0,0,0-.31-.72c-.1-.1-.31,0-.21.1"/>
    </g>
    <g class="cls-3">
        <path d="M21.93,6.46A.92.92,0,0,0,22,7c0,.1.21.1.21,0a.92.92,0,0,0-.1-.51c0-.1-.21-.1-.21,0"/>
    </g>
    <g class="cls-3">
        <path class="cls-5"
              d="M13,20.5a31.64,31.64,0,0,1-5.84-1c-1.42-.64-1.16-3.3,3.29-5.25l.62-.31,1.33.51s-2.25,2.25-1.95,2.66,2.77-.21,2.77-.21A17.71,17.71,0,0,0,13,20.5"/>
    </g>
    <g class="cls-3">
        <path class="cls-21"
              d="M8.1,9.74c.41.2.82.51,1.23.72.2.1.31-.1.2-.31A13.51,13.51,0,0,1,8.2,9.43c-.1-.1-.31.2-.1.31"/>
    </g>
    <g class="cls-3">
        <path class="cls-21"
              d="M8.61,8A10.86,10.86,0,0,1,9.84,9c.21,0,.41-.2.21-.31a5.37,5.37,0,0,1-1.13-1A.23.23,0,0,0,8.61,8"/>
    </g>
    <g class="cls-3">
        <path class="cls-21"
              d="M10,6.25a12.8,12.8,0,0,1,1,1.23c.1.2.41,0,.31-.2a3.87,3.87,0,0,0-1-1.28c-.21-.21-.41,0-.31.2"/>
    </g>
    <g class="cls-3">
        <path class="cls-21"
              d="M12.4,5.95a1.46,1.46,0,0,1,.2.61c0,.2.31.1.31-.1a1.46,1.46,0,0,0-.2-.61c-.1-.21-.31,0-.31.1"/>
    </g>
    <g class="cls-3">
        <path class="cls-21"
              d="M8.51,12.61c.31,0,.51-.1.82-.1a.16.16,0,0,0,0-.31c-.31,0-.51.1-.82.1a.16.16,0,1,0,0,.31"/>
    </g>
    <g class="cls-3">
        <path class="cls-14" d="M16.4,11.48s-.2-.2-.31.2-.1.51-.31.51-.41.1-.2.2.51.31.62.1a2.46,2.46,0,0,0,.2-1"/>
    </g>
    <g class="cls-3">
        <path d="M13.22,16.71a14.31,14.31,0,0,0-.2,4.2c0,.1.2.1.1,0a13.79,13.79,0,0,1,.2-4.1c0-.2-.1-.2-.1-.1"/>
    </g>
    <circle class="cls-1" cx="20.5" cy="20.5" r="20.5"/>
</svg>
