<svg id="Calque_1" data-name="Calque 1" xmlns="http://www.w3.org/2000/svg"
     viewBox="0 0 41 41">
    <defs>
        <style>
            .cls-1{fill:none;}.cls-2{fill:#fff;}.cls-3{fill:#a0ecd6;}.cls-4{clip-path:url(#clip-path);}.cls-5{fill:#714f47;}.cls-6{fill:#62342d;}.cls-7{fill:#ff7900;}.cls-8{fill:#fdd230;}.cls-9{fill:#8f8f8f;}.cls-10{fill:#5c7393;}.cls-11{fill:#595959;}.cls-12{fill:#d6d6d6;}.cls-13{fill:#b5e8f7;}
        </style>
        <clipPath id="clip-path">
            <circle class="cls-1" cx="20.5" cy="20.5" r="20.5"/>
        </clipPath>
    </defs>
    <title>Menu_Pass Internet ok</title>
    <rect class="cls-2" width="41" height="41"/>
    <circle id="SVGID" class="cls-3" cx="20.5" cy="20.5" r="20.5"/>
    <g class="cls-4">
        <g id="_Groupe_" data-name="&lt;Groupe&gt;">
            <polygon id="_Tracé_" data-name="&lt;Tracé&gt;"
                     points="24.7 32.59 24.5 41.31 18.55 41.31 18.04 37.72 16.3 41.31 10.66 41.31 14.55 30.75 24.7 32.59"/>
        </g>
        <g id="_Groupe_2" data-name="&lt;Groupe&gt;">
            <path id="_Tracé_2" data-name="&lt;Tracé&gt;" class="cls-5"
                  d="M7.89,31.16a3.88,3.88,0,0,1,0-1.54,4.87,4.87,0,0,0-.72,2.15.36.36,0,0,1,.1-.21,2.24,2.24,0,0,1,.31.51.85.85,0,0,0,.82.31l-.31-.61A4,4,0,0,1,7.89,31.16Z"/>
        </g>
        <g id="_Groupe_3" data-name="&lt;Groupe&gt;">
            <path id="_Tracé_3" data-name="&lt;Tracé&gt;" class="cls-5"
                  d="M9,25.83c-.2-.31-.41-.51-.62-.82a15.86,15.86,0,0,0-3,4.71,4.58,4.58,0,0,0,0,2.87,1.64,1.64,0,0,0,.72.92h.1c.2.1.51.21.72,0a12.18,12.18,0,0,1,.31-2,11.72,11.72,0,0,1,1.54-3,2.39,2.39,0,0,1,.72-.72A2.57,2.57,0,0,1,9,25.83Z"/>
        </g>
        <g id="_Groupe_4" data-name="&lt;Groupe&gt;">
            <path id="_Tracé_4" data-name="&lt;Tracé&gt;" class="cls-6"
                  d="M6.66,31.78h-.2a3.81,3.81,0,0,0,.2,1.95h.2A2.87,2.87,0,0,1,6.66,31.78Z"/>
        </g>
        <g id="_Groupe_5" data-name="&lt;Groupe&gt;">
            <path id="_Tracé_5" data-name="&lt;Tracé&gt;" class="cls-6"
                  d="M6.15,31.57h-.2A3.94,3.94,0,0,0,6,33.52l.2.21A3.62,3.62,0,0,1,6.15,31.57Z"/>
        </g>
        <g id="_Groupe_6" data-name="&lt;Groupe&gt;">
            <path id="_Tracé_6" data-name="&lt;Tracé&gt;" class="cls-6"
                  d="M5.33,32.08a.62.62,0,0,0,.1.41.56.56,0,0,0,.31.51,2.57,2.57,0,0,1-.1-1c0-.1.1-.92.2-.92l-.2-.1C5.43,31.06,5.33,32,5.33,32.08Z"/>
        </g>
        <g id="_Groupe_7" data-name="&lt;Groupe&gt;">
            <path id="_Tracé_7" data-name="&lt;Tracé&gt;"
                  d="M10.66,15.48c.51-.62,1.54-2.56,2.56-2.56a.38.38,0,0,1,.31.1c1.33.51.92,2.56.51,3.48a66.08,66.08,0,0,0-3,6,18.74,18.74,0,0,0-.82,2.56c-.2,1-.2,2.87-.41,3.79,0,0-3.18,1.13-4.1.62-1.13-.62.2-5.74.61-6.77a9.09,9.09,0,0,1,1.44-2.56C8.82,18.66,9.53,16.91,10.66,15.48Z"/>
        </g>
        <g id="_Groupe_8" data-name="&lt;Groupe&gt;">
            <path id="_Tracé_8" data-name="&lt;Tracé&gt;" class="cls-6"
                  d="M17.53,9.74A1.84,1.84,0,0,0,17,9c0,.41.1.92.1,1.33a1.6,1.6,0,0,1-.62,1.43c-.2.1-2.05-.62-2.05-.41.41,1,2.05,2.77,1.23,3.79.62,1,3.49-.1,4.2-.72s.72-1.23.1-1.74c-.1,0-.1.1-.21.1s-.41-.62-.1-.31c.1.1.21.2.31.2a20.66,20.66,0,0,1-1.54-1.54C18.14,10.76,17.83,10.25,17.53,9.74Z"/>
        </g>
        <g id="_Groupe_9" data-name="&lt;Groupe&gt;">
            <path id="_Tracé_9" data-name="&lt;Tracé&gt;" class="cls-5"
                  d="M16.5,7.89c-.31.1-.2.62-.62.51-.2,0-.2-.31-.31-.51a5.94,5.94,0,0,0-1.43-1.74c-.51-.31-.82,0-1.13.41s-.82.61-.92,1.13c0,.1.1.2.1.31s-.1.31-.21.31a.38.38,0,0,1-.31.1c-.1,0-.2.1-.31.1s-.1.2,0,.41a.78.78,0,0,0,.2.41A5.2,5.2,0,0,0,12.5,11a6.35,6.35,0,0,0,1.43,1.43c.1.1.31.2.51.41a1.29,1.29,0,0,0,1.33.2c.41-.2.62-.62.92-1a2.89,2.89,0,0,0,.62-1.54c0-.51-.31-.92,0-1.43S17.22,7.59,16.5,7.89Z"/>
        </g>
        <g id="_Groupe_10" data-name="&lt;Groupe&gt;">
            <path id="_Tracé_10" data-name="&lt;Tracé&gt;" class="cls-6"
                  d="M16.61,8.4a.78.78,0,0,1,.21.41l.21-.2C17,8.51,16.91,8.2,16.61,8.4Z"/>
        </g>
        <g id="_Groupe_11" data-name="&lt;Groupe&gt;">
            <path id="_Tracé_11" data-name="&lt;Tracé&gt;"
                  d="M14.66,5.23a2.09,2.09,0,0,0-1.54.61c-.1.1-.2.2-.31.2s-.2.1-.31.21a2.07,2.07,0,0,1-.31,1.13,10.63,10.63,0,0,0-.41,1,.92.92,0,0,1,.1.51c.2-.1.31-.1.51-.2A1.61,1.61,0,0,0,13.12,8c.1-.2.1-.41.2-.51a2,2,0,0,1,1.13-.61c.31-.1.41.1.62.31.51.61.92,1.44,1.43,2,.41-.2-.1-.72,0-.92s.21-.2.21-.51-.21-.41-.21-.61C16.2,6.46,15.48,5.33,14.66,5.23Z"/>
        </g>
        <g id="_Groupe_12" data-name="&lt;Groupe&gt;">
            <path id="_Tracé_12" data-name="&lt;Tracé&gt;"
                  d="M12.92,6.25a6.58,6.58,0,0,0-1,1.33c-.2.51-.41.92-.2,1.33"/>
        </g>
        <g id="_Groupe_13" data-name="&lt;Groupe&gt;">
            <path id="_Tracé_13" data-name="&lt;Tracé&gt;"
                  d="M11.89,9a2.39,2.39,0,0,1,.72-.72.36.36,0,0,1,.2-.1,3.12,3.12,0,0,1,.92-1.33c.72-.72-.41-1.64-1-1A3.39,3.39,0,0,0,11.48,9Z"/>
        </g>
        <g id="_Groupe_14" data-name="&lt;Groupe&gt;">
            <path id="_Tracé_14" data-name="&lt;Tracé&gt;" class="cls-6"
                  d="M15.89,9.53c-.31-.1-.82.41-.41.72s.82-.51.41-.72Z"/>
        </g>
        <g id="_Groupe_15" data-name="&lt;Groupe&gt;">
            <path id="_Tracé_15" data-name="&lt;Tracé&gt;" class="cls-6"
                  d="M13.43,9.84c.1.2.2.51.31.72v.62c.2.51.72,0,.72-.31S13.84,9.53,13.43,9.84Z"/>
        </g>
        <g id="_Groupe_16" data-name="&lt;Groupe&gt;">
            <path id="_Tracé_16" data-name="&lt;Tracé&gt;"
                  d="M15.07,9.12a.78.78,0,0,0-.51.2c-.1.1-.1.31.1.62l.1-.1a.77.77,0,0,1-.1-.41.53.53,0,0,1,.41-.2c.1,0,.31.1.31.2h.1C15.38,9.23,15.27,9.12,15.07,9.12Z"/>
        </g>
        <g id="_Groupe_17" data-name="&lt;Groupe&gt;">
            <path id="_Tracé_17" data-name="&lt;Tracé&gt;" class="cls-2"
                  d="M14.15,11.89c.41.62.82.51,1,.41A1.16,1.16,0,0,0,15.58,11h0A6.87,6.87,0,0,1,14.15,11.89Z"/>
        </g>
        <g id="_Groupe_18" data-name="&lt;Groupe&gt;">
            <path id="_Tracé_18" data-name="&lt;Tracé&gt;" class="cls-7"
                  d="M24,13.33a13.14,13.14,0,0,0-4.41-1.23c-.21,1.43-1.84,2.77-2.77,2.46-.51-.2-.62-1.43-1-1.64-.62-.31-2.77-.2-3.07.41a2.84,2.84,0,0,0-.31,2.05c.1.72.1,1.43.2,2.05a5,5,0,0,1,.1,1.23c.1,1.23,1.74,4.2,1.95,5.33a31.73,31.73,0,0,1,.2,4.41c.1.62-4,9.74-3.49,9.94,1,.31,9.53,1.13,11.07.82.21,0,.41-5,.62-5s.51,5,.82,5c.72,0,1.23-.1,1.23-.72.1-2.26-.92-17.12-.72-19.27.1-1.13.21-2.15.31-3.28,0-.51.21-1.33-.1-1.85A1.08,1.08,0,0,0,24,13.33Z"/>
        </g>
        <g id="_Groupe_19" data-name="&lt;Groupe&gt;">
            <path id="_Tracé_19" data-name="&lt;Tracé&gt;" class="cls-8"
                  d="M19.27,12A2.46,2.46,0,0,1,18,14a2.68,2.68,0,0,1-1.33.62,3.47,3.47,0,0,1-.82-.31c-.2,0-.2.1-.31.51a1.89,1.89,0,0,0,1.23.51,3.37,3.37,0,0,0,2.56-1.64,1.65,1.65,0,0,0,.31-.92c0-.2,0-.62-.1-.72S19.27,11.89,19.27,12Z"/>
        </g>
        <g id="_Groupe_20" data-name="&lt;Groupe&gt;">
            <path id="_Tracé_20" data-name="&lt;Tracé&gt;" class="cls-5"
                  d="M16.2,12.2c-.1,0-.1.1-.1.2s-.31.2-.51.2c0,.31.41.62.62.31a.78.78,0,0,0,.2-.51A.2.2,0,0,0,16.2,12.2Z"/>
        </g>
        <g id="_Groupe_21" data-name="&lt;Groupe&gt;">
            <path id="_Tracé_21" data-name="&lt;Tracé&gt;"
                  d="M13.22,10.35c-.2,0-.31,0-.41.2a.52.52,0,0,0,.1.51L13,11a.62.62,0,0,1-.1-.41c0-.1.2-.1.31-.2l.31.31h.1A1.41,1.41,0,0,0,13.22,10.35Z"/>
        </g>
        <g id="_Groupe_22" data-name="&lt;Groupe&gt;">
            <path id="_Tracé_22" data-name="&lt;Tracé&gt;"
                  d="M14.35,8.51c-.2.1-.31.1-.51.2a.37.37,0,0,0,.51.2s.41-.31.51-.41a.1.1,0,0,0,.1-.1C14.76,8.1,14.45,8.4,14.35,8.51Z"/>
        </g>
        <g id="_Groupe_23" data-name="&lt;Groupe&gt;">
            <path id="_Tracé_23" data-name="&lt;Tracé&gt;"
                  d="M12.2,9.94c-.1.2-.2.31,0,.41l.41-.31.1-.1c0-.1,0-.2-.2-.31C12.5,9.53,12.3,9.84,12.2,9.94Z"/>
        </g>
        <g id="_Groupe_24" data-name="&lt;Groupe&gt;">
            <path id="_Tracé_24" data-name="&lt;Tracé&gt;" class="cls-8"
                  d="M16.5,13.63l-.21,13a.56.56,0,0,0,.31.51H17a.44.44,0,0,0,.41-.41v-13c0-.2-.1-.41-.31-.41l-.31-.1C16.71,13.12,16.5,13.33,16.5,13.63Z"/>
        </g>
        <g id="_Groupe_25" data-name="&lt;Groupe&gt;">
            <path id="_Tracé_25" data-name="&lt;Tracé&gt;" class="cls-8"
                  d="M11.38,8s2.56-1.44,4.72-1c.1,0,.2-.1.1-.2C16,6.15,15.58,4.31,15.07,4c-1.13-.92-4.1,1-4.3,1.54S11.38,8,11.38,8Z"/>
        </g>
        <g id="_Groupe_26" data-name="&lt;Groupe&gt;">
            <path id="_Tracé_26" data-name="&lt;Tracé&gt;" class="cls-5"
                  d="M17.43,13.53c-.41-.2-.72-.51-1.13-.72A7.82,7.82,0,0,1,15.17,12c-.1-.1-.41-.51-.62-.51a.68.68,0,0,0-.51.41V12a2.52,2.52,0,0,0,.1,1.23A4.23,4.23,0,0,0,15.68,15a6.54,6.54,0,0,0,1.43.82c.31.2.72.31,1,.51s.41.41.72.51c.51.21.72-.21.82-.62a1.44,1.44,0,0,0,0-1.43C19.17,14,18.24,14,17.43,13.53Z"/>
        </g>
        <g id="_Groupe_27" data-name="&lt;Groupe&gt;">
            <path id="_Tracé_27" data-name="&lt;Tracé&gt;" class="cls-6"
                  d="M14.45,11.58h0c-.1.1-.1.1-.1.2a3.69,3.69,0,0,0,1.13,1.54l.1-.2A3.69,3.69,0,0,1,14.45,11.58Z"/>
        </g>
        <g id="_Groupe_28" data-name="&lt;Groupe&gt;">
            <path id="_Tracé_28" data-name="&lt;Tracé&gt;" class="cls-6"
                  d="M14.15,12c0,.1,0,.1-.1.31a3.26,3.26,0,0,0,1.23,1.54l.1-.2A3.45,3.45,0,0,1,14.15,12Z"/>
        </g>
        <g id="_Groupe_29" data-name="&lt;Groupe&gt;">
            <path id="_Tracé_29" data-name="&lt;Tracé&gt;" class="cls-6"
                  d="M14.66,13.73a4.42,4.42,0,0,1-.62-.92,1.46,1.46,0,0,0,.2.62c.1.1.2.31.31.41s.82.72.82.62l.1-.2C15.38,14.25,14.76,13.73,14.66,13.73Z"/>
        </g>
        <g id="_Groupe_30" data-name="&lt;Groupe&gt;">
            <path id="_Tracé_30" data-name="&lt;Tracé&gt;"
                  d="M26.34,14.35c-1-.92-3.38-2.15-4.72-1.95-.51.1-1,.62-.72,2.77.1.82,3.89,3.28,4,3.28.62-.1-3.69-3.79-5.64-4.2-.21,0-2.67,3.59-1.74,4.2.62.41,6.56,7.89,11,4.2.82-.62.92-1.84,1-2.87C29.73,18,27.06,15,26.34,14.35Z"/>
        </g>
        <g id="_Groupe_31" data-name="&lt;Groupe&gt;">
            <path id="_Tracé_31" data-name="&lt;Tracé&gt;" class="cls-6"
                  d="M11.38,21.22a4,4,0,0,1,.62.21,2,2,0,0,0,1.13.21c.41-.1.1-.41.2-.72a3.68,3.68,0,0,0,1,.72,6.12,6.12,0,0,0,2.15,1.13,9.36,9.36,0,0,1-1,1.33c-.31.41-2-.31-2.46-.51a4.73,4.73,0,0,1-1.54-.92c-.1-.1,0-.21,0-.41s.51-.41.51-.41h0C12,21.73,11,21.32,11.38,21.22Z"/>
        </g>
        <g id="_Groupe_32" data-name="&lt;Groupe&gt;">
            <path id="_Tracé_32" data-name="&lt;Tracé&gt;" class="cls-6"
                  d="M23.78,20.4a5.15,5.15,0,0,1-2.15-.21h0a3.11,3.11,0,0,1-2.26,1.95,14,14,0,0,1-4.61.31,1.46,1.46,0,0,0-.2.62c-.2.51-.61.21-.2.62,1.13,1.33,4.92,3.18,7.28,1.64a8.73,8.73,0,0,0,1.74-1.64,6.2,6.2,0,0,0,.92-3.38A.92.92,0,0,1,23.78,20.4Z"/>
        </g>
        <g id="_Groupe_33" data-name="&lt;Groupe&gt;">
            <path id="_Tracé_33" data-name="&lt;Tracé&gt;" class="cls-8"
                  d="M20.6,19.78c.1,0,.21.1.31.1a4.59,4.59,0,0,0,2.05.41,5.84,5.84,0,0,0,1.33-.1,11.14,11.14,0,0,1,.1-1.84,10.62,10.62,0,0,0-.1-3.59A7.18,7.18,0,0,0,24,13.33c-.51-.82-1-1.43-1.95-.72a3.41,3.41,0,0,0-1.13,2.15C20.5,16.4,21,18.35,20.6,19.78Z"/>
        </g>
        <g id="_Groupe_34" data-name="&lt;Groupe&gt;">
            <path id="_Tracé_34" data-name="&lt;Tracé&gt;"
                  d="M28.08,25c.82-.1,2.46-.62,3.07.1C32.8,27.37,34.85,41,34.85,41.31s-8.51,2.77-17.32-.51c-1.43-.51,3-13.53,4.82-15.37C24,24.81,26.65,25.11,28.08,25Z"/>
        </g>
        <g id="_Groupe_35" data-name="&lt;Groupe&gt;">
            <path id="_Tracé_35" data-name="&lt;Tracé&gt;" class="cls-7"
                  d="M21.63,15.38a22.26,22.26,0,0,1,.72-2.46c.1-.2.82-1.13,1-.82.51.92,1.33.82,2.36.82a1.08,1.08,0,0,0,.92-.51,2.39,2.39,0,0,0,.72-.72c.41.1,1.23,0,1.54.1a17,17,0,0,1,1.64.51,25.42,25.42,0,0,0-.82,2.77,9.38,9.38,0,0,0,.1,1.74,13.69,13.69,0,0,0,0,2.05,6.14,6.14,0,0,0,.82,1.64c.62,1.23,1.95,3.79.51,5-1.23,1-3.38,1.13-4.92,1.13a4,4,0,0,1-1.54-.21,5.41,5.41,0,0,1-1.23-.31c-1.13-.51-1.13-1.84-1.43-2.87A31,31,0,0,1,21.42,20a10.11,10.11,0,0,1-.31-2.46,6.26,6.26,0,0,1,.31-1.33A2.41,2.41,0,0,1,21.63,15.38Z"/>
        </g>
        <g id="_Groupe_36" data-name="&lt;Groupe&gt;">
            <path id="_Tracé_36" data-name="&lt;Tracé&gt;" class="cls-9"
                  d="M24.81,26.34h0c0,.1.1.1.1.21h0c-.1-.1-.1-.1-.1-.21Z"/>
        </g>
        <g id="_Groupe_37" data-name="&lt;Groupe&gt;">
            <path id="_Tracé_37" data-name="&lt;Tracé&gt;" class="cls-2"
                  d="M28.6,13.33c.1,0,.21,0,.21.1s0,.2-.1.2h0a.1.1,0,0,1-.1.1c0,.1-.1.1-.21.1s-.1-.1-.1-.2Z"/>
        </g>
        <g id="_Groupe_38" data-name="&lt;Groupe&gt;">
            <path id="_Tracé_38" data-name="&lt;Tracé&gt;" class="cls-2"
                  d="M28.39,14.55c0,.1-.1.2-.1.31a.15.15,0,1,1-.31,0,.77.77,0,0,1,.1-.41C28.19,14.35,28.49,14.35,28.39,14.55Z"/>
        </g>
        <g id="_Groupe_39" data-name="&lt;Groupe&gt;">
            <path id="_Tracé_39" data-name="&lt;Tracé&gt;" class="cls-2"
                  d="M28.08,15.89a.1.1,0,0,1,.1.1v.2a.1.1,0,0,1-.21,0V16C27.88,16,28,15.89,28.08,15.89Z"/>
        </g>
        <g id="_Groupe_40" data-name="&lt;Groupe&gt;">
            <path id="_Tracé_40" data-name="&lt;Tracé&gt;" class="cls-2"
                  d="M27.78,17.53h0a.36.36,0,0,1,.1-.21.1.1,0,0,1,.1.1v.1h0a.1.1,0,1,1-.21,0Z"/>
        </g>
        <g id="_Groupe_41" data-name="&lt;Groupe&gt;">
            <path id="_Tracé_41" data-name="&lt;Tracé&gt;" class="cls-2"
                  d="M28.08,19.17v.41c0,.21-.21.31-.31.1v-.41C27.78,19,28.08,19,28.08,19.17Z"/>
        </g>
        <g id="_Groupe_42" data-name="&lt;Groupe&gt;">
            <path id="_Tracé_42" data-name="&lt;Tracé&gt;" class="cls-2"
                  d="M27,12.81a.15.15,0,1,1,.31,0,.38.38,0,0,1-.1.31c0,.1-.1.1-.21.1s-.1-.1-.1-.2A.32.32,0,0,0,27,12.81Z"/>
        </g>
        <g id="_Groupe_43" data-name="&lt;Groupe&gt;">
            <path id="_Tracé_43" data-name="&lt;Tracé&gt;" class="cls-2"
                  d="M25.83,13.63h0a.1.1,0,1,1,.21,0v.1h0a.1.1,0,1,1-.21,0v-.1Z"/>
        </g>
        <g id="_Groupe_44" data-name="&lt;Groupe&gt;">
            <path id="_Tracé_44" data-name="&lt;Tracé&gt;" class="cls-2"
                  d="M25.93,14.55c.1.1.1.1,0,.2h0a.1.1,0,0,1-.21,0c0-.1,0-.2.1-.2Z"/>
        </g>
        <g id="_Groupe_45" data-name="&lt;Groupe&gt;">
            <path id="_Tracé_45" data-name="&lt;Tracé&gt;" class="cls-2"
                  d="M27.68,20.6v.31a.15.15,0,1,1-.31,0V20.7C27.37,20.5,27.68,20.4,27.68,20.6Z"/>
        </g>
        <g id="_Groupe_46" data-name="&lt;Groupe&gt;">
            <path id="_Tracé_46" data-name="&lt;Tracé&gt;" class="cls-2"
                  d="M24.91,13.53h0a.1.1,0,1,1,.21,0v.1h0a.1.1,0,0,1-.21,0v-.1Z"/>
        </g>
        <g id="_Groupe_47" data-name="&lt;Groupe&gt;">
            <path id="_Tracé_47" data-name="&lt;Tracé&gt;" class="cls-2"
                  d="M25,14.76v.31a.15.15,0,1,1-.31,0v-.31A.15.15,0,1,1,25,14.76Z"/>
        </g>
        <g id="_Groupe_48" data-name="&lt;Groupe&gt;">
            <path id="_Tracé_48" data-name="&lt;Tracé&gt;" class="cls-2"
                  d="M24.19,13.43c.1,0,.1.1.1.2h0v.1a.1.1,0,0,1-.21,0,.38.38,0,0,1,.1-.31Z"/>
        </g>
        <g id="_Groupe_49" data-name="&lt;Groupe&gt;">
            <path id="_Tracé_49" data-name="&lt;Tracé&gt;" class="cls-2"
                  d="M23.78,14.55a.15.15,0,1,1,.31,0A.77.77,0,0,1,24,15c-.1.2-.31.1-.31-.1A.38.38,0,0,0,23.78,14.55Z"/>
        </g>
        <g id="_Groupe_50" data-name="&lt;Groupe&gt;">
            <path id="_Tracé_50" data-name="&lt;Tracé&gt;" class="cls-2"
                  d="M23.17,13.43a.1.1,0,0,1,.1.1v.1c0,.1,0,.1-.1.2s-.21,0-.21-.1v-.2A.36.36,0,0,0,23.17,13.43Z"/>
        </g>
        <g id="_Groupe_51" data-name="&lt;Groupe&gt;">
            <path id="_Tracé_51" data-name="&lt;Tracé&gt;" class="cls-2"
                  d="M23.17,14.45c0,.1-.1.2-.1.31a.15.15,0,1,1-.31,0,.62.62,0,0,1,.1-.41C23,14.25,23.27,14.35,23.17,14.45Z"/>
        </g>
        <g id="_Groupe_52" data-name="&lt;Groupe&gt;">
            <path id="_Tracé_52" data-name="&lt;Tracé&gt;" class="cls-2"
                  d="M27.68,12.92h0c.1-.1.1-.1.1-.2a.1.1,0,1,1,.21,0c0,.1-.1.31-.1.41s-.31,0-.21-.2Z"/>
        </g>
        <g id="_Groupe_53" data-name="&lt;Groupe&gt;">
            <path id="_Tracé_53" data-name="&lt;Tracé&gt;" class="cls-2"
                  d="M27.37,14.25h0v-.1a.15.15,0,1,1,.31,0,.38.38,0,0,1-.1.31c0,.1-.1.1-.21.1s-.1-.1,0-.31Z"/>
        </g>
        <g id="_Groupe_54" data-name="&lt;Groupe&gt;">
            <path id="_Tracé_54" data-name="&lt;Tracé&gt;" class="cls-2"
                  d="M26.65,14v.41a.15.15,0,1,1-.31,0V14A.15.15,0,1,1,26.65,14Z"/>
        </g>
        <g id="_Groupe_55" data-name="&lt;Groupe&gt;">
            <path id="_Tracé_55" data-name="&lt;Tracé&gt;" class="cls-2"
                  d="M22.55,13.12c.1,0,.1.1.1.2v.2a.15.15,0,1,1-.31,0,.41.41,0,0,1,.2-.41Z"/>
        </g>
        <g id="_Groupe_56" data-name="&lt;Groupe&gt;">
            <path id="_Tracé_56" data-name="&lt;Tracé&gt;" class="cls-2"
                  d="M22,14.66a.1.1,0,0,1,.1.1V15a.1.1,0,0,1-.21,0v-.2A.1.1,0,0,1,22,14.66Z"/>
        </g>
        <g id="_Groupe_57" data-name="&lt;Groupe&gt;">
            <path id="_Tracé_57" data-name="&lt;Tracé&gt;" class="cls-2"
                  d="M27.47,15.78c0,.1-.1.31-.1.41a.15.15,0,1,1-.31,0c0-.2.1-.31.1-.51S27.47,15.68,27.47,15.78Z"/>
        </g>
        <g id="_Groupe_58" data-name="&lt;Groupe&gt;">
            <path id="_Tracé_58" data-name="&lt;Tracé&gt;" class="cls-2"
                  d="M26.34,16c0,.1-.1.2-.1.31a.15.15,0,1,1-.31,0c0-.2.1-.31.1-.41C26.24,15.68,26.44,15.89,26.34,16Z"/>
        </g>
        <g id="_Groupe_59" data-name="&lt;Groupe&gt;">
            <path id="_Tracé_59" data-name="&lt;Tracé&gt;" class="cls-2"
                  d="M26.75,17.43a.1.1,0,0,1,.1.1v.1a.1.1,0,0,1-.21,0v-.1Z"/>
        </g>
        <g id="_Groupe_60" data-name="&lt;Groupe&gt;">
            <path id="_Tracé_60" data-name="&lt;Tracé&gt;" class="cls-2"
                  d="M26.65,18.76a.1.1,0,0,1,.1.1v.21a.1.1,0,0,1-.21,0v-.21C26.44,18.76,26.55,18.76,26.65,18.76Z"/>
        </g>
        <g id="_Groupe_61" data-name="&lt;Groupe&gt;">
            <path id="_Tracé_61" data-name="&lt;Tracé&gt;" class="cls-2"
                  d="M27,21v.62a.15.15,0,1,1-.31,0V21C26.75,20.81,27,20.81,27,21Z"/>
        </g>
        <g id="_Groupe_62" data-name="&lt;Groupe&gt;">
            <path id="_Tracé_62" data-name="&lt;Tracé&gt;" class="cls-2"
                  d="M26.24,21.32v.31a.15.15,0,1,1-.31,0v-.31A.15.15,0,0,1,26.24,21.32Z"/>
        </g>
        <g id="_Groupe_63" data-name="&lt;Groupe&gt;">
            <path id="_Tracé_63" data-name="&lt;Tracé&gt;" class="cls-2"
                  d="M25.93,19.37a.1.1,0,0,1,.1.1v.21a.1.1,0,0,1-.1.1l-.1-.1v-.21Z"/>
        </g>
        <g id="_Groupe_64" data-name="&lt;Groupe&gt;">
            <path id="_Tracé_64" data-name="&lt;Tracé&gt;" class="cls-2"
                  d="M26,17.73a.38.38,0,0,1-.1.31.15.15,0,1,1-.31,0,.38.38,0,0,1,.1-.31A.15.15,0,0,1,26,17.73Z"/>
        </g>
        <g id="_Groupe_65" data-name="&lt;Groupe&gt;">
            <path id="_Tracé_65" data-name="&lt;Tracé&gt;" class="cls-2"
                  d="M24.91,16.09h0V16a.1.1,0,1,1,.21,0,.38.38,0,0,1-.1.31c-.1.1-.1.1-.21,0a.32.32,0,0,1,.1-.2Z"/>
        </g>
        <g id="_Groupe_66" data-name="&lt;Groupe&gt;">
            <path id="_Tracé_66" data-name="&lt;Tracé&gt;" class="cls-2"
                  d="M25,17.32v.51a.15.15,0,1,1-.31,0v-.51A.15.15,0,0,1,25,17.32Z"/>
        </g>
        <g id="_Groupe_67" data-name="&lt;Groupe&gt;">
            <path id="_Tracé_67" data-name="&lt;Tracé&gt;" class="cls-2"
                  d="M25,19.27v.31a.15.15,0,1,1-.31,0v-.31A.15.15,0,0,1,25,19.27Z"/>
        </g>
        <g id="_Groupe_68" data-name="&lt;Groupe&gt;">
            <path id="_Tracé_68" data-name="&lt;Tracé&gt;" class="cls-2"
                  d="M25,20.81a.1.1,0,0,1,.1.1v.21a.1.1,0,0,1-.21,0v-.21A.1.1,0,0,1,25,20.81Z"/>
        </g>
        <g id="_Groupe_69" data-name="&lt;Groupe&gt;">
            <path id="_Tracé_69" data-name="&lt;Tracé&gt;" class="cls-2"
                  d="M25.32,22.24v.31a.15.15,0,1,1-.31,0v-.31C25.11,22.14,25.32,22.14,25.32,22.24Z"/>
        </g>
        <g id="_Groupe_70" data-name="&lt;Groupe&gt;">
            <path id="_Tracé_70" data-name="&lt;Tracé&gt;" class="cls-2"
                  d="M26,22.45h0a.36.36,0,0,1,.21.1.1.1,0,0,1-.1.1H26a.1.1,0,1,1,0-.21Z"/>
        </g>
        <g id="_Groupe_71" data-name="&lt;Groupe&gt;">
            <path id="_Tracé_71" data-name="&lt;Tracé&gt;" class="cls-2"
                  d="M23.68,15.78v.41a.15.15,0,1,1-.31,0,.92.92,0,0,1,.1-.51C23.47,15.58,23.78,15.68,23.68,15.78Z"/>
        </g>
        <g id="_Groupe_72" data-name="&lt;Groupe&gt;">
            <path id="_Tracé_72" data-name="&lt;Tracé&gt;" class="cls-2"
                  d="M23.58,17.53v.41a.15.15,0,1,1-.31,0v-.41C23.37,17.32,23.58,17.32,23.58,17.53Z"/>
        </g>
        <g id="_Groupe_73" data-name="&lt;Groupe&gt;">
            <path id="_Tracé_73" data-name="&lt;Tracé&gt;" class="cls-2"
                  d="M23.68,19.17v.31a.15.15,0,1,1-.31,0v-.31A.15.15,0,1,1,23.68,19.17Z"/>
        </g>
        <g id="_Groupe_74" data-name="&lt;Groupe&gt;">
            <path id="_Tracé_74" data-name="&lt;Tracé&gt;" class="cls-2"
                  d="M23.68,20.6a.1.1,0,0,1,.1.1v.21a.1.1,0,1,1-.21,0v-.21C23.47,20.6,23.58,20.6,23.68,20.6Z"/>
        </g>
        <g id="_Groupe_75" data-name="&lt;Groupe&gt;">
            <path id="_Tracé_75" data-name="&lt;Tracé&gt;" class="cls-2"
                  d="M23.68,22A.15.15,0,1,1,24,22a.62.62,0,0,1-.1.41c0,.1-.1.1-.21.1s-.1-.1-.1-.21A.38.38,0,0,0,23.68,22Z"/>
        </g>
        <g id="_Groupe_76" data-name="&lt;Groupe&gt;">
            <path id="_Tracé_76" data-name="&lt;Tracé&gt;" class="cls-2"
                  d="M22.34,16a.15.15,0,1,1,.31,0,.62.62,0,0,1-.1.41c-.1.21-.31.1-.31-.1A.38.38,0,0,0,22.34,16Z"/>
        </g>
        <g id="_Groupe_77" data-name="&lt;Groupe&gt;">
            <path id="_Tracé_77" data-name="&lt;Tracé&gt;" class="cls-2"
                  d="M22.34,17.43v.72c0,.21-.21.31-.31.1a1.74,1.74,0,0,1-.1-.72C22,17.22,22.34,17.22,22.34,17.43Z"/>
        </g>
        <g id="_Groupe_78" data-name="&lt;Groupe&gt;">
            <path id="_Tracé_78" data-name="&lt;Tracé&gt;" class="cls-2"
                  d="M22.55,19.37v.41a.15.15,0,1,1-.31,0v-.41A.15.15,0,0,1,22.55,19.37Z"/>
        </g>
        <g id="_Groupe_79" data-name="&lt;Groupe&gt;">
            <path id="_Tracé_79" data-name="&lt;Tracé&gt;" class="cls-2"
                  d="M22.76,21.42v.72c0,.21-.21.31-.31.1s-.1-.51-.1-.82S22.76,21.22,22.76,21.42Z"/>
        </g>
        <g id="_Groupe_80" data-name="&lt;Groupe&gt;">
            <path id="_Tracé_80" data-name="&lt;Tracé&gt;" class="cls-2"
                  d="M21.42,15.89a.15.15,0,1,1,.31,0,.62.62,0,0,1-.1.41c0,.1-.1.1-.21.1s-.1-.1-.1-.2A.79.79,0,0,0,21.42,15.89Z"/>
        </g>
        <g id="_Groupe_81" data-name="&lt;Groupe&gt;">
            <path id="_Tracé_81" data-name="&lt;Tracé&gt;" class="cls-2"
                  d="M21.42,17.43v.31a.15.15,0,1,1-.31,0v-.31C21.22,17.22,21.42,17.22,21.42,17.43Z"/>
        </g>
        <g id="_Groupe_82" data-name="&lt;Groupe&gt;">
            <path id="_Tracé_82" data-name="&lt;Tracé&gt;" class="cls-2"
                  d="M21.53,19a.1.1,0,0,1,.1.1v.21a.1.1,0,0,1-.21,0v-.21A.1.1,0,0,1,21.53,19Z"/>
        </g>
        <g id="_Groupe_83" data-name="&lt;Groupe&gt;">
            <path id="_Tracé_83" data-name="&lt;Tracé&gt;" class="cls-6"
                  d="M12.81,20.09c.1.1.41.51.51.51a6.22,6.22,0,0,1,1,.72c.1.1.31.41.2.51s-.31.21-.41.21c-.31,0-.51.1-.62-.21s-.1-.51-.2-.62a2.14,2.14,0,0,1-.41-.62C12.61,20.09,12.81,20.09,12.81,20.09Z"/>
        </g>
        <g id="_Groupe_84" data-name="&lt;Groupe&gt;">
            <path id="_Tracé_84" data-name="&lt;Tracé&gt;" class="cls-8"
                  d="M29.21,19.68a12.39,12.39,0,0,0,1.84.51L33,20.5c.41,0,.82.1,1.23.1a10.6,10.6,0,0,0-1.74-6.87,2.61,2.61,0,0,0-2.36-1.43c-1.95.31-1.13,3-1,4.1A15.75,15.75,0,0,1,29.21,19.68Z"/>
        </g>
        <g id="_Groupe_85" data-name="&lt;Groupe&gt;">
            <path id="_Tracé_85" data-name="&lt;Tracé&gt;" class="cls-5"
                  d="M30.65,25.42a13.9,13.9,0,0,0,3-5c-.31,0-.72-.1-1-.1A11.55,11.55,0,0,1,30.75,20c-.41-.1-.82-.21-1.13-.31A3.35,3.35,0,0,1,28.19,22a2.24,2.24,0,0,1-.51.31c-2.56.92-8.82-2.46-8.82-2.46-.62.51,1.33,2.67,1.95,3.28C24,26.86,27.57,26.65,30.65,25.42Z"/>
        </g>
        <g id="_Groupe_86" data-name="&lt;Groupe&gt;">
            <path id="_Tracé_86" data-name="&lt;Tracé&gt;" class="cls-2"
                  d="M21.63,20.29c.1,0,.21,0,.21.1s0,.1.1.21v.1h0c.1.1.1.21,0,.21a.19.19,0,0,1-.31,0c0-.1-.1-.1-.1-.21v-.1A.38.38,0,0,1,21.63,20.29Z"/>
        </g>
        <g id="_Groupe_87" data-name="&lt;Groupe&gt;">
            <path id="_Tracé_87" data-name="&lt;Tracé&gt;" class="cls-10"
                  d="M22.34,8.92c.1.1.1.1.21.1a.1.1,0,0,1,.1.1c-.1.1-.1.1-.21.1s-.21-.1-.31-.2S22.24,8.82,22.34,8.92Z"/>
        </g>
        <g id="_Groupe_88" data-name="&lt;Groupe&gt;">
            <path id="_Tracé_88" data-name="&lt;Tracé&gt;" class="cls-10"
                  d="M23.17,9.63c.1.1.21.2.21.31v.2h-.21c-.1-.1-.1-.2-.21-.2C23,9.63,23.06,9.53,23.17,9.63Z"/>
        </g>
        <g id="_Groupe_89" data-name="&lt;Groupe&gt;">
            <path id="_Tracé_89" data-name="&lt;Tracé&gt;" class="cls-10"
                  d="M23.68,9.43h.21c0,.1.1.1.21.2s-.1.31-.21.2l-.21-.2C23.58,9.53,23.58,9.43,23.68,9.43Z"/>
        </g>
        <g id="_Groupe_90" data-name="&lt;Groupe&gt;">
            <path id="_Tracé_90" data-name="&lt;Tracé&gt;" class="cls-10"
                  d="M24.6,10.25c.1.1.31.31.31.41s-.21.31-.21.1-.21-.31-.31-.41A.12.12,0,1,1,24.6,10.25Z"/>
        </g>
        <g id="_Groupe_91" data-name="&lt;Groupe&gt;">
            <path id="_Tracé_91" data-name="&lt;Tracé&gt;" class="cls-6"
                  d="M27.47,11.79c-.1,0-.31-.2-.41-.31a13.22,13.22,0,0,1-.82-2.87c-.1-.31,0-.41-.31-.61-.21.41-.1.82-.31,1.23a1.88,1.88,0,0,1-1,1.13c-.21.1-.41,0-.62,0a4.27,4.27,0,0,1-.62-.2,7.4,7.4,0,0,1,0,1.54l-.31.31c0,.1.21.51.92.92a3.29,3.29,0,0,0,1.43.1,6.27,6.27,0,0,0,1.23-.51A1.82,1.82,0,0,0,27.47,11.79Z"/>
        </g>
        <g id="_Groupe_92" data-name="&lt;Groupe&gt;">
            <path id="_Tracé_92" data-name="&lt;Tracé&gt;" class="cls-5"
                  d="M22.45,5.23a1.45,1.45,0,0,1,1.43-.1c.62.2.72.72,1,1.23.1.2.31.61.62.72s.51-.41.82.1a.62.62,0,0,1-.1.82c-.31.31-.1.72-.21,1.13a2.65,2.65,0,0,1-.72,1.13,1.84,1.84,0,0,1-.92.62,1.16,1.16,0,0,1-1.13-.31,4.83,4.83,0,0,1-1.54-1.95,3.61,3.61,0,0,1-.31-2A2.62,2.62,0,0,1,22.45,5.23Z"/>
        </g>
        <g id="_Groupe_93" data-name="&lt;Groupe&gt;">
            <path id="_Tracé_93" data-name="&lt;Tracé&gt;"
                  d="M24.19,6.87h0a3.37,3.37,0,0,1-.62.31c-.21.1-.31-.1-.41-.2a.62.62,0,0,0,.41-.1C23.78,6.76,24.09,6.66,24.19,6.87Z"/>
        </g>
        <g id="_Groupe_94" data-name="&lt;Groupe&gt;">
            <path id="_Tracé_94" data-name="&lt;Tracé&gt;" class="cls-6"
                  d="M26.14,7.69l-.21.1c0-.1-.1-.2-.1-.41C26.14,7.28,26.14,7.48,26.14,7.69Z"/>
        </g>
        <g id="_Groupe_95" data-name="&lt;Groupe&gt;">
            <path id="_Tracé_95" data-name="&lt;Tracé&gt;"
                  d="M21.83,7.79l.31-.31c.1.1.21.2.1.31a.1.1,0,0,1-.1.1l-.41.2C21.63,8,21.73,7.89,21.83,7.79Z"/>
        </g>
        <g id="_Groupe_96" data-name="&lt;Groupe&gt;">
            <path id="_Tracé_96" data-name="&lt;Tracé&gt;"
                  d="M23.88,3.49a3.44,3.44,0,0,1,2.46.61,3,3,0,0,1,.41,4.3,2.24,2.24,0,0,1-.41.51c-.1.1-.2-.72-.2-.82s.31-.41.41-.61-.1-.61-.41-.51-.1.31-.31.31-.51-.41-.62-.51a5.69,5.69,0,0,1-.82-.62,2.09,2.09,0,0,0-1.54-.61.92.92,0,0,0-.51.1A4,4,0,0,1,23.88,3.49Z"/>
        </g>
        <g id="_Groupe_97" data-name="&lt;Groupe&gt;">
            <path id="_Tracé_97" data-name="&lt;Tracé&gt;"
                  d="M22.55,3.89a5.07,5.07,0,0,1,1.33-.41,4,4,0,0,0-1.54,2.15,1.84,1.84,0,0,0-.72.51,1.72,1.72,0,0,0-.31,1.23,1.73,1.73,0,0,1-.31-1,2,2,0,0,1,.21-1.13A2.43,2.43,0,0,1,22.55,3.89Z"/>
        </g>
        <g id="_Groupe_98" data-name="&lt;Groupe&gt;">
            <path id="_Tracé_98" data-name="&lt;Tracé&gt;" class="cls-6"
                  d="M24.91,8h0c.41.2-.21.82-.51.62S24.7,7.79,24.91,8Z"/>
        </g>
        <g id="_Groupe_99" data-name="&lt;Groupe&gt;">
            <path id="_Tracé_99" data-name="&lt;Tracé&gt;" class="cls-6"
                  d="M23.47,8.92c-.1.31-.51.62-.62.2,0-.1,0-.2.1-.2v-.2c0-.2-.1-.41-.1-.61C23.27,7.79,23.58,8.71,23.47,8.92Z"/>
        </g>
        <g id="_Groupe_100" data-name="&lt;Groupe&gt;">
            <path id="_Tracé_100" data-name="&lt;Tracé&gt;"
                  d="M24.19,7.48c.21,0,.31.2.41.41h-.1c0-.1-.1-.2-.31-.2s-.31,0-.31.1-.1.2,0,.41l-.1.1c-.21-.31-.1-.51,0-.51C23.88,7.48,24.09,7.38,24.19,7.48Z"/>
        </g>
        <g id="_Groupe_101" data-name="&lt;Groupe&gt;">
            <path id="_Tracé_101" data-name="&lt;Tracé&gt;"
                  d="M22.45,8.3c.1,0,.21.1.31.2h-.1l-.2-.2c-.1.1-.21.1-.21.2v.31h-.1c-.1-.2-.1-.31,0-.41A.2.2,0,0,1,22.45,8.3Z"/>
        </g>
        <g id="_Groupe_102" data-name="&lt;Groupe&gt;">
            <path id="_Tracé_102" data-name="&lt;Tracé&gt;" class="cls-6"
                  d="M22.65,8.82h0c.31.2-.21.72-.41.51S22.45,8.71,22.65,8.82Z"/>
        </g>
        <g id="_Groupe_103" data-name="&lt;Groupe&gt;">
            <path id="_Tracé_103" data-name="&lt;Tracé&gt;" class="cls-10"
                  d="M23.58,9.63h.1c0,.1.1.1.1.2s0,.2-.1.1a.36.36,0,0,1-.1-.2Z"/>
        </g>
        <g id="_Groupe_104" data-name="&lt;Groupe&gt;">
            <path id="_Tracé_104" data-name="&lt;Tracé&gt;" class="cls-6"
                  d="M24.39,9.23l.1.1h0C24.39,9.33,24.29,9.23,24.39,9.23Z"/>
        </g>
        <g id="_Groupe_105" data-name="&lt;Groupe&gt;">
            <path id="_Tracé_105" data-name="&lt;Tracé&gt;" class="cls-2"
                  d="M23.68,9.63l.62-.31v.2c-.21.51-.82.82-1.23.31A1.46,1.46,0,0,0,23.68,9.63Z"/>
        </g>
        <g id="_Groupe_106" data-name="&lt;Groupe&gt;">
            <path id="_Tracé_106" data-name="&lt;Tracé&gt;" class="cls-6"
                  d="M23.17,9.74a.1.1,0,0,1,.1-.1h.21c0-.1,0-.1.1-.2s.21-.1.31-.1a.62.62,0,0,0,.41-.1v.1a2.45,2.45,0,0,1-.72.31c-.1,0-.21.1-.31.1h-.21C23.06,9.84,23.06,9.84,23.17,9.74Z"/>
        </g>
        <g id="_Groupe_107" data-name="&lt;Groupe&gt;">
            <path id="_Tracé_107" data-name="&lt;Tracé&gt;" class="cls-6"
                  d="M23.58,10.15a.87.87,0,0,0,.51-.31c.1-.1.1-.1.1-.2v0a.73.73,0,0,1-.31.62.77.77,0,0,1-.51.1c-.21,0-.21-.2-.41-.31a.1.1,0,0,0-.1-.1,4.18,4.18,0,0,0,.72.2Z"/>
        </g>
        <g id="_Groupe_108" data-name="&lt;Groupe&gt;">
            <circle id="_Tracé_108" data-name="&lt;Tracé&gt;" cx="23.88" cy="7.89" r="0.21"/>
        </g>
        <g id="_Groupe_109" data-name="&lt;Groupe&gt;">
            <circle id="_Tracé_109" data-name="&lt;Tracé&gt;" cx="22.24" cy="8.61" r="0.21"/>
        </g>
        <g id="_Groupe_110" data-name="&lt;Groupe&gt;">
            <circle id="_Tracé_110" data-name="&lt;Tracé&gt;" class="cls-8" cx="26.14" cy="8.1" r="0.21"/>
        </g>
        <g id="_Groupe_111" data-name="&lt;Groupe&gt;">
            <path id="_Tracé_111" data-name="&lt;Tracé&gt;" class="cls-8"
                  d="M27.16,7.79S23,4.1,21.22,5a8.31,8.31,0,0,0-.31,1.13c0,.2-.82-.72-.72-1S21,3.48,21,3.28s.92-1.23.92-1.23L22.55.72l3.18.1a15.68,15.68,0,0,1,3,.72c0,.21.31,2.15.1,2.15a4.65,4.65,0,0,0-.82.21l1,2.36-1.33.92V8l-1,.31Z"/>
        </g>
        <g id="_Groupe_112" data-name="&lt;Groupe&gt;">
            <path id="_Tracé_112" data-name="&lt;Tracé&gt;"
                  d="M29.11,20a10.89,10.89,0,0,0,1.95.41c.41.1,1.13.31,1.43-.1a1.3,1.3,0,0,0,.1-.62c0-.31.1-.62.1-.92.1-.72.1-1.33.2-2.05-.21,0-.51.1-.72.1a13.53,13.53,0,0,1,.21,2.87.89.89,0,0,0,.41.92,5.91,5.91,0,0,0,1.43.31c.51.1.72-.62.21-.72-.21,0-.41-.1-.61-.1s-.51,0-.61-.1,0,.1,0-.1V19A9.18,9.18,0,0,0,33,16.6a.37.37,0,0,0-.72.1c0,.51-.1,1.13-.1,1.64a2.26,2.26,0,0,1-.1.82v.72l.21-.21c-.1.1-.51,0-.62-.1s-.51-.1-.72-.1c-.51-.1-.92-.21-1.33-.31-.82-.1-1,.62-.51.82Z"/>
        </g>
        <g id="_Groupe_113" data-name="&lt;Groupe&gt;">
            <path id="_Tracé_113" data-name="&lt;Tracé&gt;"
                  d="M21.32,19.68h0a.36.36,0,0,1-.21-.1.1.1,0,0,1-.1-.1h-.1c-.21-.1-.41-.21-.51,0s-.21.41,0,.51a2.06,2.06,0,0,0,.82.41.38.38,0,0,0,.31-.1C21.32,20.19,21.32,20,21.32,19.68Z"/>
        </g>
        <g id="_Groupe_114" data-name="&lt;Groupe&gt;">
            <path id="_Tracé_114" data-name="&lt;Tracé&gt;"
                  d="M23,12.2a2.65,2.65,0,0,0,1.43,1.13c0-.1,0-.2-.1-.2a1,1,0,0,0,0,1.43v-.2a.88.88,0,0,0,.1,1.33c0-.1,0-.1-.1-.2a1.1,1.1,0,0,0-.21.82c0,.1.1.2.1.31a.92.92,0,0,1,.1.51c-.1.41.21.82.62.51a1.11,1.11,0,0,0,.31-.72c0-.31.1-.72.1-1s-.1-.31,0-.41.1-.2.1-.31a1.48,1.48,0,0,0-.21-.72v.2a1,1,0,0,0,.1-1.33c0,.1-.1.1-.1.2A3.35,3.35,0,0,0,27.68,12c.1-.2-.21-.31-.21-.1a3,3,0,0,1-2.26,1.43c-.1,0-.1.1-.1.2a.79.79,0,0,1-.1,1c-.1.1,0,.1,0,.2a.63.63,0,0,1,.1.72c0,.1-.1.2-.1.31s.1.31.1.41v.41c0,.21-.1.51-.1.72s0,.21-.21.21-.1,0-.1-.21.1-.21.1-.31a.36.36,0,0,0-.1-.21.62.62,0,0,1-.1-.41.78.78,0,0,1,.21-.41c0-.1,0-.2-.1-.2a.54.54,0,0,1-.1-.82c.1-.1.1-.1,0-.2a.68.68,0,0,1,0-1c.1-.1,0-.2-.1-.2a2.39,2.39,0,0,1-1.23-1c-.2-.62-.41-.51-.31-.31Z"/>
        </g>
        <g id="_Groupe_115" data-name="&lt;Groupe&gt;">
            <path id="_Tracé_115" data-name="&lt;Tracé&gt;"
                  d="M16,6.66c-.1,0-.2-.1-.41-.1s-.1-.2,0-.2.2.1.41.1.1.2,0,.2Z"/>
        </g>
        <g id="_Groupe_116" data-name="&lt;Groupe&gt;">
            <path id="_Tracé_116" data-name="&lt;Tracé&gt;"
                  d="M15.38,6.56H15c-.1,0-.1,0-.1-.1a.1.1,0,0,1,.1-.1h.41s.1,0,0,.2c.1-.1.1,0,0,0Z"/>
        </g>
        <g id="_Groupe_117" data-name="&lt;Groupe&gt;">
            <path id="_Tracé_117" data-name="&lt;Tracé&gt;"
                  d="M14.45,6.56h-.31c-.1,0-.2-.1-.1-.2s.31,0,.41,0a.14.14,0,0,1,0,.2Z"/>
        </g>
        <g id="_Groupe_118" data-name="&lt;Groupe&gt;">
            <path id="_Tracé_118" data-name="&lt;Tracé&gt;" d="M13.73,6.66h-.31c-.1,0-.1-.2,0-.2h.31c.1,0,.1.2,0,.2Z"/>
        </g>
        <g id="_Groupe_119" data-name="&lt;Groupe&gt;">
            <path id="_Tracé_119" data-name="&lt;Tracé&gt;"
                  d="M12.92,6.76h-.2c-.1.1-.2-.1-.1-.2a.38.38,0,0,1,.31-.1c.2.1.1.31,0,.31Z"/>
        </g>
        <g id="_Groupe_120" data-name="&lt;Groupe&gt;">
            <path id="_Tracé_120" data-name="&lt;Tracé&gt;"
                  d="M12.3,7h-.1c-.1.1-.2-.1-.1-.2a.38.38,0,0,1,.31-.1.1.1,0,0,1,.1.1c-.1.2-.2.2-.2.2Z"/>
        </g>
        <g id="_Groupe_121" data-name="&lt;Groupe&gt;">
            <path id="_Tracé_121" data-name="&lt;Tracé&gt;"
                  d="M11.68,7.28c-.1,0-.2.1-.31.1s-.2-.1-.1-.2.2-.1.31-.1.2.2.1.2Z"/>
        </g>
        <g id="_Groupe_122" data-name="&lt;Groupe&gt;">
            <path id="_Tracé_122" data-name="&lt;Tracé&gt;"
                  d="M16,6A7.87,7.87,0,0,0,11.17,7c-.1.1-.2-.1-.1-.2a7.69,7.69,0,0,1,4.92-1Q16.14,6,16,6Z"/>
        </g>
        <g id="_Groupe_123" data-name="&lt;Groupe&gt;">
            <path id="_Tracé_123" data-name="&lt;Tracé&gt;" class="cls-2"
                  d="M9.12,9.74c-.41,0-.82.1-1.23.1a.31.31,0,0,1,0-.62,5,5,0,0,0,1.23-.1.31.31,0,1,1,0,.62Z"/>
        </g>
        <g id="_Groupe_124" data-name="&lt;Groupe&gt;">
            <path id="_Tracé_124" data-name="&lt;Tracé&gt;" class="cls-2"
                  d="M9,11.38c.31-.2.72-.31,1-.51a.3.3,0,1,0-.31-.51c-.31.2-.72.31-1,.51s0,.72.31.51Z"/>
        </g>
        <g id="_Groupe_125" data-name="&lt;Groupe&gt;">
            <path id="_Tracé_125" data-name="&lt;Tracé&gt;" class="cls-2"
                  d="M11.28,12.2a10.21,10.21,0,0,1-1,1.13.29.29,0,1,1-.41-.41,10.21,10.21,0,0,1,1-1.13c.2-.2.61.2.41.41Z"/>
        </g>
        <g id="_Groupe_126" data-name="&lt;Groupe&gt;">
            <path id="_Tracé_126" data-name="&lt;Tracé&gt;" class="cls-5"
                  d="M18.66,14.15a14,14,0,0,0-1-1.43c-.41-.31-.31-2.05-.62-1.54a1.53,1.53,0,0,0-.21,1.43c.21.2.51.72.21.92S18.66,14.15,18.66,14.15Z"/>
        </g>
        <g id="_Groupe_127" data-name="&lt;Groupe&gt;">
            <path id="_Tracé_127" data-name="&lt;Tracé&gt;" class="cls-8"
                  d="M18.45,19.17,18,18.86a6.91,6.91,0,0,1,2.26-4.41l.31.31-.1-.21.1.2A8.06,8.06,0,0,0,18.45,19.17Z"/>
        </g>
        <g id="_Groupe_128" data-name="&lt;Groupe&gt;">
            <path id="_Tracé_128" data-name="&lt;Tracé&gt;" class="cls-8"
                  d="M5.33,28.39a6.08,6.08,0,0,0,4.71-.1v-.62S7.28,28.8,5.64,28l-.2-.21-.1.62Z"/>
        </g>
        <g id="_Groupe_129" data-name="&lt;Groupe&gt;">
            <path id="_Tracé_129" data-name="&lt;Tracé&gt;" class="cls-11"
                  d="M13.94,24.6,12.3,19.27a.22.22,0,0,0-.2-.21l-1.85-.41a.44.44,0,0,0-.41.41l1.54,5.64c0,.1.2.21.31.21l2.05.1C13.84,25.11,13.94,24.91,13.94,24.6Z"/>
        </g>
        <g id="_Groupe_130" data-name="&lt;Groupe&gt;">
            <path id="_Tracé_130" data-name="&lt;Tracé&gt;" class="cls-12"
                  d="M14,24.5,12.4,19.17a.22.22,0,0,0-.2-.21l-1.95-.41a.44.44,0,0,0-.41.41l1.54,5.64c0,.1.2.21.31.21l2.05.1C13.94,24.91,14.15,24.7,14,24.5Z"/>
        </g>
        <g id="_Groupe_131" data-name="&lt;Groupe&gt;">
            <path id="_Tracé_131" data-name="&lt;Tracé&gt;" class="cls-13"
                  d="M13.84,24.19,12.4,19.48a.22.22,0,0,0-.2-.21l-1.64-.41c-.2,0-.41.1-.31.41l1.33,5c0,.1.1.21.31.21l1.85.1S13.94,24.39,13.84,24.19Z"/>
        </g>
        <g id="_Groupe_132" data-name="&lt;Groupe&gt;">
            <path id="_Tracé_132" data-name="&lt;Tracé&gt;" class="cls-5"
                  d="M20.5,20.71l-2.77-1.54s-3.59.1-3.69.82,1.43-.1,2.05.1-.62.31-.51.92.41.31.41.31-.1.82.31.72a.59.59,0,0,0,.82.21s2.26-.1,2.46-.51A2.25,2.25,0,0,1,20.5,20.71Z"/>
        </g>
        <g id="_Groupe_133" data-name="&lt;Groupe&gt;">
            <g id="_Groupe_134" data-name="&lt;Groupe&gt;">
                <path id="_Tracé_133" data-name="&lt;Tracé&gt;" class="cls-12"
                      d="M21.12,20.81c-.51-.82-1.43.21-1.64.72a1.69,1.69,0,0,0,0,1.23.4.4,0,0,0,.72.1c.1-.21-.1-.41-.21-.21s-.21-.21-.31-.21v-.31a4.44,4.44,0,0,1,.1-.51c.1-.21.72-1,.92-.51.31.1.61-.1.41-.31Z"/>
            </g>
        </g>
        <g id="_Groupe_135" data-name="&lt;Groupe&gt;">
            <g id="_Groupe_136" data-name="&lt;Groupe&gt;">
                <path id="_Tracé_134" data-name="&lt;Tracé&gt;" class="cls-12"
                      d="M21.73,21.12c-.51-.82-1.43.21-1.64.72a1.69,1.69,0,0,0,0,1.23.45.45,0,0,0,.72.21l-.1-.1c-.1-.1-.21-.21-.21-.31v-.1l-.1-.1v-.31a4.44,4.44,0,0,1,.1-.51,1.61,1.61,0,0,1,.72-.72h.1a.38.38,0,0,1,.31.1C21.83,21.22,21.83,21.22,21.73,21.12Z"/>
            </g>
        </g>
    </g>
</svg>
