<?xml version="1.0" encoding="UTF-8"?>
<!-- Generator: Adobe Illustrator 21.0.0, SVG Export Plug-In . SVG Version: 6.00 Build 0)  -->
<svg version="1.1" id="Calque_1" xmlns="http://www.w3.org/2000/svg" x="0px"
     y="0px" viewBox="0 0 125 146" style="enable-background:new 0 0 125 146;" xml:space="preserve">
<style type="text/css">
	.st0{fill:none;}
	.st1{fill:#704F47;}
	.st2{fill:#61332E;}
	.st3{fill:#C2786B;}
	.st4{fill:#70BABA;}
	.st5{fill:#14171A;}
	.st6{fill:#595959;}
	.st7{fill:#FF7800;}
	.st8{fill:#9EABBF;}
	.st9{fill:#243042;}
	.st10{fill:#8F8F8F;}
	.st11{fill:#FF96D9;}
	.st12{fill:none;stroke:#FFFFFF;stroke-width:0.62;stroke-linecap:round;stroke-miterlimit:10;}
	.st13{fill:#FFFFFF;}
</style>
    <rect x="0.2" class="st0" width="125" height="146"/>
    <g>
	<path class="st1"
          d="M28.5,83.2c0-2.1-0.1-4.1-0.1-6.2c0-1.9,0-3.8,1-5.5c1-1.7,3-4.1,4.5-5.5c1.9-1.7,3.2-2.6,4.2-4.8   c0.3-0.7,0.9-1.6,1.7-1.5c0.4,0,0.8,0.3,1,0.7c1.1,1.5,0.7,3.5-0.3,5c-1,1.6-2.6,2.8-4.2,4c-0.8,0.6-2.1,3.6-2.1,4.4   c0.3,3.4-0.5,6.9-2.2,10"/>
        <path class="st1"
              d="M45.8,67.8c-1-1.9-5.3,2.7-8.6,3.1c-2.3,0.3-6,5.9-7.5,7.7c-1.5,1.8-1.8,4.7-2.2,7c-0.9,5.4-0.8,11.2-2.7,16.4   C23.8,104.6-2.9,146,0.2,146c3,0,17,0,19,0c1.7,0,4-4.4,5.2-5.9c0.8-1,13.6-32.7,14.2-33.8c0.8-1.4,1.4-2.5,2.5-3.7   c2.7-2.9,4.9-6.7,5.7-10.5c0.7-4,0.4-6.3-3.1-9.7C41.6,80.4,47.2,70.4,45.8,67.8"/>
</g>
    <g>
	<path class="st2"
          d="M31.3,77.5c1.3-1.6,2.6-3.2,3.9-4.8c0.3-0.4-0.2-1-0.6-0.6c-1.3,1.6-2.6,3.2-3.9,4.8   C30.3,77.3,30.9,77.9,31.3,77.5"/>
        <path class="st2"
              d="M34.5,78.6c1.9-1.8,3.5-3.7,4.5-6.1c0.9-2.2,3.5-2.2,5-4c0.3-0.4-0.2-1-0.6-0.6c-1.3,1.6-3.8,1.7-4.8,3.5   c-0.3,0.5-0.5,1.2-0.7,1.7c-0.3,0.6-0.6,1.2-1,1.7c-0.8,1.2-1.9,2.2-2.9,3.2C33.5,78.4,34.1,79,34.5,78.6"/>
</g>
    <g>
	<path class="st2"
          d="M39.1,80.2c0.5-1.8,1-3.5,1.7-5.2c0.6-1.6,1.3-3.4,2.7-4.5c0.4-0.3-0.2-0.9-0.6-0.6c-1.3,1.1-2,2.9-2.7,4.4   c-0.8,1.8-1.4,3.7-1.9,5.6C38.1,80.5,38.9,80.8,39.1,80.2"/>
        <path class="st1"
              d="M72.6,84.1c0.4-2.1,0.7-2.9,2.8-1.9c2.2,1,4.6,1.4,6.6,2.7c2,1.3,3.1,3.9,4.2,6c2.5,4.9,3.7,11.9,7,16.4   c1.6,2.1,30.8,25.6,31,27.7c0.2,2.7-10.1,7.7-12.1,9.6c-1.1,1-1.5,1.7-3.2,1.3c-1.3-0.3-26.2-31.1-27.2-32c-1.2-1.1-2.1-2-3.5-2.8   c-3.4-2-4.3-7.4-6.2-10.9c-1.9-3.6-4.7-5.2-2.3-9.5C71.2,88.2,72.2,87,72.6,84.1"/>
</g>
    <g>
	<path class="st3" d="M64.9,43.5C64.8,43.5,64.4,43.7,64.9,43.5C64.9,43.5,64.9,43.5,64.9,43.5"/>
</g>
    <g>
	<path class="st4" d="M67.8,39.1C67.9,39.1,67.9,39.1,67.8,39.1L67.8,39.1C67.8,39.1,67.8,39.1,67.8,39.1"/>
        <path class="st4" d="M67.7,39L67.7,39C67.8,39,67.8,39,67.7,39"/>
</g>
    <path class="st5" d="M62.7,39.1L62.7,39.1L62.7,39.1z"/>
    <g>
	<path class="st5" d="M62.7,39.2C62.7,39.2,62.7,39.2,62.7,39.2C62.7,39.2,62.7,39.2,62.7,39.2"/>
        <path class="st5" d="M62.6,39.1C62.6,39.1,62.6,39.1,62.6,39.1C62.6,39.1,62.6,39.1,62.6,39.1"/>
        <path class="st6"
              d="M73.7,46.8c-1.7-1.3-3.7-1.2-6-1.2c-2.4,0-5.4,0-7.8-0.1c-2.3,0-4.7-0.1-7-0.1c-2,0-5.4-0.1-7.2,1.1   c-1.5,1.1-2.3,3.4-2.6,5.2c-0.5,3.7,0,7.4,0,11.1c0,4.5,0,8.7-0.1,13.3c0,3.4,0,7.8,0.1,11.2c0.1,2.9-0.1,5,0,7.8   c0.1,2.1-0.4,4.7,1.5,6.3c1.2,1,3.2,1.3,4.7,1.5c2.4,0.2,4.8,0,7.1,0.1c2.8,0.1,5.5-0.1,8.3-0.2c2.4-0.2,5.4,0.4,7.7-0.4   c2.6-1,3.3-3.5,3.4-6.4c0.3-11-0.3-22.1,0.2-33c0.1-3-0.2-6.2-0.3-9.2C75.7,51.2,76,48.6,73.7,46.8"/>
        <path d="M50.9,45.5c-0.3-0.2-0.9-0.3-1.9-0.2c-0.4,0-0.8,0.2-1,0.3c0,0.3-0.1,0.6,0.3,0.8c0.3,0.2,0.9,0.3,1.3,0.3   c0.4,0,0.7-0.1,1-0.2C51,46.2,50.8,45.9,50.9,45.5"/>
        <path class="st6"
              d="M48.8,45.2c-0.5,0.1-0.9,0.6-0.2,0.7h0c0.9,0.2,1.4-0.3,1.1-0.6C49.6,45.2,49.3,45.1,48.8,45.2"/>
        <path d="M69.8,47.3c-4.7,0-17.4-0.1-21.2-0.1c-5,0-4.8,6.3-4.9,8c0,0.6,0,17.3,0,29.4c0,6.8,0,12.2,0,12.4c0,5.2,2.6,6,5.9,6   c3.7,0,14.5,0,18.2,0c7.6,0,7.6-2.1,7.6-6.8c0-1.5,0-9.5,0.1-18.1c0-8.6,0.1-17.7,0.1-21.1c0-0.5,0-0.9,0-1.4   C75.7,52.4,75.7,47.3,69.8,47.3"/>
        <path class="st6"
              d="M64.3,48.5c-1.1,0-1.6,0.1-2.4,0.1c-0.8,0-3,0-4.7,0c-0.4,0-4.3-0.3-3,0.9c0.4,0.3,1.3,0.2,1.8,0.2   c1.2,0.1,2.7,0,4.2,0c1.5,0,2.4,0,4.2,0C65.9,49.7,65.6,48.5,64.3,48.5"/>
        <path d="M50.9,96.1c-1.6,0.2-3,0.1-4.6-0.4l-1.4-0.8c-1,2.1-0.4,5.1,1.2,6.8c1.3,1.4,3.8,1.3,5.6,1.1c2-0.2,4.2-0.3,4.4-2.4   c0.2-1.3,1-2.9,1-4.3C57.1,96,51.5,96,50.9,96.1"/>
        <path class="st7"
              d="M74,93.8c0-2,0-4,0-6c0-3.4,0-6.8,0-10.2h0c0-1.4,0-2.7,0-4.1c0-2.2,0.1-13.8,0.1-16c0-1.2,0-1.4,0-2.5   c0-3.2-1.9-3.5-3.8-3.6c-2.3,0-3.4-0.1-5.7-0.1c-3.4-0.1-6.8-0.1-10.3-0.2c-1.6,0-2.9-0.1-4.5-0.1c-1.4,0-4.2,0.1-4.2,2.7   c0,1.8-0.1,15.9-0.1,17.7c0,1.9,0,3.8,0,5.7c0,3.4-0.1,11.6-0.1,12.2c0,1.1,0,2.1,0,3.5c0,1.2-0.3,3.9,4.6,4c2,0,18.5,0.3,20.2,0.3   C73.9,97.1,74,94.4,74,93.8"/>
        <path class="st8" d="M56.6,93.5L56.6,93.5C56.6,93.5,56.6,93.5,56.6,93.5"/>
        <path class="st9" d="M46.8,74.2C46.8,74.2,46.8,74.2,46.8,74.2C46.8,74.2,46.8,74.2,46.8,74.2"/>
        <path class="st9" d="M47,74.1C47,74,47,74,47,74.1L47,74.1L47,74.1z"/>
        <path class="st9" d="M72.7,73.7C72.7,73.7,72.7,73.7,72.7,73.7L72.7,73.7L72.7,73.7z"/>
        <path class="st10"
              d="M63.4,99.2c-0.7-0.2-1.6-0.2-2.3-0.2c-0.6,0-2.2,0-3.5,0c-0.5,0-3.7-0.2-2.4,1.4c0.3,0.4,1.1,0.4,1.5,0.4   c0.9,0.1,2.1,0,3.1,0c1.2,0,1.8,0,3.2,0C64.1,100.9,64.9,99.6,63.4,99.2"/>
        <path class="st1"
              d="M47.5,78.9c-3.3,2.4-2.7,7.5-7.5,8.6c-0.8,0.2-2.1,0-3-0.3c-1-0.3-1.4-1.2-2-1.9c0.3,0.3-0.2,2.2-0.2,2.7   c-0.1,0.7-0.2,1.4-0.5,2.1c-0.6,1.2-1,2.2-0.9,3.6c0.1,2.7,1.3,5.8,3.7,7.2c3.6,2.1,6.3,0,8-3.3c0.4-0.7,0.6-1.5,0.8-2.3   c0.4-1.7,0.5-3.6,1-5.2c0.8-2.6,1.5-5.7,2.7-8.1C51.3,78.8,49.7,77.4,47.5,78.9"/>
        <path class="st1"
              d="M64.4,88.1c3.9,1.3,5.7,7.2,10.6,6.9c0.9,0,1.8,0.1,2.6-0.4c0.9-0.6,1-1.5,1.4-2.5c-0.2,0.4,0.8,2.1,1,2.5   c0.3,0.7,0.6,1.3,1.1,1.8c0.9,1,1.6,1.8,1.9,3.1c0.7,2.6,5.3,9.2,3.4,11.3c-2.8,3-8.7,0.9-11.3-1.7c-0.6-0.6-3.2-3.6-3.6-4.3   c-0.9-1.5-2-4.2-2.9-5.8c-2-3.5-6.6-7.8-7.9-9.4C59.9,88.6,62,87.3,64.4,88.1"/>
        <path class="st11"
              d="M61.5,88.6c1.3,0.6,2.6,1.4,3.3,2.7c0.1,0.3,0.3,0.6,0.2,0.9c0,0.3-0.2,0.6-0.5,0.7c-0.3,0.1-0.6-0.1-0.9-0.2   c-1.2-0.7-2.3-1.7-3.1-2.9c-0.2-0.3-0.3-0.6-0.2-0.9c0.2-0.2,0.5-0.2,0.7-0.2"/>
        <path class="st11"
              d="M50.2,80.3c-0.1,0.3-0.2,0.6-0.3,0.8c-0.2,0.5-0.4,0.9-0.7,1.3c-0.3,0.4-0.8,0.7-1.3,0.7   c-0.5,0-1-0.3-1.1-0.8c-0.1-0.4,0.1-0.7,0.3-1.1c0.4-0.8,0.8-1.5,1.4-2.3c0.2-0.3,0.5-0.7,0.8-0.9c0.1-0.1,0.3-0.2,0.5-0.2   c0.4,0,0.7,0.3,0.7,0.5C50.6,78.8,50.3,80,50.2,80.3"/>
        <path class="st7"
              d="M93.9,105c-1.1-0.8-2.6-0.7-3.9-0.4c-2.3,0.7-4.4,2.3-6.1,3.8c-1.3,1.1-2.6,2.3-3.4,3.8   c-0.8,1.4-1.2,3.1-1.1,4.7c0.1,1,0.3,2.1,1,2.8c0.5,0.5,1.2,0.8,1.9,1c1.4,0.3,3.6,0.1,5.1-0.2c0.1,0,0.2-0.1,0.2-0.1   c-0.6-0.5-1-1.1-1.5-1.7c-0.1,0-0.2,0-0.3,0.1c0,0-0.1,0-0.1,0c0,0,0,0,0,0c-0.3,0-0.6,0.1-0.9,0.1c-0.3,0-0.5,0-0.8,0   c-0.1,0-0.3,0-0.4,0c-0.1,0-0.1,0-0.2,0c0,0-0.3,0-0.1,0c-0.2,0-0.5-0.1-0.7-0.2c-0.1,0-0.1,0-0.2-0.1c-0.1-0.1-0.2-0.1-0.3-0.2   c0,0-0.1-0.1-0.1-0.1c0,0,0,0-0.1-0.1c0-0.1-0.1-0.2-0.1-0.2c0,0,0-0.1,0-0.1c0-0.1,0-0.2-0.1-0.2c0-0.2-0.1-0.4-0.1-0.6   c0,0,0-0.1,0-0.1c0-0.1,0-0.2,0-0.3c0-0.2,0-0.3,0-0.5c0-0.2,0-0.4,0-0.5c0-0.1,0-0.1,0-0.2c0,0,0-0.1,0-0.1c0,0,0,0,0-0.1   c0.1-0.3,0.1-0.7,0.2-1c0.1-0.4,0.2-0.5,0.4-0.9c0.3-0.6,0.6-1.1,1.1-1.5c0.6-0.6,1.2-1.2,1.8-1.7c0.5-0.5,1.1-1,1.6-1.4   c0,0,0.1-0.1,0.2-0.1c0,0,0.1-0.1,0.1-0.1c0,0,0.1-0.1,0.1-0.1c0,0,0.1-0.1,0.1-0.1c0.2-0.2,0.5-0.4,0.7-0.5   c0.4-0.3,0.9-0.6,1.4-0.8c0.2-0.1,0.4-0.2,0.6-0.3c0,0,0.2-0.1,0.2-0.1c0,0,0,0,0,0c0.1,0,0.1,0,0.2-0.1c0.3-0.1,0.7-0.2,1-0.3   c0.1,0,0.1,0,0.2,0c0,0,0,0,0,0c0.1,0,0.3,0,0.4,0c0.1,0,0.2,0,0.4,0h0c0,0,0.1,0,0.1,0c0.1,0,0.2,0,0.3,0.1c0,0,0,0,0.1,0   c0,0,0.1,0,0.1,0c0,0,0,0,0,0c0.1,0,0.2,0.1,0.2,0.1c0,0,0,0,0.1,0.1c0,0,0,0.1,0.1,0.1c0,0.1,0.1,0.1,0.1,0.2c0,0,0,0,0-0.1   c0,0,0,0.1,0,0.1c0,0,0,0,0,0c0,0,0,0,0,0c0.3,0.4,0.6,0.8,1,1.2c0.2,0.2,0.4,0.4,0.6,0.5c0.1-0.1,0.3-0.4,0.4-0.9   C95.4,106.8,94.9,105.7,93.9,105"/>
        <path class="st7" d="M82.2,118.7C82.3,118.8,82.3,118.8,82.2,118.7"/>
        <path class="st7"
              d="M97.1,107.5c-1.2-0.8-2.8-0.7-4.1-0.4c-2.4,0.7-4.5,2.3-6.4,4c-1.3,1.2-2.7,2.4-3.6,3.9   c-0.8,1.5-1.3,3.2-1.2,4.9c0.1,1,0.3,2.1,1,2.9c0.5,0.6,1.2,0.9,2,1c1.5,0.3,3.8,0.1,5.3-0.2c0.1,0,0.2-0.1,0.2-0.1   c-0.6-0.5-1.1-1.1-1.5-1.8c-0.1,0-0.2,0-0.3,0.1c-0.1,0-0.1,0-0.2,0c0,0,0,0,0,0c-0.3,0-0.6,0.1-0.9,0.1c-0.3,0-0.6,0-0.8,0   c-0.2,0-0.3,0-0.5,0c-0.1,0-0.1,0-0.2,0c0,0-0.3,0-0.1,0c-0.2,0-0.5-0.1-0.7-0.2c-0.1,0-0.1,0-0.2-0.1c-0.1-0.1-0.2-0.1-0.3-0.2   c0,0-0.1-0.1-0.1-0.1c0,0,0,0-0.1-0.1c0-0.1-0.1-0.2-0.1-0.2c0,0,0-0.1-0.1-0.1c0-0.1-0.1-0.2-0.1-0.2c-0.1-0.2-0.1-0.4-0.1-0.6   c0,0,0-0.1,0-0.1c0-0.1,0-0.2,0-0.3c0-0.2,0-0.3,0-0.5c0-0.2,0-0.4,0-0.6c0-0.1,0-0.1,0-0.2c0,0,0-0.1,0-0.1c0,0,0,0,0-0.1   c0.1-0.3,0.1-0.7,0.2-1c0.1-0.4,0.2-0.6,0.4-0.9c0.3-0.7,0.6-1.1,1.1-1.6c0.6-0.6,1.2-1.2,1.8-1.8c0.5-0.5,1.1-1,1.7-1.5   c0.1,0,0.1-0.1,0.2-0.1c0,0,0.1-0.1,0.1-0.1c0,0,0.1-0.1,0.1-0.1c0,0,0.1-0.1,0.2-0.1c0.2-0.2,0.5-0.4,0.8-0.5   c0.5-0.3,0.9-0.6,1.4-0.8c0.2-0.1,0.4-0.2,0.6-0.3c0,0,0.2-0.1,0.2-0.1c0,0,0,0,0,0c0.1,0,0.1,0,0.2-0.1c0.3-0.1,0.7-0.2,1.1-0.3   c0.1,0,0.2,0,0.2,0c0,0,0,0,0,0c0.1,0,0.3,0,0.4,0c0.1,0,0.3,0,0.4,0h0c0,0,0.1,0,0.1,0c0.1,0,0.2,0.1,0.3,0.1c0,0,0,0,0.1,0   c0,0,0.1,0,0.1,0c0,0,0,0,0,0c0.1,0,0.2,0.1,0.2,0.1c0,0,0,0,0.1,0.1c0,0,0.1,0.1,0.1,0.1c0,0.1,0.1,0.1,0.1,0.2c0,0,0,0,0-0.1   c0,0,0,0.1,0,0.1c0,0,0,0,0,0c0,0,0,0,0,0c0.4,0.4,0.6,0.9,1,1.2c0.2,0.2,0.4,0.4,0.7,0.6c0.1-0.1,0.3-0.4,0.4-0.9   C98.6,109.3,98.1,108.2,97.1,107.5"/>
        <path class="st7" d="M85,121.8C85,121.8,85,121.8,85,121.8"/>
        <path class="st12"
              d="M87.9,123.1h-0.5 M85,122.9c-0.4,0-0.7-0.1-1-0.5 M82.9,120.2v-0.5 M83.5,116.7c0-0.2,0.1-0.3,0.1-0.5    M85.2,114.1c0.1-0.1,0.2-0.2,0.3-0.3 M87.7,111.6c0.2-0.2,0.4-0.3,0.6-0.5 M91,109.2c0.1-0.1,0.3-0.2,0.4-0.3 M93.7,107.9   c0.3-0.1,0.6-0.1,0.9-0.2 M96.9,108.6c0.2,0,0.3,0.2,0.4,0.3 M85.5,119.8h-0.3 M80.7,118.9c0-0.2-0.1-0.4-0.1-0.6 M80.1,116.1   c0-0.2,0-0.4,0.1-0.6 M81.4,112.4c0.1-0.2,0.2-0.3,0.3-0.5 M83.8,109.9c0-0.1,0.1-0.2,0.2-0.3 M86.4,107.7c0.2-0.1,0.4-0.2,0.5-0.3    M89.8,105.8c0.2-0.1,0.5-0.1,0.7-0.2 M93.3,106c0.2,0,0.5,0.1,0.6,0.3"/>
        <path class="st13"
              d="M60.2,61.4c2.1,0,3.8-1.7,3.8-3.8c0-2.1-1.7-3.8-3.8-3.8c-2.1,0-3.8,1.7-3.8,3.8   C56.4,59.7,58.1,61.4,60.2,61.4"/>
        <path class="st13"
              d="M66,64H62c-0.3,0-0.5,0.2-0.5,0.5v7.7c0,0.3,0.2,0.5,0.5,0.5H66c0.3,0,0.5-0.2,0.5-0.5v-7.7   C66.5,64.3,66.3,64,66,64 M63.6,64.3h0.8c0.1,0,0.1,0.1,0.1,0.1s-0.1,0.1-0.1,0.1h-0.8c-0.1,0-0.1-0.1-0.1-0.1S63.5,64.3,63.6,64.3    M64,72.5c-0.1,0-0.3-0.1-0.3-0.3c0-0.1,0.1-0.3,0.3-0.3c0.1,0,0.3,0.1,0.3,0.3C64.2,72.3,64.1,72.5,64,72.5 M66,71.7H62v-6.9H66   V71.7z"/>
        <path class="st13"
              d="M61,64.5c0-0.5,0.4-0.9,0.9-0.9h3.7c-0.4-1.1-1.2-2.1-2.2-2.6c-0.9,0.8-2,1.3-3.3,1.3c-1.3,0-2.4-0.5-3.3-1.3   c-1.4,0.8-2.4,2.3-2.5,4v4.4c0,1.2,0.9,2.1,2.1,2.1H61V64.5z"/>
</g>
    <g>
	<path d="M50.4,75c0.1-0.3,0.2-0.5,0.4-0.7c0.2-0.2,0.4-0.3,0.6-0.5c0.2-0.1,0.5-0.2,0.8-0.2c0.3,0,0.6,0.1,0.8,0.2   c0.2,0.1,0.5,0.3,0.6,0.5c0.2,0.2,0.3,0.4,0.4,0.7c0.1,0.3,0.1,0.5,0.1,0.8c0,0.3,0,0.6-0.1,0.8c-0.1,0.3-0.2,0.5-0.4,0.7   c-0.2,0.2-0.4,0.3-0.6,0.4c-0.2,0.1-0.5,0.2-0.8,0.2c-0.3,0-0.6-0.1-0.8-0.2c-0.2-0.1-0.5-0.3-0.6-0.4c-0.2-0.2-0.3-0.4-0.4-0.7   c-0.1-0.3-0.1-0.5-0.1-0.8C50.2,75.5,50.3,75.2,50.4,75z M51.2,76.3c0,0.2,0.1,0.3,0.2,0.4c0.1,0.1,0.2,0.2,0.3,0.3   c0.1,0.1,0.3,0.1,0.5,0.1c0.2,0,0.4,0,0.5-0.1c0.1-0.1,0.3-0.2,0.3-0.3c0.1-0.1,0.2-0.3,0.2-0.4c0-0.2,0.1-0.3,0.1-0.5   c0-0.2,0-0.3-0.1-0.5c0-0.2-0.1-0.3-0.2-0.4s-0.2-0.2-0.3-0.3c-0.1-0.1-0.3-0.1-0.5-0.1c-0.2,0-0.4,0-0.5,0.1   c-0.1,0.1-0.3,0.2-0.3,0.3c-0.1,0.1-0.2,0.3-0.2,0.4c0,0.2-0.1,0.3-0.1,0.5C51.1,76,51.2,76.1,51.2,76.3z"/>
        <path d="M55.5,74.9v0.5h0c0-0.1,0.1-0.2,0.2-0.3c0.1-0.1,0.1-0.1,0.2-0.2c0.1-0.1,0.2-0.1,0.3-0.1c0.1,0,0.2,0,0.3,0   c0.1,0,0.1,0,0.2,0v0.7c0,0-0.1,0-0.1,0c-0.1,0-0.1,0-0.2,0c-0.1,0-0.3,0-0.4,0.1c-0.1,0-0.2,0.1-0.2,0.2c-0.1,0.1-0.1,0.2-0.1,0.3   c0,0.1,0,0.2,0,0.4v1.3h-0.8v-2.9H55.5z"/>
</g>
    <g>
	<path d="M56.8,75.8c0-0.2,0.1-0.3,0.1-0.5c0.1-0.1,0.2-0.2,0.3-0.3c0.1-0.1,0.3-0.1,0.4-0.2s0.3,0,0.5,0c0.1,0,0.3,0,0.4,0   c0.2,0,0.3,0.1,0.4,0.1s0.2,0.1,0.3,0.3c0.1,0.1,0.1,0.3,0.1,0.4v1.5c0,0.1,0,0.3,0,0.4s0,0.2,0.1,0.3h-0.8c0,0,0-0.1,0-0.1   s0-0.1,0-0.1c-0.1,0.1-0.3,0.2-0.5,0.3c-0.2,0.1-0.4,0.1-0.5,0.1c-0.1,0-0.3,0-0.4-0.1c-0.1,0-0.2-0.1-0.3-0.2   c-0.1-0.1-0.2-0.2-0.2-0.3c-0.1-0.1-0.1-0.2-0.1-0.4c0-0.2,0-0.3,0.1-0.4c0.1-0.1,0.1-0.2,0.2-0.3c0.1-0.1,0.2-0.1,0.3-0.1   c0.1,0,0.2-0.1,0.4-0.1c0.1,0,0.2,0,0.4,0s0.2,0,0.3-0.1c0.1,0,0.2-0.1,0.2-0.1c0.1,0,0.1-0.1,0.1-0.2c0-0.1,0-0.2,0-0.2   s-0.1-0.1-0.1-0.1c0,0-0.1,0-0.2-0.1c-0.1,0-0.1,0-0.2,0c-0.2,0-0.3,0-0.4,0.1c-0.1,0.1-0.1,0.2-0.2,0.3H56.8z M58.7,76.4   c0,0-0.1,0.1-0.1,0.1c-0.1,0-0.1,0-0.2,0c-0.1,0-0.1,0-0.2,0c-0.1,0-0.1,0-0.2,0c-0.1,0-0.1,0-0.2,0c-0.1,0-0.1,0-0.2,0.1   c0,0-0.1,0.1-0.1,0.1c0,0,0,0.1,0,0.2c0,0.1,0,0.1,0,0.2c0,0,0.1,0.1,0.1,0.1c0,0,0.1,0,0.2,0.1c0.1,0,0.1,0,0.2,0   c0.2,0,0.3,0,0.4-0.1s0.2-0.1,0.2-0.2c0-0.1,0.1-0.1,0.1-0.2c0-0.1,0-0.1,0-0.2V76.4z"/>
        <path d="M60.9,74.9v0.4h0c0.1-0.2,0.2-0.3,0.4-0.4c0.2-0.1,0.3-0.1,0.5-0.1c0.2,0,0.4,0,0.5,0.1c0.1,0.1,0.2,0.1,0.3,0.2   c0.1,0.1,0.1,0.2,0.2,0.4c0,0.1,0,0.3,0,0.5v1.8h-0.8v-1.7c0-0.2,0-0.4-0.1-0.5s-0.2-0.2-0.4-0.2c-0.2,0-0.4,0.1-0.5,0.2   c-0.1,0.1-0.1,0.3-0.1,0.6v1.5h-0.8v-2.9H60.9z"/>
        <path d="M66.2,78c0,0.2-0.1,0.3-0.2,0.4c-0.1,0.1-0.3,0.2-0.5,0.3c-0.2,0.1-0.5,0.1-0.8,0.1c-0.1,0-0.3,0-0.4-0.1   c-0.1,0-0.3-0.1-0.4-0.2c-0.1-0.1-0.2-0.2-0.3-0.3c-0.1-0.1-0.1-0.3-0.1-0.4h0.8c0,0.2,0.1,0.3,0.2,0.3c0.1,0.1,0.2,0.1,0.4,0.1   c0.2,0,0.4-0.1,0.5-0.2c0.1-0.1,0.2-0.3,0.2-0.5v-0.4h0c-0.1,0.2-0.2,0.3-0.4,0.3c-0.2,0.1-0.3,0.1-0.5,0.1c-0.2,0-0.4,0-0.6-0.1   c-0.2-0.1-0.3-0.2-0.4-0.3c-0.1-0.1-0.2-0.3-0.2-0.5c0-0.2-0.1-0.4-0.1-0.6c0-0.2,0-0.4,0.1-0.5c0.1-0.2,0.1-0.3,0.2-0.5   c0.1-0.1,0.2-0.2,0.4-0.3c0.2-0.1,0.3-0.1,0.5-0.1c0.2,0,0.4,0,0.5,0.1c0.1,0.1,0.3,0.2,0.4,0.4h0v-0.4h0.8v2.7   C66.3,77.7,66.3,77.9,66.2,78z M65.1,77.1c0.1,0,0.2-0.1,0.2-0.2c0.1-0.1,0.1-0.2,0.1-0.3c0-0.1,0-0.2,0-0.3c0-0.1,0-0.2,0-0.3   c0-0.1-0.1-0.2-0.1-0.3c-0.1-0.1-0.1-0.1-0.2-0.2s-0.2-0.1-0.3-0.1c-0.1,0-0.2,0-0.3,0.1c-0.1,0-0.2,0.1-0.2,0.2   c-0.1,0.1-0.1,0.2-0.1,0.3c0,0.1,0,0.2,0,0.3c0,0.1,0,0.2,0,0.3c0,0.1,0.1,0.2,0.1,0.3c0.1,0.1,0.1,0.2,0.2,0.2   c0.1,0.1,0.2,0.1,0.3,0.1C65,77.1,65.1,77.1,65.1,77.1z"/>
        <path d="M67.8,77.1c0.1,0.1,0.3,0.2,0.5,0.2c0.2,0,0.3,0,0.4-0.1c0.1-0.1,0.2-0.2,0.2-0.3h0.7c-0.1,0.4-0.3,0.6-0.5,0.8   c-0.2,0.2-0.5,0.2-0.9,0.2c-0.2,0-0.4,0-0.6-0.1c-0.2-0.1-0.3-0.2-0.5-0.3c-0.1-0.1-0.2-0.3-0.3-0.5c-0.1-0.2-0.1-0.4-0.1-0.6   c0-0.2,0-0.4,0.1-0.6c0.1-0.2,0.2-0.4,0.3-0.5c0.1-0.1,0.3-0.2,0.5-0.3c0.2-0.1,0.4-0.1,0.6-0.1c0.2,0,0.5,0,0.7,0.1   c0.2,0.1,0.3,0.2,0.5,0.4c0.1,0.2,0.2,0.3,0.3,0.6c0.1,0.2,0.1,0.4,0.1,0.7h-2.1C67.6,76.8,67.7,77,67.8,77.1z M68.7,75.6   c-0.1-0.1-0.2-0.2-0.4-0.2c-0.1,0-0.2,0-0.3,0.1s-0.2,0.1-0.2,0.2c-0.1,0.1-0.1,0.1-0.1,0.2c0,0.1,0,0.1,0,0.2h1.3   C68.9,75.8,68.8,75.7,68.7,75.6z"/>
</g>
    <g>
	<path d="M52.7,82.6c0.1,0.1,0.3,0.2,0.5,0.2c0.2,0,0.3,0,0.4-0.1c0.1-0.1,0.2-0.2,0.2-0.3h0.7c-0.1,0.4-0.3,0.6-0.5,0.8   c-0.2,0.2-0.5,0.2-0.9,0.2c-0.2,0-0.4,0-0.6-0.1c-0.2-0.1-0.3-0.2-0.5-0.3c-0.1-0.1-0.2-0.3-0.3-0.5c-0.1-0.2-0.1-0.4-0.1-0.6   c0-0.2,0-0.4,0.1-0.6c0.1-0.2,0.2-0.4,0.3-0.5c0.1-0.1,0.3-0.2,0.5-0.3c0.2-0.1,0.4-0.1,0.6-0.1c0.2,0,0.5,0,0.7,0.1   c0.2,0.1,0.3,0.2,0.5,0.4s0.2,0.3,0.3,0.6c0.1,0.2,0.1,0.4,0.1,0.7h-2.1C52.5,82.3,52.6,82.5,52.7,82.6z M53.6,81.1   c-0.1-0.1-0.2-0.2-0.4-0.2c-0.1,0-0.2,0-0.3,0.1c-0.1,0-0.2,0.1-0.2,0.2c-0.1,0.1-0.1,0.1-0.1,0.2c0,0.1,0,0.1,0,0.2h1.3   C53.8,81.4,53.7,81.2,53.6,81.1z"/>
        <path d="M56.7,80.4v0.5h-0.6v1.5c0,0.1,0,0.2,0.1,0.3c0,0,0.1,0.1,0.3,0.1c0,0,0.1,0,0.1,0c0,0,0.1,0,0.1,0v0.6c-0.1,0-0.1,0-0.2,0   c-0.1,0-0.2,0-0.2,0c-0.1,0-0.2,0-0.4,0c-0.1,0-0.2-0.1-0.3-0.1s-0.2-0.1-0.2-0.2c0-0.1-0.1-0.2-0.1-0.4v-1.7h-0.5v-0.5h0.5v-0.9   h0.8v0.9H56.7z"/>
        <path d="M59.5,80.4v0.4h0c0.1-0.2,0.2-0.3,0.4-0.4c0.1-0.1,0.3-0.1,0.5-0.1c0.2,0,0.4,0,0.5,0.1c0.2,0.1,0.3,0.2,0.3,0.4   c0.1-0.1,0.2-0.2,0.4-0.3c0.1-0.1,0.3-0.1,0.5-0.1c0.2,0,0.3,0,0.4,0.1c0.1,0,0.2,0.1,0.3,0.2c0.1,0.1,0.2,0.2,0.2,0.3   c0.1,0.1,0.1,0.3,0.1,0.5v2h-0.8v-1.7c0-0.1,0-0.2,0-0.3c0-0.1,0-0.2-0.1-0.2c0-0.1-0.1-0.1-0.2-0.2C62.1,81,62,81,61.9,81   c-0.1,0-0.2,0-0.3,0.1c-0.1,0-0.1,0.1-0.2,0.2c0,0.1-0.1,0.2-0.1,0.2c0,0.1,0,0.2,0,0.3v1.6h-0.8v-1.6c0-0.1,0-0.2,0-0.3   c0-0.1,0-0.2,0-0.2c0-0.1-0.1-0.1-0.1-0.2c-0.1,0-0.2-0.1-0.3-0.1c0,0-0.1,0-0.2,0c-0.1,0-0.1,0-0.2,0.1c-0.1,0-0.1,0.1-0.2,0.2   c0,0.1-0.1,0.2-0.1,0.3v1.7h-0.8v-2.9H59.5z"/>
        <path d="M63.9,81.2c0.1-0.2,0.2-0.4,0.3-0.5s0.3-0.2,0.5-0.3c0.2-0.1,0.4-0.1,0.6-0.1s0.4,0,0.6,0.1c0.2,0.1,0.3,0.2,0.5,0.3   c0.1,0.1,0.2,0.3,0.3,0.5c0.1,0.2,0.1,0.4,0.1,0.6c0,0.2,0,0.4-0.1,0.6s-0.2,0.4-0.3,0.5c-0.1,0.1-0.3,0.2-0.5,0.3   c-0.2,0.1-0.4,0.1-0.6,0.1s-0.4,0-0.6-0.1c-0.2-0.1-0.3-0.2-0.5-0.3c-0.1-0.1-0.2-0.3-0.3-0.5c-0.1-0.2-0.1-0.4-0.1-0.6   C63.8,81.6,63.8,81.4,63.9,81.2z M64.6,82.2c0,0.1,0.1,0.2,0.1,0.3c0.1,0.1,0.1,0.2,0.2,0.2c0.1,0.1,0.2,0.1,0.3,0.1   c0.1,0,0.3,0,0.3-0.1c0.1-0.1,0.2-0.1,0.2-0.2c0.1-0.1,0.1-0.2,0.1-0.3c0-0.1,0-0.2,0-0.3c0-0.1,0-0.2,0-0.3c0-0.1-0.1-0.2-0.1-0.3   c-0.1-0.1-0.1-0.2-0.2-0.2c-0.1-0.1-0.2-0.1-0.3-0.1c-0.1,0-0.2,0-0.3,0.1c-0.1,0.1-0.2,0.1-0.2,0.2c-0.1,0.1-0.1,0.2-0.1,0.3   s0,0.2,0,0.3C64.6,82,64.6,82.1,64.6,82.2z"/>
</g>
    <g>
	<path d="M66.8,80v-0.7h0.8V80H66.8z M67.6,80.4v2.9h-0.8v-2.9H67.6z"/>
</g>
    <polygon class="st1" points="123.2,133.6 125.2,136 125.2,136 125.2,146 109.8,146 "/>
</svg>
