<?xml version="1.0" encoding="UTF-8"?>
<svg width="38px" height="20px" viewBox="0 0 38 20" version="1.1" xmlns="http://www.w3.org/2000/svg"
>
    <title>5ED7C259-399E-46AB-9758-76FF0309E1B7</title>
    <g id="Page-1" stroke="none" stroke-width="1" fill="none" fill-rule="evenodd">
        <g id="[NEW-OSN]---Souscription-Internet-Fibre-&amp;-ADSL-changement-d'offre-7"
           transform="translate(-720, -670)">
            <g id="Group-17" transform="translate(550, 440)">
                <g id="Group-19-Copy-3" transform="translate(110, 200)">
                    <g id="Group-20" transform="translate(60, 30)">
                        <path d="M15.6773005,2 L4.23703103,2 C2.95420599,2 1.91433158,3.03987441 1.91433158,4.32269945 C1.91433158,5.60552449 2.95420599,6.6453989 4.23703103,6.6453989 L10.0698781,6.6453989 L0.680274461,16.0348756 C-0.226758154,16.9419082 -0.226758154,18.4125659 0.680274461,19.3197255 C1.58743407,20.2267582 3.05809183,20.2267582 3.96512444,19.3197255 L13.3546011,9.93024888 L13.3546011,15.762969 C13.3546011,17.045794 14.3944755,18.0856684 15.6773005,18.0856684 C16.9601256,18.0856684 18,17.045794 18,15.762969 L18,4.32269945 C18,3.03987441 16.9601256,2 15.6773005,2"
                              id="Fill-1" fill="#FFFFFF"></path>
                        <path d="M22.3226995,18 L33.762969,18 C35.045794,18 36.0856684,16.9601256 36.0856684,15.6773005 C36.0856684,14.3944755 35.045794,13.3546011 33.762969,13.3546011 L27.9302489,13.3546011 L37.3197255,3.96512444 C38.2267582,3.05809183 38.2267582,1.58743407 37.3197255,0.680274461 C36.4125659,-0.226758154 34.9419082,-0.226758154 34.0348756,0.680274461 L24.6453989,10.0697511 L24.6453989,4.23703103 C24.6453989,2.95420599 23.6055245,1.91433158 22.3226995,1.91433158 C21.0398744,1.91433158 20,2.95420599 20,4.23703103 L20,15.6773005 C20,16.9601256 21.0398744,18 22.3226995,18"
                              id="Fill-4" fill="#ff7900"></path>
                    </g>
                </g>
            </g>
        </g>
    </g>
</svg>
