<svg xmlns:xlink="http://www.w3.org/1999/xlink" xmlns="http://www.w3.org/2000/svg" width="18" height="27"
     viewBox="0 0 18 27">
    <defs>
        <path id="a"
              d="M11.4 24.6h5.4v-9h-5.4v9zm2.7 1.8a.6.6 0 1 1 0-1.2.6.6 0 0 1 0 1.2zm3.15-12.15h-6.3a.75.75 0 0 0-.75.75v11.25c0 .414.335.75.75.75h6.3a.75.75 0 0 0 .75-.75V15a.75.75 0 0 0-.75-.75zm-9-3.75a5.25 5.25 0 1 0 0-10.5 5.25 5.25 0 0 0 0 10.5zm7.548 3a6.778 6.778 0 0 0-3.174-3.109A6.723 6.723 0 0 1 8.25 12a6.723 6.723 0 0 1-4.374-1.609A6.75 6.75 0 0 0 0 16.5v6a3 3 0 0 0 3 3h6.45V15a1.5 1.5 0 0 1 1.5-1.5h4.848z"/>
    </defs>
    <g fill="none" fill-rule="evenodd">
        <mask id="b" fill="#fff">
            <use xlink:href="#a"/>
        </mask>
        <use fill="#000" xlink:href="#a"/>
        <g fill="#000" mask="url(#b)">
            <path d="M-9-5h36v36H-9z"/>
        </g>
    </g>
</svg>
