<svg xmlns:xlink="http://www.w3.org/1999/xlink" xmlns="http://www.w3.org/2000/svg" width="19" height="27"
     viewBox="0 0 19 27">
    <defs>
        <path id="a"
              d="M8.957 10.025c.562 0 1.018.456 1.018 1.018v4.63a1.018 1.018 0 1 1-2.037 0v-2.171L4.4 17.04a1.015 1.015 0 0 1-1.44 0 1.018 1.018 0 0 1 0-1.44l3.538-3.538h-2.17a1.018 1.018 0 0 1 0-2.037h4.629zm9.144 1.09l-2.219 2.22-1.32 1.319H16.734a1.018 1.018 0 0 1 0 2.037h-4.629a1.018 1.018 0 0 1-1.018-1.019v-4.629a1.018 1.018 0 1 1 2.037 0v2.17l1.171-1.17 1.588-1.59.78-.778a1.018 1.018 0 1 1 1.44 1.44zm-3.807 7.836v-.99h1.588V25.411c0 .878-.71 1.589-1.586 1.589H1.586A1.587 1.587 0 0 1 0 25.412V1.588C0 .711.71 0 1.587 0h12.709c.876 0 1.586.711 1.586 1.588V9.183l-1.588 1.588V2.382H1.588v21.442h12.706V18.95zm-6.353 7.255a.794.794 0 1 0 0-1.588.794.794 0 0 0 0 1.588zM6.75.794a.398.398 0 0 0-.397.397c0 .219.179.397.397.397h2.382a.398.398 0 0 0 .397-.397.398.398 0 0 0-.397-.397H6.75z"/>
    </defs>
    <g fill="none" fill-rule="evenodd">
        <mask id="b" fill="#fff">
            <use xlink:href="#a"/>
        </mask>
        <use fill="#000" xlink:href="#a"/>
        <g fill="#000" mask="url(#b)">
            <path d="M-9-5h36v36H-9z"/>
        </g>
    </g>
</svg>
